SplineFontDB: 2.0
FontName: Sawasdee-Oblique
FullName: Sawasdee Oblique
FamilyName: Sawasdee
Weight: Regular
Copyright: Copyright (c) 2007 Pol Udomwittayanukul. All rights reserved.
Version: 001.002: 2008-01-19
ItalicAngle: -12
UnderlinePosition: -153
UnderlineWidth: 102
Ascent: 1536
Descent: 512
XUID: [1021 180 1442959360 14105407]
UniqueID: 4256560
FSType: 8
OS2Version: 0
OS2_WeightWidthSlopeOnly: 0
OS2_UseTypoMetrics: 1
CreationTime: 1178430034
ModificationTime: 1200713358
PfmFamily: 17
TTFWeight: 400
TTFWidth: 5
LineGap: 184
VLineGap: 0
OS2TypoAscent: 0
OS2TypoAOffset: 1
OS2TypoDescent: 0
OS2TypoDOffset: 1
OS2TypoLinegap: 184
OS2WinAscent: 0
OS2WinAOffset: 1
OS2WinDescent: 0
OS2WinDOffset: 1
HheadAscent: 4
HheadAOffset: 1
HheadDescent: 82
HheadDOffset: 1
OS2Vendor: 'PfEd'
Lookup: 4 0 1 "'liga' Standard Ligatures in Latin lookup 0"  {"'liga' Standard Ligatures in Latin lookup 0"  } ['liga' ('latn' <'dflt' > ) ]
Lookup: 4 0 0 "'frac' Diagonal Fractions in Latin lookup 42"  {"'frac' Diagonal Fractions in Latin lookup 42"  } ['frac' ('latn' <'dflt' > ) ]
Lookup: 6 0 0 "'ccmp' Thai General Composition"  {"'ccmp' Thai Below Vowel Tone Reordering"  "'ccmp' Thai General Composition"  } ['ccmp' ('thai' <'KUY ' 'PAL ' 'THA ' 'dflt' > ) ]
Lookup: 6 0 0 "'ccmp' Thai Conditional Descender Removal"  {"'ccmp' Thai Conditional Descender Removal"  } ['ccmp' ('thai' <'KUY ' 'PAL ' 'THA ' 'dflt' > ) ]
Lookup: 5 0 0 "Required Thai Descender Removal"  {"Required Thai Descender Removal"  } [' RQD' ('thai' <'PAL ' > ) ]
Lookup: 1 0 0 "Thai Descender Removal Single Substitution"  {"Thai Descender Removal Single Substitution" ("descless" ) } []
Lookup: 2 0 0 "Thai Sara Am Decomposition"  {"Thai Sara Am Decomposition"  } []
Lookup: 2 0 0 "Thai Tone Nikhahit Attachment"  {"Thai Tone Nikhahit Attachment"  } []
Lookup: 1 0 0 "Thai Sara Am Lakkhang"  {"Thai Sara Am Lakkhang"  } []
Lookup: 1 0 0 "Thai Tone Low Variant"  {"Thai Tone Low Variant" ("low" ) } []

StartChar: exclam
Encoding: 1 33 1
Width: 498
VWidth: 2982
Flags: W
HStem: -15 167<198.177 332>
VStem: 179 173<6.04936 131.986>
Fore
338 269 m 1
 278 269 l 1
 508 1493 l 1
 626 1493 l 1
 338 269 l 1
179 54 m 0
 179 111 237 152 282 152 c 0
 322 152 352 124 352 85 c 0
 352 27 293 -15 248 -15 c 0
 208 -15 179 15 179 54 c 0
EndSplineSet
EndChar
StartChar: quotedbl
Encoding: 2 34 2
Width: 690
VWidth: 2982
Flags: W
VStem: 446 409<1164 1551>
Fore
504 1164 m 1
 446 1164 l 1
 497 1551 l 1
 615 1551 l 1
 504 1164 l 1
743 1164 m 1
 683 1164 l 1
 737 1551 l 1
 855 1551 l 1
 743 1164 l 1
EndSplineSet
EndChar
StartChar: numbersign
Encoding: 3 35 3
Width: 1066
VWidth: 2982
Flags: W
HStem: 0 21G<105 206.028 521 620.114> 463 90<116 314 444 732 859 1063> 940 90<320 528 660 942 1079 1269>
Fore
611 0 m 1
 521 0 l 1
 732 463 l 1
 406 463 l 1
 197 0 l 1
 105 0 l 1
 314 463 l 1
 98 463 l 1
 116 553 l 1
 354 553 l 1
 528 940 l 1
 302 940 l 1
 320 1030 l 1
 568 1030 l 1
 777 1493 l 1
 869 1493 l 1
 660 1030 l 1
 985 1030 l 1
 1196 1493 l 1
 1288 1493 l 1
 1079 1030 l 1
 1288 1030 l 1
 1269 940 l 1
 1036 940 l 1
 859 553 l 1
 1081 553 l 1
 1063 463 l 1
 822 463 l 1
 611 0 l 1
444 553 m 1
 767 553 l 1
 942 940 l 1
 618 940 l 1
 444 553 l 1
EndSplineSet
EndChar
StartChar: dollar
Encoding: 4 36 4
Width: 1179
VWidth: 2982
Flags: W
HStem: 1198 21G<1128 1200.57>
VStem: 208 91<199.179 414.391> 477 91<993.627 1242.72> 1063 97<326.112 616.705> 1137 89<1215.57 1340.66>
Fore
609 -150 m 1xf0
 517 -150 l 1
 544 -27 l 1
 361 -11 208 109 208 363 c 0
 208 378 208 396 211 414 c 1
 302 427 l 1
 299 412 299 396 299 383 c 0
 299 175 419 81 564 64 c 1
 720 806 l 1
 593 869 477 940 477 1088 c 0
 477 1265 634 1480 869 1502 c 1
 897 1636 l 1
 987 1636 l 1
 959 1502 l 1
 1092 1484 1207 1390 1226 1226 c 1
 1137 1198 l 1xe8
 1119 1325 1038 1395 942 1412 c 1
 826 869 l 1
 985 795 1160 716 1160 515 c 0
 1160 278 944 17 638 -15 c 1
 609 -150 l 1xf0
654 64 m 1
 904 101 1063 312 1063 485 c 0xf0
 1063 634 938 701 801 763 c 1
 654 64 l 1
848 1403 m 1
 660 1379 568 1209 568 1104 c 0
 568 1008 645 951 741 902 c 1
 848 1403 l 1
EndSplineSet
EndChar
StartChar: percent
Encoding: 5 37 5
Width: 1568
VWidth: 2982
Flags: W
HStem: -17 91<1053.91 1306.64> 474 92<1121.37 1372.89> 920 92<513.164 766.003> 1412 92<581.185 832.211>
VStem: 374 92<1057.5 1296.22> 880 92<1124.78 1363.77> 914 92<121.531 363.171> 1421 92<186.026 428.188>
Fore
914 215 m 0xfb
 914 385 1079 566 1276 566 c 0
 1417 566 1513 468 1513 336 c 0
 1513 166 1345 -17 1151 -17 c 0
 1010 -17 914 83 914 215 c 0xfb
1256 474 m 0
 1132 474 1006 363 1006 235 c 0
 1006 143 1070 74 1171 74 c 0
 1314 74 1421 205 1421 316 c 0
 1421 406 1356 474 1256 474 c 0
374 1149 m 0
 374 1327 544 1504 734 1504 c 0
 875 1504 972 1403 972 1271 c 0xfd
 972 1097 806 920 611 920 c 0
 472 920 374 1019 374 1149 c 0
714 1412 m 0
 589 1412 466 1298 466 1168 c 0
 466 1079 532 1012 628 1012 c 0
 750 1012 880 1117 880 1254 c 0
 880 1345 812 1412 714 1412 c 0
1576 1493 m 1
 1688 1493 l 1
 312 0 l 1
 199 0 l 1
 1576 1493 l 1
EndSplineSet
EndChar
StartChar: ampersand
Encoding: 6 38 6
Width: 1354
VWidth: 2982
Flags: W
HStem: -15 87<508.997 911.874> 1424 89<878.089 1157.65>
VStem: 226 90<261.409 640.104> 673 94<1106.94 1315.82> 1209 92<1201.75 1374.53>
Fore
1027 1424 m 0
 884 1424 767 1323 767 1175 c 0
 767 1135 775 1090 797 1041 c 2
 1164 307 l 1
 1218 376 1251 450 1269 534 c 1
 1363 534 l 1
 1341 421 1283 316 1204 231 c 1
 1318 0 l 1
 1209 0 l 1
 1128 158 l 1
 1006 51 844 -15 683 -15 c 0
 412 -15 226 175 226 425 c 0
 226 662 396 938 692 1047 c 1
 681 1083 673 1121 673 1155 c 0
 673 1341 828 1513 1047 1513 c 0
 1186 1513 1301 1435 1301 1276 c 0
 1301 1249 1298 1222 1292 1191 c 1
 1202 1191 l 1
 1207 1215 1209 1235 1209 1256 c 0
 1209 1377 1119 1424 1027 1424 c 0
720 967 m 1
 544 906 316 712 316 440 c 0
 316 231 472 72 701 72 c 0
 844 72 987 134 1092 231 c 1
 720 967 l 1
EndSplineSet
EndChar
StartChar: quoteright
Encoding: 300 8217 7
Width: 523
VWidth: 2982
Flags: W
VStem: 423 228<1317.04 1471.88>
Fore
423 1386 m 0
 423 1455 495 1506 551 1506 c 0
 600 1506 651 1476 651 1403 c 0
 651 1339 598 1191 430 1077 c 1
 354 1077 l 1
 438 1135 517 1238 530 1307 c 1
 524 1305 515 1305 508 1305 c 0
 459 1305 423 1341 423 1386 c 0
EndSplineSet
EndChar
StartChar: parenleft
Encoding: 8 40 8
Width: 487
VWidth: 2982
Flags: W
VStem: 224 92<-45.7135 631.92>
Fore
224 280 m 0
 224 850 474 1290 687 1574 c 1
 754 1574 l 1
 524 1222 316 756 316 213 c 0
 316 54 333 -107 369 -269 c 1
 299 -269 l 1
 250 -85 224 98 224 280 c 0
EndSplineSet
EndChar
StartChar: parenright
Encoding: 9 41 9
Width: 457
VWidth: 2982
Flags: W
VStem: 457 96<697.564 1437.71>
Fore
4 -269 m 1
 226 78 457 562 457 1115 c 0
 457 1269 438 1421 403 1574 c 1
 472 1574 l 1
 526 1403 553 1231 553 1057 c 0
 553 894 542 400 74 -269 c 1
 4 -269 l 1
EndSplineSet
EndChar
StartChar: asterisk
Encoding: 10 42 10
Width: 910
VWidth: 2982
Flags: W
HStem: 1224 542<784 850>
VStem: 491 579<1525 1525>
Fore
784 1766 m 1
 880 1766 l 1
 835 1558 l 1
 1068 1612 l 1
 1070 1525 l 1
 844 1476 l 1
 936 1273 l 1
 850 1224 l 1
 759 1424 l 1
 581 1224 l 1
 519 1273 l 1
 696 1476 l 1
 491 1525 l 1
 530 1612 l 1
 741 1558 l 1
 784 1766 l 1
EndSplineSet
EndChar
StartChar: plus
Encoding: 11 43 11
Width: 1036
VWidth: 2982
Flags: W
HStem: 701 89<291 624 732 1066>
VStem: 271 812<701 790 701 790>
Fore
638 349 m 1
 549 349 l 1
 624 701 l 1
 271 701 l 1
 291 790 l 1
 643 790 l 1
 718 1144 l 1
 808 1144 l 1
 732 790 l 1
 1083 790 l 1
 1066 701 l 1
 714 701 l 1
 638 349 l 1
EndSplineSet
EndChar
StartChar: comma
Encoding: 12 44 12
Width: 523
VWidth: 2982
Flags: W
HStem: -15 167<198.177 282>
VStem: 179 190<2.13867 131.986>
Fore
179 54 m 0
 179 111 237 152 282 152 c 0
 325 152 369 126 369 62 c 0
 369 -101 161 -242 161 -242 c 1
 116 -242 l 1
 186 -195 280 -74 295 0 c 1
 278 -11 267 -15 248 -15 c 0
 208 -15 179 15 179 54 c 0
EndSplineSet
EndChar
StartChar: hyphen
Encoding: 13 45 13
Width: 856
VWidth: 2982
Flags: W
HStem: 553 90<260 855>
VStem: 239 634<553 643>
Fore
873 643 m 5
 855 553 l 5
 239 553 l 5
 260 643 l 5
 873 643 l 5
EndSplineSet
EndChar
StartChar: period
Encoding: 14 46 14
Width: 498
VWidth: 2982
Flags: W
HStem: -15 167<198.177 332>
VStem: 179 173<6.04936 131.986>
Fore
179 54 m 0
 179 111 237 152 282 152 c 0
 322 152 352 124 352 85 c 0
 352 27 293 -15 248 -15 c 0
 208 -15 179 15 179 54 c 0
EndSplineSet
EndChar
StartChar: slash
Encoding: 15 47 15
Width: 1168
VWidth: 2982
Flags: W
HStem: 0 21G<0 127.446>
Fore
1377 1493 m 1
 1486 1493 l 1
 109 0 l 1
 0 0 l 1
 1377 1493 l 1
EndSplineSet
EndChar
StartChar: zero
Encoding: 16 48 16
Width: 1192
VWidth: 2982
Flags: W
HStem: -15 89<484.485 757.713> 1417 89<750.349 1026.51>
VStem: 233 92<275.749 816.664> 1186 92<681.489 1216.07>
Fore
1278 985 m 0
 1278 502 940 -15 593 -15 c 0
 363 -15 233 213 233 508 c 0
 233 969 555 1506 918 1506 c 0
 1149 1506 1278 1278 1278 985 c 0
897 1417 m 0
 640 1417 325 983 325 526 c 0
 325 255 448 74 613 74 c 0
 871 74 1186 506 1186 965 c 0
 1186 1238 1063 1417 897 1417 c 0
EndSplineSet
EndChar
StartChar: one
Encoding: 17 49 17
Width: 1192
VWidth: 2982
Flags: W
HStem: 0 21G<553 647.233>
VStem: 553 406<0 1493>
Fore
553 0 m 1
 833 1332 l 1
 651 1235 l 1
 622 1314 l 1
 959 1493 l 1
 643 0 l 1
 553 0 l 1
EndSplineSet
EndChar
StartChar: two
Encoding: 18 50 18
Width: 1192
VWidth: 2982
Flags: W
HStem: 0 90<211 1074> 1417 89<732.848 1050.59>
VStem: 1171 89<1000.65 1293.35>
Fore
1260 1141 m 0
 1260 577 361 528 211 90 c 1
 1092 90 l 1
 1074 0 l 1
 101 0 l 1
 109 43 l 2
 220 553 1077 628 1162 1032 c 0
 1168 1063 1171 1094 1171 1124 c 0
 1171 1296 1059 1417 902 1417 c 0
 714 1417 519 1251 472 1032 c 1
 383 1032 l 1
 438 1292 675 1506 918 1506 c 0
 1124 1506 1260 1350 1260 1141 c 0
EndSplineSet
EndChar
StartChar: three
Encoding: 19 51 19
Width: 1192
VWidth: 2982
Flags: W
HStem: -15 89<452.919 794.548> 814 90<792 933.415> 1417 89<748.336 1038.73>
VStem: 222 94<209.12 424.311> 1074 88<350.778 679.716> 1119 92<1057.08 1338.42>
Fore
1162 542 m 0xf8
 1162 265 895 -15 593 -15 c 0
 374 -15 222 139 222 346 c 0
 222 378 226 412 233 446 c 1
 325 446 l 1
 320 419 316 393 316 369 c 0
 316 201 438 74 615 74 c 0
 842 74 1074 286 1074 519 c 0xf8
 1074 687 949 814 773 814 c 1
 792 904 l 1
 965 904 1119 1038 1119 1209 c 0
 1119 1327 1030 1417 902 1417 c 0
 752 1417 607 1298 575 1153 c 1
 485 1153 l 1
 528 1350 724 1506 920 1506 c 0
 1092 1506 1211 1388 1211 1226 c 0xf4
 1211 1144 1173 965 972 861 c 1
 1088 803 1162 685 1162 542 c 0xf8
EndSplineSet
EndChar
StartChar: four
Encoding: 20 52 20
Width: 1192
VWidth: 2982
Flags: W
HStem: 0 21G<844 937.388> 278 89<258 904 1012 1128>
Fore
922 367 m 1
 1108 1243 l 1
 258 367 l 1
 922 367 l 1
933 0 m 1
 844 0 l 1
 904 278 l 1
 58 278 l 1
 1256 1511 l 1
 1012 367 l 1
 1177 367 l 1
 1128 278 l 1
 994 278 l 1
 933 0 l 1
EndSplineSet
EndChar
StartChar: five
Encoding: 21 53 21
Width: 1192
VWidth: 2982
Flags: W
HStem: -17 89<442.81 787.53> 978 85<623.655 967.428> 1403 90<579 1215>
VStem: 190 92<237.391 403 403 440> 1128 92<425.338 811.625>
Fore
609 72 m 0
 867 72 1128 338 1128 628 c 0
 1128 831 994 978 801 978 c 0
 649 978 493 884 391 745 c 1
 293 745 l 1
 515 1493 l 1
 1262 1493 l 1
 1215 1403 l 1
 579 1403 l 1
 432 904 l 1
 544 1003 683 1063 820 1063 c 0
 1061 1063 1220 882 1220 643 c 0
 1220 318 925 -17 591 -17 c 0
 349 -17 190 166 190 403 c 0
 190 416 192 427 192 440 c 1
 282 440 l 1
 282 421 l 0
 282 222 416 72 609 72 c 0
EndSplineSet
EndChar
StartChar: six
Encoding: 22 54 22
Width: 1192
VWidth: 2982
Flags: W
HStem: 0 87<446.817 791.411> 994 87<700.199 971.78>
VStem: 195 91<251.823 636.593> 1132 92<447.354 828.333>
Fore
613 87 m 0
 871 87 1132 349 1132 645 c 0
 1132 846 998 994 806 994 c 0
 549 994 286 728 286 436 c 0
 286 235 421 87 613 87 c 0
195 419 m 0
 195 777 500 1003 940 1504 c 1
 1047 1504 l 1
 643 1047 l 1
 701 1068 763 1081 824 1081 c 0
 1066 1081 1224 900 1224 660 c 0
 1224 336 931 0 593 0 c 0
 354 0 195 179 195 419 c 0
EndSplineSet
EndChar
StartChar: seven
Encoding: 23 55 23
Width: 1192
VWidth: 2982
Flags: W
HStem: 0 21G<396 508.222> 1403 90<481 1325>
Fore
481 1493 m 1
 1482 1493 l 1
 495 0 l 1
 396 0 l 1
 1325 1403 l 1
 432 1403 l 1
 481 1493 l 1
EndSplineSet
EndChar
StartChar: eight
Encoding: 24 56 24
Width: 1192
VWidth: 2982
Flags: W
HStem: -15 89<451.919 785.843> 814 90<656.638 930.869> 1417 89<744.278 1034.63>
VStem: 222 92<208.857 540.849> 481 92<980.714 1253.7> 1070 92<350.768 681.127> 1115 92<1068.49 1339.66>
Fore
481 1092 m 0xfc
 481 1298 685 1506 918 1506 c 0
 1085 1506 1207 1388 1207 1231 c 0xfa
 1207 1085 1102 936 967 867 c 1
 1088 808 1162 687 1162 542 c 0
 1162 267 897 -15 593 -15 c 0
 374 -15 222 139 222 346 c 0
 222 524 338 761 596 867 c 1
 524 914 481 996 481 1092 c 0xfc
771 814 m 0
 549 814 314 609 314 367 c 0
 314 201 436 74 613 74 c 0
 833 74 1070 282 1070 521 c 0xfc
 1070 687 947 814 771 814 c 0
897 1417 m 0
 743 1417 573 1276 573 1110 c 0
 573 994 660 904 790 904 c 0
 947 904 1115 1047 1115 1211 c 0xfa
 1115 1327 1027 1417 897 1417 c 0
EndSplineSet
EndChar
StartChar: nine
Encoding: 25 57 25
Width: 1192
VWidth: 2982
Flags: W
HStem: 0 21G<459 788> 423 87<537.01 784.424> 1417 87<716.929 1061.43>
VStem: 284 92<675.667 1056.65> 1222 92<861.656 1251.75>
Fore
895 1417 m 0
 638 1417 376 1155 376 859 c 0
 376 658 510 510 703 510 c 0
 961 510 1222 777 1222 1068 c 0
 1222 1269 1088 1417 895 1417 c 0
1314 1085 m 0
 1314 728 1010 502 566 0 c 1
 459 0 l 1
 865 457 l 1
 806 436 743 423 685 423 c 0
 444 423 284 604 284 844 c 0
 284 1168 579 1504 914 1504 c 0
 1155 1504 1314 1323 1314 1085 c 0
EndSplineSet
EndChar
StartChar: colon
Encoding: 26 58 26
Width: 498
VWidth: 2982
Flags: W
HStem: -15 167<198.177 332> 867 165<386.23 518.25>
VStem: 179 173<6.04936 131.986> 367 171<888.008 1011.89>
Fore
179 54 m 0
 179 111 237 152 282 152 c 0
 322 152 352 124 352 85 c 0
 352 27 293 -15 248 -15 c 0
 208 -15 179 15 179 54 c 0
367 933 m 0
 367 991 425 1032 470 1032 c 0
 508 1032 538 1003 538 967 c 0
 538 908 479 867 434 867 c 0
 393 867 367 895 367 933 c 0
EndSplineSet
EndChar
StartChar: semicolon
Encoding: 27 59 27
Width: 498
VWidth: 2982
Flags: W
HStem: -15 167<198.177 282> 867 165<386.23 518.25>
VStem: 179 190<2.13867 131.986> 367 171<888.008 1011.89>
Fore
179 54 m 0xe0
 179 111 237 152 282 152 c 0
 325 152 369 126 369 62 c 0
 369 -101 161 -242 161 -242 c 1
 116 -242 l 1
 186 -195 280 -74 295 0 c 1
 278 -11 267 -15 248 -15 c 0
 208 -15 179 15 179 54 c 0xe0
367 933 m 0xd0
 367 991 425 1032 470 1032 c 0
 508 1032 538 1003 538 967 c 0
 538 908 479 867 434 867 c 0
 393 867 367 895 367 933 c 0xd0
EndSplineSet
EndChar
StartChar: less
Encoding: 28 60 28
Width: 1183
VWidth: 2982
Flags: W
HStem: 0 1014<1126 1168>
Fore
1126 0 m 1
 951 0 l 1
 231 508 l 1
 1168 1014 l 1
 1341 1014 l 1
 403 508 l 1
 1126 0 l 1
EndSplineSet
EndChar
StartChar: equal
Encoding: 29 61 29
Width: 1036
VWidth: 2982
Flags: W
HStem: 432 89<233 1008> 671 90<284 1059>
VStem: 215 864<432 761>
Fore
1079 761 m 1
 1059 671 l 1
 265 671 l 1
 284 761 l 1
 1079 761 l 1
1027 521 m 1
 1008 432 l 1
 215 432 l 1
 233 521 l 1
 1027 521 l 1
EndSplineSet
EndChar
StartChar: greater
Encoding: 30 62 30
Width: 1203
VWidth: 2982
Flags: W
HStem: 0 1014<295 338>
Fore
295 0 m 1
 124 0 l 1
 1061 508 l 1
 338 1014 l 1
 510 1014 l 1
 1233 508 l 1
 295 0 l 1
EndSplineSet
EndChar
StartChar: question
Encoding: 31 63 31
Width: 1036
VWidth: 2982
Flags: W
HStem: -15 167<438.13 568.9> 1417 89<667.091 987.423>
VStem: 419 172<7.28543 131.986> 1074 92<1094.67 1334.04>
Fore
419 54 m 0
 419 111 477 152 521 152 c 0
 562 152 591 124 591 85 c 0
 591 38 540 -15 485 -15 c 0
 446 -15 419 15 419 54 c 0
602 307 m 1
 513 307 l 1
 544 457 l 2
 620 806 1023 929 1068 1130 c 0
 1072 1153 1074 1175 1074 1198 c 0
 1074 1330 980 1417 842 1417 c 0
 651 1417 481 1269 453 1130 c 1
 363 1130 l 1
 406 1327 626 1506 859 1506 c 0
 1045 1506 1166 1390 1166 1215 c 0
 1166 869 709 799 634 457 c 2
 602 307 l 1
EndSplineSet
EndChar
StartChar: at
Encoding: 32 64 32
Width: 2029
VWidth: 2982
Flags: W
HStem: -495 85<705.337 1184.57> -20 92<704.199 1019.41 1520.03 1720.54> 938 89<1099.47 1422.14> 1412 92<1071.76 1551.88>
VStem: 203 94<20.8941 567.212> 532 100<143.269 465.767> 1372 92<128.032 275> 1954 92<453.459 989.857>
Fore
2046 745 m 0
 2046 416 1865 -20 1591 -20 c 0
 1459 -20 1372 96 1372 258 c 2
 1372 275 l 1
 1220 105 1008 -17 820 -17 c 0
 638 -17 532 96 532 267 c 0
 532 607 947 1027 1296 1027 c 0
 1448 1027 1547 947 1574 822 c 1
 1664 1014 l 1
 1760 1014 l 1
 1533 517 l 2
 1518 485 1464 385 1464 275 c 0
 1464 145 1538 72 1612 72 c 0
 1790 72 1954 419 1954 728 c 0
 1954 1124 1690 1412 1318 1412 c 0
 803 1412 297 865 297 284 c 0
 297 -116 557 -410 931 -410 c 0
 1070 -410 1211 -367 1343 -295 c 1
 1374 -369 l 1
 1229 -450 1070 -495 914 -495 c 0
 487 -495 203 -168 203 271 c 0
 203 884 743 1504 1337 1504 c 0
 1758 1504 2046 1177 2046 745 c 0
842 74 m 0
 1121 74 1495 425 1495 724 c 0
 1495 850 1419 938 1283 938 c 0
 998 938 632 579 632 284 c 0
 632 158 705 74 842 74 c 0
EndSplineSet
EndChar
StartChar: A
Encoding: 33 65 33
Width: 1322
VWidth: 2982
Flags: W
HStem: 0 21G<36 144.484 1190.03 1290> 463 90<481 1083>
Fore
481 553 m 1
 1083 553 l 1
 938 1278 l 1
 481 553 l 1
1102 463 m 1
 421 463 l 1
 132 0 l 1
 36 0 l 1
 983 1511 l 1
 1290 0 l 1
 1194 0 l 1
 1102 463 l 1
EndSplineSet
EndChar
StartChar: B
Encoding: 34 66 34
Width: 1293
VWidth: 2982
Flags: W
HStem: 0 90<275 903.445> 786 89<444 1024.68> 1403 90<555 1124.22>
VStem: 1184 92<344.35 652.263> 1218 91<1047.16 1311.74>
Fore
712 90 m 2xf0
 947 90 1184 282 1184 504 c 0
 1184 662 1055 786 859 786 c 2
 423 786 l 1
 275 90 l 1
 712 90 l 2xf0
1218 1186 m 0xe8
 1218 1307 1119 1403 974 1403 c 2
 555 1403 l 1
 444 875 l 1
 859 875 l 2
 1045 882 1218 1021 1218 1186 c 0xe8
1276 521 m 0xf0
 1276 265 1008 0 692 0 c 2
 168 0 l 1
 483 1493 l 1
 998 1493 l 2
 1182 1493 1309 1367 1309 1204 c 0xe8
 1309 1059 1211 918 1061 839 c 1
 1194 784 1276 665 1276 521 c 0xf0
EndSplineSet
EndChar
StartChar: C
Encoding: 35 67 35
Width: 1608
VWidth: 2982
Flags: W
HStem: -11 85<673.857 1141.53> 1417 94<951.421 1408.57>
VStem: 265 91<387.088 841.617>
Fore
1182 1417 m 0
 759 1417 356 1027 356 602 c 0
 356 302 575 74 895 74 c 0
 1117 74 1335 181 1491 346 c 1
 1553 297 l 1
 1374 109 1128 -11 878 -11 c 0
 515 -11 265 246 265 591 c 0
 265 1055 709 1511 1202 1511 c 0
 1453 1511 1647 1388 1743 1200 c 1
 1661 1147 l 1
 1574 1309 1403 1417 1182 1417 c 0
EndSplineSet
EndChar
StartChar: D
Encoding: 36 68 36
Width: 1346
VWidth: 2982
Flags: W
HStem: 0 90<275 737.425> 1403 90<555 993.27>
VStem: 1312 91<650.962 1101.59>
Fore
487 90 m 2
 906 90 1312 461 1312 884 c 0
 1312 1186 1090 1403 767 1403 c 2
 555 1403 l 1
 275 90 l 1
 487 90 l 2
1403 904 m 0
 1403 440 963 0 468 0 c 2
 168 0 l 1
 483 1493 l 1
 786 1493 l 2
 1151 1493 1403 1245 1403 904 c 0
EndSplineSet
EndChar
StartChar: E
Encoding: 37 69 37
Width: 1094
VWidth: 2982
Flags: W
HStem: 0 90<275 1032> 822 90<450 1149> 1403 90<555 1335>
Fore
1166 912 m 1
 1149 822 l 1
 432 822 l 1
 275 90 l 1
 1053 90 l 1
 1032 0 l 1
 168 0 l 1
 483 1493 l 1
 1352 1493 l 1
 1335 1403 l 1
 555 1403 l 1
 450 912 l 1
 1166 912 l 1
EndSplineSet
EndChar
StartChar: F
Encoding: 38 70 38
Width: 1094
VWidth: 2982
Flags: W
HStem: 0 21G<168 262.234> 822 90<450 1149> 1403 90<555 1335>
Fore
1166 912 m 1
 1149 822 l 1
 432 822 l 1
 258 0 l 1
 168 0 l 1
 483 1493 l 1
 1352 1493 l 1
 1335 1403 l 1
 555 1403 l 1
 450 912 l 1
 1166 912 l 1
EndSplineSet
EndChar
StartChar: G
Encoding: 39 71 39
Width: 1758
VWidth: 2982
Flags: W
HStem: -15 89<673.47 1135.15> 701 89<1047 1694> 1417 89<941.713 1406.94>
VStem: 265 91<384.582 840.891>
CounterMasks: 1 e0
Fore
265 585 m 0
 265 1061 718 1506 1200 1506 c 0
 1448 1506 1645 1386 1743 1200 c 1
 1661 1147 l 1
 1574 1309 1403 1417 1182 1417 c 0
 759 1417 356 1027 356 602 c 0
 356 302 575 74 895 74 c 0
 1251 74 1600 352 1694 701 c 1
 1030 701 l 1
 1047 790 l 1
 1807 790 l 1
 1798 745 l 2
 1708 325 1296 -15 878 -15 c 0
 513 -15 265 242 265 585 c 0
EndSplineSet
EndChar
StartChar: H
Encoding: 40 72 40
Width: 1393
VWidth: 2982
Flags: W
HStem: 0 21G<168 262.234 1139 1233.26> 822 90<450 1314>
Fore
1457 1493 m 1
 1547 1493 l 1
 1229 0 l 1
 1139 0 l 1
 1314 822 l 1
 432 822 l 1
 258 0 l 1
 168 0 l 1
 483 1493 l 1
 573 1493 l 1
 450 912 l 1
 1335 912 l 1
 1457 1493 l 1
EndSplineSet
EndChar
StartChar: I
Encoding: 41 73 41
Width: 422
VWidth: 2982
Flags: W
HStem: 0 21G<168 262.22>
VStem: 168 405<0 1493>
Fore
258 0 m 1
 168 0 l 1
 483 1493 l 1
 573 1493 l 1
 258 0 l 1
EndSplineSet
EndChar
StartChar: J
Encoding: 42 74 42
Width: 1021
VWidth: 2982
Flags: W
HStem: -15 89<377.607 658.329>
VStem: 195 91<166.498 367.601>
Fore
1090 1493 m 1
 1173 1493 l 1
 940 387 l 2
 893 168 692 -15 485 -15 c 0
 309 -15 195 119 195 295 c 0
 195 325 199 356 205 387 c 1
 295 387 l 1
 291 363 286 338 286 314 c 0
 286 175 378 74 508 74 c 0
 660 74 818 213 855 387 c 2
 1090 1493 l 1
EndSplineSet
EndChar
StartChar: K
Encoding: 43 75 43
Width: 1149
VWidth: 2982
Flags: W
HStem: 0 21G<168 262.233 1013.59 1139>
Fore
483 1493 m 1
 573 1493 l 1
 438 859 l 1
 1269 1493 l 1
 1403 1493 l 1
 681 942 l 1
 1139 0 l 1
 1023 0 l 1
 607 884 l 1
 414 737 l 1
 258 0 l 1
 168 0 l 1
 483 1493 l 1
EndSplineSet
EndChar
StartChar: L
Encoding: 44 76 44
Width: 1094
VWidth: 2982
Flags: W
HStem: 0 90<275 1036>
VStem: 168 887<0 90>
Fore
1036 0 m 1
 168 0 l 1
 483 1493 l 1
 573 1493 l 1
 275 90 l 1
 1055 90 l 1
 1036 0 l 1
EndSplineSet
EndChar
StartChar: M
Encoding: 45 77 45
Width: 1732
VWidth: 2982
Flags: W
HStem: 0 21G<36 132.05 1605 1699.56> 1180 20G<1628.15 1640.4>
VStem: 1605 94<0 204.8> 1641 100<1200 1511>
Fore
124 0 m 1xd0
 36 0 l 1
 643 1511 l 1
 912 215 l 1
 1741 1511 l 1xd0
 1699 0 l 1
 1605 0 l 1xe0
 1641 1200 l 1
 859 -17 l 1
 607 1200 l 1
 124 0 l 1xd0
EndSplineSet
EndChar
StartChar: N
Encoding: 46 78 46
Width: 1678
VWidth: 2982
Flags: W
HStem: 0 21G<168 262.211>
Fore
168 0 m 1
 487 1513 l 1
 1466 199 l 1
 1741 1493 l 1
 1831 1493 l 1
 1508 -20 l 1
 530 1292 l 1
 258 0 l 1
 168 0 l 1
EndSplineSet
EndChar
StartChar: O
Encoding: 47 79 47
Width: 1758
VWidth: 2982
Flags: W
HStem: -15 89<673.47 1135.29> 1417 89<941.713 1404.79>
VStem: 265 91<384.582 840.891> 1724 91<649.325 1105.75>
Fore
265 585 m 0
 265 1061 718 1506 1200 1506 c 0
 1565 1506 1815 1249 1815 904 c 0
 1815 440 1370 -15 878 -15 c 0
 513 -15 265 242 265 585 c 0
1182 1417 m 0
 759 1417 356 1027 356 602 c 0
 356 302 575 74 895 74 c 0
 1312 74 1724 457 1724 886 c 0
 1724 1191 1504 1417 1182 1417 c 0
EndSplineSet
EndChar
StartChar: P
Encoding: 48 80 48
Width: 1203
VWidth: 2982
Flags: W
HStem: 0 21G<168 262.223> 701 94<425 1026.16> 1406 89<555 1135.63>
VStem: 1231 94<999.253 1309.81>
Fore
1325 1186 m 0
 1325 947 1106 701 850 701 c 2
 406 701 l 1
 258 0 l 1
 168 0 l 1
 485 1495 l 1
 1016 1495 l 2
 1202 1495 1325 1361 1325 1186 c 0
871 795 m 2
 1050 795 1231 967 1231 1166 c 0
 1231 1303 1135 1406 996 1406 c 2
 555 1406 l 1
 425 795 l 1
 871 795 l 2
EndSplineSet
EndChar
StartChar: Q
Encoding: 49 81 49
Width: 1758
VWidth: 2982
Flags: W
HStem: -15 89<673.47 1139.72> 1417 89<941.713 1404.79>
VStem: 265 91<384.582 840.891> 1724 91<736.106 1105.75>
Fore
1182 1417 m 0
 759 1417 356 1027 356 602 c 0
 356 302 575 74 895 74 c 0
 1072 74 1245 143 1388 252 c 1
 1231 508 l 1
 1345 508 l 1
 1464 320 l 1
 1610 461 1724 660 1724 886 c 0
 1724 1191 1504 1417 1182 1417 c 0
1815 904 m 0
 1815 833 1802 521 1506 248 c 1
 1664 0 l 1
 1542 0 l 1
 1431 181 l 1
 1269 60 1074 -15 878 -15 c 0
 513 -15 265 242 265 585 c 0
 265 1061 718 1506 1200 1506 c 0
 1565 1506 1815 1249 1815 904 c 0
EndSplineSet
EndChar
StartChar: R
Encoding: 50 82 50
Width: 1203
VWidth: 2982
Flags: W
HStem: 0 21G<168 262.223 1056.24 1164> 701 89<425 826> 1403 90<555 1135.63>
VStem: 1231 94<997.647 1307>
Fore
1325 1182 m 0
 1325 976 1160 752 927 707 c 1
 1164 0 l 1
 1063 0 l 1
 826 701 l 1
 406 701 l 1
 258 0 l 1
 168 0 l 1
 483 1493 l 1
 1016 1493 l 2
 1202 1493 1325 1359 1325 1182 c 0
869 790 m 2
 1050 790 1231 965 1231 1162 c 0
 1231 1301 1135 1403 996 1403 c 2
 555 1403 l 1
 425 790 l 1
 869 790 l 2
EndSplineSet
EndChar
StartChar: S
Encoding: 51 83 51
Width: 1177
VWidth: 2982
Flags: W
HStem: -17 92<431.184 799.202> 1200 21G<1126.5 1197.76> 1417 94<732.475 1038.62>
VStem: 211 92<202.859 399.444 393.477 405.412 405.412 421> 478 93<1009.92 1256.57> 1065 93<327.945 621.848> 1135 91<1218.57 1344.15>
Fore
478 1095 m 0xfc
 478 1284 656 1511 910 1511 c 0
 1062 1511 1203 1414 1226 1229 c 1
 1135 1200 l 1xfa
 1118 1350 1008 1417 890 1417 c 0
 695 1417 571 1245 571 1116 c 0
 571 842 1158 885 1158 515 c 0
 1158 237 885 -17 581 -17 c 0
 385 -17 211 98 211 366 c 0
 211 384 211 402 213 421 c 1
 305 432 l 1
 304 417 303 402 303 388 c 0
 303 165 440 75 601 75 c 0
 850 75 1065 280 1065 495 c 0
 1065 816 478 766 478 1095 c 0xfc
EndSplineSet
EndChar
StartChar: T
Encoding: 52 84 52
Width: 982
VWidth: 2982
Flags: W
HStem: 0 21G<448 542.234> 1403 90<376 745 835 1224>
VStem: 359 884<1403 1493 1403 1493>
Fore
1243 1493 m 1
 1224 1403 l 1
 835 1403 l 1
 538 0 l 1
 448 0 l 1
 745 1403 l 1
 359 1403 l 1
 376 1493 l 1
 1243 1493 l 1
EndSplineSet
EndChar
StartChar: U
Encoding: 53 85 53
Width: 1393
VWidth: 2982
Flags: W
HStem: -15 89<543.917 902.262>
VStem: 273 92<261.73 519.173>
Fore
483 1493 m 1
 573 1493 l 1
 378 566 l 2
 369 526 365 487 365 453 c 0
 365 231 513 74 716 74 c 0
 955 74 1202 289 1260 566 c 2
 1457 1493 l 1
 1547 1493 l 1
 1350 566 l 2
 1283 248 991 -15 696 -15 c 0
 444 -15 273 177 273 432 c 0
 273 477 280 521 289 566 c 2
 483 1493 l 1
EndSplineSet
EndChar
StartChar: V
Encoding: 54 86 54
Width: 1286
VWidth: 2982
Flags: W
Fore
1473 1493 m 1
 1572 1493 l 1
 649 -17 l 1
 354 1493 l 1
 448 1493 l 1
 698 224 l 1
 1473 1493 l 1
EndSplineSet
EndChar
StartChar: W
Encoding: 55 87 55
Width: 1965
VWidth: 2982
Flags: W
Fore
340 1493 m 1
 430 1493 l 1
 607 258 l 1
 1303 1511 l 1
 1466 258 l 1
 2164 1493 l 1
 2260 1493 l 1
 1408 -17 l 1
 1247 1229 l 1
 555 -17 l 1
 340 1493 l 1
EndSplineSet
EndChar
StartChar: X
Encoding: 56 88 56
Width: 964
VWidth: 2982
Flags: W
HStem: 0 21G<25 140.411 836.099 942>
Fore
401 1493 m 1
 502 1493 l 1
 675 904 l 1
 1100 1493 l 1
 1200 1493 l 1
 705 806 l 1
 942 0 l 1
 842 0 l 1
 634 705 l 1
 126 0 l 1
 25 0 l 1
 604 806 l 1
 401 1493 l 1
EndSplineSet
EndChar
StartChar: Y
Encoding: 57 89 57
Width: 1228
VWidth: 2982
Flags: W
HStem: 0 21G<571 664.248>
Fore
354 1493 m 1
 457 1493 l 1
 773 741 l 1
 1406 1493 l 1
 1511 1493 l 1
 797 645 l 1
 660 0 l 1
 571 0 l 1
 707 645 l 1
 354 1493 l 1
EndSplineSet
EndChar
StartChar: Z
Encoding: 58 90 58
Width: 1185
VWidth: 2982
Flags: W
HStem: 0 90<222 1121> 1403 90<453 1262>
Fore
453 1493 m 1
 1448 1493 l 1
 222 90 l 1
 1171 90 l 1
 1121 0 l 1
 36 0 l 1
 1262 1403 l 1
 403 1403 l 1
 453 1493 l 1
EndSplineSet
EndChar
StartChar: bracketleft
Encoding: 59 91 59
Width: 433
VWidth: 2982
Flags: W
HStem: -314 90<208 369> 1493 90<573 752>
VStem: 101 672<-314 1583>
Fore
573 1493 m 1
 208 -224 l 1
 387 -224 l 1
 369 -314 l 1
 101 -314 l 1
 504 1583 l 1
 773 1583 l 1
 752 1493 l 1
 573 1493 l 1
EndSplineSet
EndChar
StartChar: backslash
Encoding: 60 92 60
Width: 1168
VWidth: 2982
Flags: W
HStem: 0 21G<1049.07 1171>
VStem: 318 853<0 1493>
Fore
318 1493 m 1
 427 1493 l 1
 1171 0 l 1
 1059 0 l 1
 318 1493 l 1
EndSplineSet
EndChar
StartChar: bracketright
Encoding: 61 93 61
Width: 433
VWidth: 2982
Flags: W
HStem: -314 90<-47 132> 1493 90<336 497>
VStem: -67 671<-314 1583>
Fore
497 1493 m 1
 318 1493 l 1
 336 1583 l 1
 604 1583 l 1
 201 -314 l 1
 -67 -314 l 1
 -47 -224 l 1
 132 -224 l 1
 497 1493 l 1
EndSplineSet
EndChar
StartChar: asciicircum
Encoding: 62 94 62
Width: 1196
VWidth: 2982
Flags: W
HStem: 745 748<869 1235>
VStem: 282 953<745 745>
Fore
869 1493 m 1
 972 1493 l 1
 1235 745 l 1
 1132 745 l 1
 900 1399 l 1
 385 745 l 1
 282 745 l 1
 869 1493 l 1
EndSplineSet
EndChar
StartChar: underscore
Encoding: 63 95 63
Width: 970
VWidth: 2982
Flags: W
HStem: -90 90<0 953>
VStem: -20 994<-90 0>
Fore
974 0 m 1
 953 -90 l 1
 -20 -90 l 1
 0 0 l 1
 974 0 l 1
EndSplineSet
EndChar
StartChar: quoteleft
Encoding: 299 8216 64
Width: 523
VWidth: 2982
Flags: W
VStem: 380 224<1114.07 1279.5>
Fore
604 1207 m 0
 604 1141 544 1083 481 1083 c 0
 432 1083 380 1117 380 1186 c 0
 380 1254 434 1401 602 1513 c 1
 679 1513 l 1
 591 1455 515 1354 502 1285 c 1
 508 1285 515 1288 524 1288 c 0
 571 1288 604 1254 604 1207 c 0
EndSplineSet
EndChar
StartChar: a
Encoding: 65 97 65
Width: 1060
VWidth: 2982
Flags: W
HStem: -17 89<292.78 600.75> 517 64<530.985 916> 942 90<535.257 832.057>
VStem: 150 92<122.914 261.297> 824 90<0.612297 108.335> 938 92<606.085 832.005>
Fore
920 0 m 1
 824 0 l 1
 824 27 l 0
 824 58 826 94 835 134 c 2
 850 213 l 1
 739 90 575 -17 416 -17 c 0
 224 -17 150 96 150 205 c 0
 150 226 152 244 156 262 c 0
 224 577 649 581 902 581 c 2
 929 581 l 1
 936 613 938 643 938 669 c 0
 938 846 826 942 694 942 c 0
 602 942 497 895 410 797 c 1
 346 844 l 1
 459 974 596 1032 714 1032 c 0
 889 1032 1030 912 1030 694 c 0
 1030 658 1025 622 1019 581 c 2
 925 134 l 2
 918 101 914 72 914 49 c 0
 914 30 916 13 920 0 c 1
436 72 m 0
 600 72 786 205 875 325 c 1
 916 517 l 1
 698 513 297 502 246 262 c 0
 244 250 242 239 242 228 c 0
 242 152 295 72 436 72 c 0
EndSplineSet
EndChar
StartChar: b
Encoding: 66 98 66
Width: 1215
VWidth: 2982
Flags: W
HStem: -15 89<496.938 819.722> 940 90<681.346 984.625>
VStem: 1128 90<411.494 792.963>
Fore
1218 626 m 0
 1218 293 920 -15 628 -15 c 0
 474 -15 333 126 312 260 c 1
 284 134 l 2
 275 83 260 38 239 0 c 1
 143 0 l 1
 164 30 184 74 195 134 c 2
 483 1493 l 1
 573 1493 l 1
 416 754 l 1
 500 897 696 1030 850 1030 c 0
 1072 1030 1218 853 1218 626 c 0
833 940 m 0
 598 940 354 685 354 406 c 0
 354 215 474 74 649 74 c 0
 882 74 1128 331 1128 611 c 0
 1128 801 1008 940 833 940 c 0
EndSplineSet
EndChar
StartChar: c
Encoding: 67 99 67
Width: 1098
VWidth: 2982
Flags: W
HStem: -11 92<449.083 776.821> 940 92<613.384 939.104>
VStem: 218 89<229.235 614.104>
Fore
786 940 m 0
 553 940 307 694 307 410 c 0
 307 220 427 81 602 81 c 0
 734 81 867 158 961 280 c 1
 1030 235 l 1
 918 90 750 -11 581 -11 c 0
 361 -11 218 161 218 387 c 0
 218 724 510 1032 803 1032 c 0
 972 1032 1097 931 1147 786 c 1
 1059 741 l 1
 1016 861 916 940 786 940 c 0
EndSplineSet
EndChar
StartChar: d
Encoding: 68 100 68
Width: 1215
VWidth: 2982
Flags: W
HStem: -15 89<448.779 752.055> 940 90<614.407 936.456>
VStem: 218 89<225.204 611.435> 978 90<0.612297 108.335>
Fore
218 385 m 0
 218 718 513 1030 803 1030 c 0
 959 1030 1102 897 1121 754 c 1
 1278 1493 l 1
 1367 1493 l 1
 1079 134 l 2
 1072 101 1068 72 1068 49 c 0
 1068 30 1070 13 1074 0 c 1
 978 0 l 1
 978 27 l 0
 978 58 980 94 989 134 c 2
 1016 260 l 1
 938 126 737 -15 581 -15 c 0
 361 -15 218 158 218 385 c 0
600 74 m 0
 835 74 1081 327 1081 607 c 0
 1081 799 959 940 786 940 c 0
 555 940 307 694 307 406 c 0
 307 215 427 74 600 74 c 0
EndSplineSet
EndChar
StartChar: e
Encoding: 69 101 69
Width: 1177
VWidth: 2982
Flags: W
HStem: -15 94<446.019 784.081> 508 85<346 1083> 940 90<616.149 940.586>
VStem: 218 89<225.941 485.059> 1083 92<594.085 786.578>
Fore
346 593 m 1
 1083 593 l 1
 1083 609 l 2
 1083 801 963 940 788 940 c 0
 611 940 425 795 346 593 c 1
218 385 m 0
 218 720 515 1030 806 1030 c 0
 1030 1030 1175 855 1175 628 c 0
 1175 604 1175 577 1171 553 c 2
 1164 508 l 1
 318 508 l 1
 312 472 307 438 307 406 c 0
 307 215 427 79 602 79 c 0
 732 79 895 154 989 278 c 1
 1059 233 l 1
 947 87 750 -15 581 -15 c 0
 361 -15 218 158 218 385 c 0
EndSplineSet
EndChar
StartChar: f
Encoding: 70 102 70
Width: 532
VWidth: 2982
Flags: W
HStem: 0 21G<164 256.281> 925 89<293 361 470 701> 1448 58<721.845 842>
VStem: 164 691<0 1506>
Fore
164 0 m 1
 361 925 l 1
 275 925 l 1
 293 1014 l 1
 380 1014 l 1
 399 1104 l 2
 446 1325 649 1506 855 1506 c 1
 842 1448 l 1
 690 1448 526 1280 487 1104 c 2
 470 1014 l 1
 750 1014 l 1
 701 925 l 1
 450 925 l 1
 252 0 l 1
 164 0 l 1
EndSplineSet
EndChar
StartChar: g
Encoding: 71 103 71
Width: 1215
VWidth: 2982
Flags: W
HStem: -521 89<336.797 662.207> -15 89<441.571 749.038> 940 90<615.255 932.992>
VStem: 218 81<225.204 609.537>
Fore
218 385 m 0
 218 718 513 1030 803 1030 c 0
 959 1030 1100 889 1121 754 c 1
 1149 880 l 2
 1160 931 1175 976 1196 1014 c 1
 1290 1014 l 1
 1269 985 1251 940 1238 880 c 2
 1050 0 l 2
 989 -284 730 -521 470 -521 c 0
 352 -521 255 -472 192 -391 c 1
 271 -329 l 1
 322 -393 401 -432 493 -432 c 0
 696 -432 908 -242 961 0 c 2
 1016 260 l 1
 936 116 737 -15 581 -15 c 0
 361 -15 218 158 218 385 c 0
596 74 m 0
 828 74 1074 331 1074 611 c 0
 1074 801 953 940 779 940 c 0
 544 940 299 685 299 406 c 0
 299 215 421 74 596 74 c 0
EndSplineSet
EndChar
StartChar: h
Encoding: 72 104 72
Width: 1071
VWidth: 2982
Flags: W
HStem: 0 21G<168 262.213 818 910.313> 940 90<682.595 915.301>
VStem: 963 92<666.517 890.861>
Fore
168 0 m 1
 483 1493 l 1
 573 1493 l 1
 412 726 l 1
 513 884 694 1030 820 1030 c 0
 985 1030 1055 914 1055 756 c 0
 1055 716 1050 671 1041 626 c 2
 906 0 l 1
 818 0 l 1
 951 626 l 2
 959 662 963 701 963 739 c 0
 963 844 927 940 797 940 c 0
 634 940 396 660 365 508 c 2
 258 0 l 1
 168 0 l 1
EndSplineSet
EndChar
StartChar: i
Encoding: 73 105 73
Width: 422
VWidth: 2982
Flags: W
HStem: 0 21G<168 262.221> 1173 162<415.29 544.224>
VStem: 396 166<1192.39 1315.93>
Fore
396 1235 m 0
 396 1288 444 1335 495 1335 c 0
 534 1335 562 1307 562 1269 c 0
 562 1222 515 1173 461 1173 c 0
 423 1173 396 1200 396 1235 c 0
258 0 m 1
 168 0 l 1
 383 1014 l 1
 472 1014 l 1
 258 0 l 1
EndSplineSet
EndChar
StartChar: j
Encoding: 74 106 74
Width: 415
VWidth: 2982
Flags: W
HStem: -312 77<-81 42.7659> 1173 162<410.19 538.875>
VStem: 391 166<1191.25 1315.27>
Fore
383 1014 m 1
 472 1014 l 1
 258 2 l 2
 222 -168 64 -312 -96 -312 c 1
 -81 -235 l 1
 27 -235 141 -126 168 2 c 2
 383 1014 l 1
391 1238 m 0
 391 1285 438 1335 493 1335 c 0
 530 1335 557 1307 557 1271 c 0
 557 1220 510 1173 459 1173 c 0
 419 1173 391 1200 391 1238 c 0
EndSplineSet
EndChar
StartChar: k
Encoding: 75 107 75
Width: 950
VWidth: 2982
Flags: W
HStem: 0 21G<168 262.247 822.102 951>
VStem: 168 889<0 1014>
Fore
258 0 m 1
 168 0 l 1
 483 1493 l 1
 573 1493 l 1
 385 607 l 1
 922 1014 l 1
 1057 1014 l 1
 549 626 l 1
 951 0 l 1
 835 0 l 1
 470 566 l 1
 361 485 l 1
 258 0 l 1
EndSplineSet
EndChar
StartChar: l
Encoding: 76 108 76
Width: 422
VWidth: 2982
Flags: W
HStem: 0 21G<168 262.22>
VStem: 168 405<0 1493>
Fore
258 0 m 1
 168 0 l 1
 483 1493 l 1
 573 1493 l 1
 258 0 l 1
EndSplineSet
EndChar
StartChar: m
Encoding: 77 109 77
Width: 1595
VWidth: 2982
Flags: W
HStem: 0 21G<168 262.213 752 846.246 1341 1435.23> 940 90<662.293 859.522 1244.88 1444.09>
VStem: 365 92<910.062 1013.48> 900 106<734 900.789> 1486 92<667.42 898.073>
Fore
359 1014 m 1
 455 1014 l 1
 457 1006 457 994 457 983 c 0
 457 951 453 918 444 880 c 2
 412 734 l 1
 508 886 675 1030 786 1030 c 0
 938 1030 1006 916 1006 771 c 0
 1006 759 1003 745 1003 734 c 1
 1100 889 1254 1027 1367 1027 c 0
 1518 1027 1578 914 1578 767 c 0
 1578 720 1574 673 1563 624 c 2
 1431 0 l 1
 1341 0 l 1
 1473 624 l 2
 1482 662 1486 705 1486 748 c 0
 1486 846 1455 938 1345 938 c 0
 1204 938 983 662 949 504 c 2
 842 0 l 1
 752 0 l 1
 886 626 l 2
 895 665 900 709 900 750 c 0
 900 850 869 940 759 940 c 0
 626 940 401 679 365 508 c 2
 258 0 l 1
 168 0 l 1
 354 880 l 2
 361 914 365 942 365 965 c 0
 365 985 363 1000 359 1014 c 1
EndSplineSet
EndChar
StartChar: n
Encoding: 78 110 78
Width: 1071
VWidth: 2982
Flags: W
HStem: 0 21G<168 262.213 818 910.313> 940 90<683.029 915.301>
VStem: 365 92<910.062 1013.48> 963 92<666.517 890.861>
Fore
359 1014 m 1
 455 1014 l 1
 457 1006 457 994 457 983 c 0
 457 951 453 918 444 880 c 2
 412 728 l 1
 517 889 694 1030 820 1030 c 0
 985 1030 1055 914 1055 756 c 0
 1055 716 1050 671 1041 626 c 2
 906 0 l 1
 818 0 l 1
 951 626 l 2
 959 662 963 701 963 739 c 0
 963 844 927 940 797 940 c 0
 634 940 396 660 365 508 c 2
 258 0 l 1
 168 0 l 1
 354 880 l 2
 361 914 365 942 365 965 c 0
 365 985 363 1000 359 1014 c 1
EndSplineSet
EndChar
StartChar: o
Encoding: 79 111 79
Width: 1282
VWidth: 2982
Flags: W
HStem: -15 89<483.606 855.049> 940 90<649.395 1023.34>
VStem: 220 92<242.125 605.092> 1196 84<411.622 770.349>
Fore
220 396 m 0
 220 726 530 1030 859 1030 c 0
 1110 1030 1280 853 1280 615 c 0
 1280 305 980 -15 638 -15 c 0
 389 -15 220 158 220 396 c 0
844 940 m 0
 581 940 312 696 312 416 c 0
 312 222 453 74 660 74 c 0
 927 74 1196 320 1196 596 c 0
 1196 792 1053 940 844 940 c 0
EndSplineSet
EndChar
StartChar: p
Encoding: 80 112 80
Width: 1215
VWidth: 2982
Flags: W
HStem: -448 21G<72 165.266> -15 89<496.752 819.722> 940 90<680.997 984.625>
VStem: 365 92<910.062 1013.48> 1128 90<411.494 792.963>
Fore
1218 626 m 0
 1218 293 920 -15 628 -15 c 0
 474 -15 331 116 312 260 c 1
 161 -448 l 1
 72 -448 l 1
 354 880 l 2
 361 914 365 942 365 965 c 0
 365 985 363 1000 359 1014 c 1
 455 1014 l 1
 457 1006 457 994 457 983 c 0
 457 951 453 918 444 880 c 2
 416 754 l 1
 497 889 696 1030 850 1030 c 0
 1072 1030 1218 853 1218 626 c 0
833 940 m 0
 598 940 354 685 354 406 c 0
 354 215 474 74 649 74 c 0
 882 74 1128 331 1128 611 c 0
 1128 801 1008 940 833 940 c 0
EndSplineSet
EndChar
StartChar: q
Encoding: 81 113 81
Width: 1215
VWidth: 2982
Flags: W
HStem: -448 21G<867 959.262> -15 89<448.779 751.823> 940 90<614.407 936.27>
VStem: 218 89<225.204 611.435>
Fore
218 385 m 0
 218 718 513 1030 803 1030 c 0
 959 1030 1100 889 1121 754 c 1
 1149 880 l 2
 1160 931 1175 976 1196 1014 c 1
 1290 1014 l 1
 1269 985 1251 940 1238 880 c 2
 955 -448 l 1
 867 -448 l 1
 1016 260 l 1
 936 116 737 -15 581 -15 c 0
 361 -15 218 158 218 385 c 0
600 74 m 0
 835 74 1081 327 1081 607 c 0
 1081 799 959 940 786 940 c 0
 555 940 307 694 307 406 c 0
 307 215 427 74 600 74 c 0
EndSplineSet
EndChar
StartChar: r
Encoding: 82 114 82
Width: 648
VWidth: 2982
Flags: W
HStem: 0 21G<168 262.184>
VStem: 365 92<910.062 1013.48>
Fore
359 1014 m 1
 455 1014 l 1
 457 1006 457 994 457 983 c 0
 457 951 453 918 444 880 c 2
 416 754 l 1
 472 859 634 987 752 1030 c 1
 837 959 l 1
 658 959 416 745 367 521 c 2
 258 0 l 1
 168 0 l 1
 354 880 l 2
 361 914 365 942 365 965 c 0
 365 985 363 1000 359 1014 c 1
EndSplineSet
EndChar
StartChar: s
Encoding: 83 115 83
Width: 892
VWidth: 2982
Flags: W
HStem: -17 89<333.642 609.479> 944 88<529.156 753.824>
VStem: 181 92<134.274 289.537> 359 96<679.504 870.852> 750 92<208.014 434.8> 799 90<822.76 917.829>
Fore
359 739 m 0xf8
 359 882 491 1032 667 1032 c 0
 773 1032 871 969 889 835 c 1
 799 806 l 1xf4
 786 900 718 944 647 944 c 0
 530 944 455 839 455 761 c 0
 455 591 842 613 842 359 c 0
 842 161 651 -17 438 -17 c 0
 302 -17 181 64 181 250 c 0
 181 262 181 275 184 289 c 1
 275 302 l 1
 275 291 273 282 273 271 c 0
 273 132 361 72 459 72 c 0
 607 72 750 197 750 336 c 0
 750 542 359 513 359 739 c 0xf8
EndSplineSet
EndChar
StartChar: t
Encoding: 84 116 84
Width: 551
VWidth: 2982
Flags: W
HStem: 0 21G<168 262.259> 925 89<293 365 472 705>
VStem: 168 584<0 1014>
Fore
258 0 m 1
 168 0 l 1
 365 925 l 1
 275 925 l 1
 293 1014 l 1
 383 1014 l 1
 434 1254 l 1
 524 1254 l 1
 472 1014 l 1
 752 1014 l 1
 705 925 l 1
 455 925 l 1
 258 0 l 1
EndSplineSet
EndChar
StartChar: u
Encoding: 85 117 85
Width: 1066
VWidth: 2982
Flags: W
HStem: -15 89<416.819 699.986>
VStem: 239 92<164.038 367.151>
Fore
383 1014 m 1
 472 1014 l 1
 340 387 l 2
 333 361 331 336 331 312 c 0
 331 175 416 74 546 74 c 0
 698 74 857 213 895 387 c 2
 1027 1014 l 1
 1117 1014 l 1
 985 387 l 2
 938 168 737 -15 530 -15 c 0
 354 -15 239 119 239 295 c 0
 239 325 244 356 250 387 c 2
 383 1014 l 1
EndSplineSet
EndChar
StartChar: v
Encoding: 86 118 86
Width: 946
VWidth: 2982
Flags: W
VStem: 250 878<1014 1014>
Fore
250 1014 m 1
 346 1014 l 1
 517 203 l 1
 1030 1014 l 1
 1128 1014 l 1
 470 -30 l 1
 250 1014 l 1
EndSplineSet
EndChar
StartChar: w
Encoding: 87 119 87
Width: 1600
VWidth: 2982
Flags: W
Fore
250 1014 m 1
 349 1014 l 1
 510 208 l 1
 1027 1045 l 1
 1191 208 l 1
 1688 1014 l 1
 1782 1014 l 1
 1139 -30 l 1
 974 806 l 1
 457 -30 l 1
 250 1014 l 1
EndSplineSet
EndChar
StartChar: x
Encoding: 88 120 88
Width: 906
VWidth: 2982
Flags: W
HStem: 0 1014<293 871>
VStem: 36 1009<0 1014>
Fore
293 1014 m 1
 391 1014 l 1
 581 615 l 1
 940 1014 l 1
 1045 1014 l 1
 618 538 l 1
 871 0 l 1
 767 0 l 1
 551 459 l 1
 141 0 l 1
 36 0 l 1
 517 538 l 1
 293 1014 l 1
EndSplineSet
EndChar
StartChar: y
Encoding: 89 121 89
Width: 946
VWidth: 2982
Flags: W
VStem: 126 1002<-521 1014>
Fore
250 1014 m 1
 344 1014 l 1
 504 119 l 1
 1034 1014 l 1
 1128 1014 l 1
 220 -521 l 1
 126 -521 l 1
 432 -2 l 1
 250 1014 l 1
EndSplineSet
EndChar
StartChar: z
Encoding: 90 122 90
Width: 888
VWidth: 2982
Flags: W
HStem: 0 90<224 822> 925 89<374 884>
Fore
374 1014 m 1
 1070 1014 l 1
 224 90 l 1
 869 90 l 1
 822 0 l 1
 36 0 l 1
 884 925 l 1
 325 925 l 1
 374 1014 l 1
EndSplineSet
EndChar
StartChar: braceleft
Encoding: 91 123 91
Width: 570
VWidth: 2982
Flags: W
HStem: -312 62<373.26 448> 1506 61<737.427 833>
VStem: 248 92<-220.614 -13.5938> 340 92<375.094 550.11>
Fore
607 1224 m 2
 544 929 l 2
 510 771 455 696 363 628 c 1
 403 591 432 544 432 457 c 0
 432 423 427 380 416 331 c 2
 354 34 l 2
 344 -11 340 -51 340 -85 c 0
 340 -190 383 -250 461 -250 c 1
 448 -312 l 1
 365 -312 248 -275 248 -94 c 0
 248 -58 252 -15 265 34 c 2
 327 331 l 2
 336 372 340 403 340 432 c 0
 340 508 307 546 250 591 c 1
 267 665 l 1
 369 726 421 773 455 925 c 2
 517 1224 l 2
 579 1515 745 1567 846 1567 c 1
 833 1506 l 1
 730 1506 645 1403 607 1224 c 2
EndSplineSet
EndChar
StartChar: bar
Encoding: 92 124 92
Width: 422
VWidth: 2982
Flags: W
VStem: 134 473<-150 1641>
Fore
224 -150 m 1
 134 -150 l 1
 517 1641 l 1
 607 1641 l 1
 224 -150 l 1
EndSplineSet
EndChar
StartChar: braceright
Encoding: 93 125 93
Width: 574
VWidth: 2982
Flags: W
HStem: -314 62<7 113.945> 1506 59<391 468.305>
VStem: 408 96<701.804 885.171> 502 91<1267.78 1477.72>
Fore
380 1506 m 1xd0
 391 1565 l 1
 479 1565 593 1529 593 1345 c 0xd0
 593 1309 589 1267 579 1220 c 2
 515 922 l 2
 506 882 504 850 504 824 c 0
 504 745 534 707 591 662 c 1
 575 589 l 1
 472 528 421 481 389 329 c 2
 325 30 l 2
 265 -262 94 -314 -7 -314 c 1
 7 -252 l 1
 109 -252 197 -150 235 30 c 2
 299 329 l 2
 336 502 403 573 479 626 c 1
 434 671 408 724 408 806 c 0xe0
 408 839 414 878 423 925 c 2
 487 1224 l 2
 497 1267 502 1307 502 1341 c 0
 502 1448 459 1506 380 1506 c 1xd0
EndSplineSet
EndChar
StartChar: asciitilde
Encoding: 94 126 94
Width: 1058
VWidth: 2982
Flags: W
HStem: 378 94<709.862 934.004> 513 94<305.892 574.942>
VStem: 205 858<513 598 387 598>
Fore
1006 598 m 1
 1063 598 l 1
 1030 438 938 378 839 378 c 0
 687 378 557 513 419 513 c 0
 369 513 286 495 265 387 c 1
 205 387 l 1
 239 553 344 607 438 607 c 0
 609 607 724 472 857 472 c 0
 902 472 980 485 1006 598 c 1
EndSplineSet
EndChar
StartChar: exclamdown
Encoding: 96 161 95
Width: 570
VWidth: 2982
Flags: W
HStem: -477 21G<126 247.764> 861 169<423.725 552.239>
VStem: 403 170<881.932 1009.14>
Fore
416 745 m 1
 474 745 l 1
 244 -477 l 1
 126 -477 l 1
 416 745 l 1
403 929 m 0
 403 987 461 1030 506 1030 c 0
 546 1030 573 1000 573 963 c 0
 573 904 515 861 470 861 c 0
 432 861 403 891 403 929 c 0
EndSplineSet
EndChar
StartChar: cent
Encoding: 97 162 96
Width: 1105
VWidth: 2982
Flags: W
VStem: 218 91<227.215 606.858>
Fore
810 1254 m 1
 900 1254 l 1
 850 1030 l 1
 998 1014 1106 920 1153 786 c 1
 1066 741 l 1
 1027 848 944 922 835 938 c 1
 651 79 l 1
 767 92 884 168 965 275 c 1
 1034 231 l 1
 931 98 784 2 632 -11 c 1
 581 -239 l 1
 493 -239 l 1
 542 -11 l 1
 342 7 218 173 218 385 c 0
 218 683 463 998 761 1027 c 1
 810 1254 l 1
743 940 m 1
 519 912 309 665 309 408 c 0
 309 233 410 101 560 81 c 1
 743 940 l 1
EndSplineSet
EndChar
StartChar: sterling
Encoding: 98 163 97
Width: 1033
VWidth: 2982
Flags: W
HStem: 0 90<250 933> 701 89<280 500 598 871> 1424 87<779.342 1071.48>
VStem: 1147 62<1202 1343.59>
Fore
871 701 m 1
 589 701 l 1
 530 318 356 166 250 90 c 1
 983 90 l 1
 933 0 l 1
 96 0 l 1
 90 83 l 1
 346 215 440 401 483 607 c 0
 491 636 497 665 500 696 c 1
 231 696 l 1
 280 786 l 1
 510 786 l 1
 526 931 528 1072 557 1200 c 0
 598 1395 786 1511 951 1511 c 0
 1090 1511 1209 1424 1209 1233 c 2
 1209 1202 l 1
 1147 1191 l 1
 1147 1213 l 2
 1147 1356 1045 1424 933 1424 c 0
 810 1424 673 1343 645 1202 c 0
 618 1085 615 940 598 790 c 1
 920 790 l 1
 871 701 l 1
EndSplineSet
EndChar
StartChar: fraction
Encoding: 312 8260 98
Width: 1177
VWidth: 2982
Flags: W
HStem: 0 21G<2 132.446>
Fore
1379 1493 m 1
 1491 1493 l 1
 114 0 l 1
 2 0 l 1
 1379 1493 l 1
EndSplineSet
EndChar
StartChar: yen
Encoding: 100 165 99
Width: 1228
VWidth: 2982
Flags: W
HStem: 0 21G<571 664.239> 401 94<314 656 765 1097> 645 96<369 667 878 1157>
Fore
1117 495 m 1
 1097 401 l 1
 745 401 l 1
 660 0 l 1
 571 0 l 1
 656 401 l 1
 293 401 l 1
 314 495 l 1
 675 495 l 1
 707 645 l 1
 349 645 l 1
 369 741 l 1
 667 741 l 1
 354 1493 l 1
 457 1493 l 1
 773 741 l 1
 1406 1493 l 1
 1511 1493 l 1
 878 741 l 1
 1177 741 l 1
 1157 645 l 1
 797 645 l 1
 765 495 l 1
 1117 495 l 1
EndSplineSet
EndChar
StartChar: florin
Encoding: 200 402 100
Width: 809
VWidth: 2982
Flags: W
HStem: -164 59<-96 82.8633> 786 89<408 546 675 1021> 1448 58<1027.11 1188>
Fore
1072 875 m 1
 1021 786 l 1
 638 786 l 1
 374 141 l 2
 289 -79 90 -164 -109 -164 c 1
 -96 -105 l 1
 64 -105 222 -11 286 158 c 2
 546 786 l 1
 359 786 l 1
 408 875 l 1
 581 875 l 1
 718 1202 l 2
 806 1421 1000 1506 1200 1506 c 1
 1188 1448 l 1
 1027 1448 871 1354 803 1184 c 2
 675 875 l 1
 1072 875 l 1
EndSplineSet
EndChar
StartChar: section
Encoding: 102 167 101
Width: 897
VWidth: 2982
Flags: W
HStem: -134 89<300.921 590.4> 1202 21G<940 1032> 1417 89<600.181 883.15>
VStem: 156 90<9.79263 139 139 173> 271 94<597.267 778.141> 369 97<1055.21 1289.12> 726 96<86.6578 317.522> 828 92<599.668 775.527> 940 94<1202 1357.92>
Fore
822 242 m 0
 822 51 634 -134 419 -134 c 0
 282 -134 156 -51 156 139 c 0
 156 150 158 161 158 173 c 1
 248 173 l 1
 248 161 246 152 246 141 c 0
 246 4 333 -45 434 -45 c 0
 593 -45 726 85 726 218 c 0
 726 436 271 393 271 671 c 0
 271 720 289 869 446 974 c 1
 401 1012 369 1061 369 1135 c 0
 369 1325 553 1506 771 1506 c 0
 908 1506 1034 1426 1034 1235 c 0
 1034 1224 1032 1213 1032 1202 c 1
 940 1202 l 1
 940 1226 l 2
 940 1361 855 1417 754 1417 c 0
 602 1417 466 1294 466 1157 c 0
 466 936 920 980 920 705 c 0
 920 656 902 508 745 403 c 1
 790 365 822 316 822 242 c 0
669 455 m 1
 799 519 828 626 828 679 c 0
 828 812 651 855 519 922 c 1
 391 857 365 748 365 696 c 0
 365 560 534 524 669 455 c 1
EndSplineSet
EndChar
StartChar: currency
Encoding: 99 164 102
Width: 1301
VWidth: 2982
Flags: W
HStem: 331 92<583.709 916.121> 1104 90<715.153 1045.17>
VStem: 376 92<572.516 859.77> 1164 94<663.673 953.712>
Fore
376 673 m 0
 376 839 470 967 540 1036 c 1
 416 1191 l 1
 493 1254 l 1
 615 1100 l 1
 703 1157 803 1194 904 1194 c 0
 1010 1194 1097 1155 1157 1092 c 1
 1359 1254 l 1
 1408 1191 l 1
 1215 1030 l 1
 1243 978 1258 918 1258 853 c 0
 1258 690 1166 562 1094 493 c 1
 1229 320 l 1
 1153 258 l 1
 1019 427 l 1
 931 367 828 331 728 331 c 0
 622 331 534 367 472 427 c 1
 260 252 l 1
 211 316 l 1
 423 491 l 1
 393 542 376 607 376 673 c 0
889 1104 m 0
 679 1104 468 912 468 692 c 0
 468 538 579 423 743 423 c 0
 947 423 1164 611 1164 833 c 0
 1164 987 1053 1104 889 1104 c 0
EndSplineSet
EndChar
StartChar: quotesingle
Encoding: 7 39 103
Width: 451
VWidth: 2982
Flags: W
VStem: 446 169<1164 1551>
Fore
504 1164 m 1
 446 1164 l 1
 497 1551 l 1
 615 1551 l 1
 504 1164 l 1
EndSplineSet
EndChar
StartChar: quotedblleft
Encoding: 302 8220 104
Width: 737
VWidth: 2982
Flags: W
HStem: 1083 202<502 572.345 771 841.008>
VStem: 380 224<1114.07 1279.5> 649 224<1115.45 1279.5>
Fore
604 1207 m 0
 604 1141 544 1083 481 1083 c 0
 432 1083 380 1117 380 1186 c 0
 380 1254 434 1401 602 1513 c 1
 679 1513 l 1
 591 1455 515 1354 502 1285 c 1
 508 1285 515 1288 524 1288 c 0
 571 1288 604 1254 604 1207 c 0
873 1207 m 0
 873 1141 812 1083 750 1083 c 0
 701 1083 649 1117 649 1186 c 0
 649 1254 703 1401 871 1513 c 1
 947 1513 l 1
 859 1455 784 1354 771 1285 c 1
 777 1285 784 1288 792 1288 c 0
 839 1288 873 1254 873 1207 c 0
EndSplineSet
EndChar
StartChar: guillemotleft
Encoding: 106 171 105
Width: 874
VWidth: 2982
Flags: W
HStem: 150 717<848 891>
VStem: 231 772<508 867>
Fore
891 867 m 1
 1003 867 l 1
 669 508 l 1
 848 150 l 1
 739 150 l 1
 560 508 l 1
 891 867 l 1
564 867 m 1
 673 867 l 1
 340 508 l 1
 521 150 l 1
 410 150 l 1
 231 508 l 1
 564 867 l 1
EndSplineSet
EndChar
StartChar: guilsinglleft
Encoding: 310 8249 106
Width: 472
VWidth: 2982
Flags: W
HStem: 150 717<434 477>
VStem: 143 444<508 867>
Fore
477 867 m 1
 587 867 l 1
 255 508 l 1
 434 150 l 1
 325 150 l 1
 143 508 l 1
 477 867 l 1
EndSplineSet
EndChar
StartChar: guilsinglright
Encoding: 311 8250 107
Width: 472
VWidth: 2982
Flags: W
HStem: 150 717<215 255>
VStem: 103 443<150 508>
Fore
255 867 m 1
 367 867 l 1
 546 508 l 1
 215 150 l 1
 103 150 l 1
 436 508 l 1
 255 867 l 1
EndSplineSet
EndChar
StartChar: endash
Encoding: 297 8211 108
Width: 530
VWidth: 2982
Flags: W
HStem: 446 125<121 626>
VStem: 94 557<446 571>
Fore
651 571 m 1
 626 446 l 1
 94 446 l 1
 121 571 l 1
 651 571 l 1
EndSplineSet
EndChar
StartChar: dagger
Encoding: 305 8224 109
Width: 1168
VWidth: 2982
Flags: W
HStem: 940 90<363 512.803 1086.02 1226> 955 59<614.328 759 831 985.117>
VStem: 342 903<940 1030>
Fore
568 -286 m 1x60
 479 -286 l 1
 759 955 l 1x60
 342 940 l 1
 363 1030 l 1xa0
 771 1014 l 1
 857 1493 l 1
 947 1493 l 1
 831 1014 l 1x60
 1245 1030 l 1
 1226 940 l 1xa0
 818 955 l 1
 568 -286 l 1x60
EndSplineSet
EndChar
StartChar: daggerdbl
Encoding: 306 8225 110
Width: 1168
VWidth: 2982
Flags: W
HStem: 262 90<218 357.976 925.56 1083> 278 60<454.024 613 687 830.44> 857 90<344 500.672 1067.02 1209> 871 60<595.328 741 812 970.976>
Fore
568 -286 m 1x40
 479 -286 l 1
 613 278 l 1x40
 199 262 l 1
 218 352 l 1x80
 626 338 l 1
 741 871 l 1x50
 325 857 l 1
 344 947 l 1x20
 752 931 l 1
 857 1493 l 1
 947 1493 l 1
 812 931 l 1x10
 1226 947 l 1
 1209 857 l 1x20
 799 871 l 1
 687 338 l 1x50
 1102 352 l 1
 1083 262 l 1x80
 673 278 l 1
 568 -286 l 1x40
EndSplineSet
EndChar
StartChar: periodcentered
Encoding: 118 183 111
Width: 498
VWidth: 2982
Flags: W
HStem: 662 169<347.42 475.247>
VStem: 325 170<682.638 809.041>
Fore
325 728 m 0
 325 781 378 831 427 831 c 0
 468 831 495 799 495 761 c 0
 495 703 436 662 391 662 c 0
 354 662 325 692 325 728 c 0
EndSplineSet
EndChar
StartChar: paragraph
Encoding: 117 182 112
Width: 1260
VWidth: 2982
Flags: W
HStem: 1403 90<1155 1305>
Fore
318 869 m 0
 318 1144 579 1493 1063 1493 c 2
 1412 1493 l 1
 1043 -248 l 1
 953 -248 l 1
 1305 1403 l 1
 1155 1403 l 1
 803 -248 l 1
 714 -248 l 1
 861 448 l 1
 842 448 l 2
 483 448 318 645 318 869 c 0
EndSplineSet
EndChar
StartChar: bullet
Encoding: 307 8226 113
Width: 989
VWidth: 2982
Flags: W
Fore
262 521 m 0
 262 752 481 955 698 955 c 0
 867 955 983 835 983 673 c 0
 983 444 763 239 546 239 c 0
 378 239 262 361 262 521 c 0
EndSplineSet
EndChar
StartChar: quotesinglbase
Encoding: 301 8218 114
Width: 523
VWidth: 2982
Flags: W
VStem: 201 224<-26.0552 136.522>
Fore
201 47 m 0
 201 116 271 171 325 171 c 0
 374 171 425 137 425 67 c 0
 425 0 374 -148 205 -260 c 1
 130 -260 l 1
 215 -201 291 -101 307 -32 c 1
 299 -32 291 -34 282 -34 c 0
 235 -34 201 2 201 47 c 0
EndSplineSet
EndChar
StartChar: quotedblbase
Encoding: 304 8222 115
Width: 737
VWidth: 2982
Flags: W
HStem: -13 201<174.836 250 443.652 519>
VStem: 143 226<-1.22581 154.5> 412 226<-1.22581 155.549>
Fore
412 67 m 0
 412 139 483 188 540 188 c 0
 587 188 638 154 638 85 c 0
 638 20 591 -126 419 -242 c 1
 342 -242 l 1
 427 -184 504 -83 519 -13 c 1
 513 -13 504 -15 497 -15 c 0
 448 -15 412 20 412 67 c 0
143 67 m 0
 143 139 215 188 271 188 c 0
 318 188 369 154 369 85 c 0
 369 20 322 -126 150 -242 c 1
 74 -242 l 1
 158 -184 235 -83 250 -13 c 1
 244 -13 235 -15 228 -15 c 0
 179 -15 143 20 143 67 c 0
EndSplineSet
EndChar
StartChar: quotedblright
Encoding: 303 8221 116
Width: 737
VWidth: 2982
Flags: W
HStem: 1305 201<454.836 529.137 723.652 798.009>
VStem: 423 228<1317.04 1471.88> 692 228<1317.04 1473.41>
Fore
692 1386 m 0
 692 1455 763 1506 820 1506 c 0
 869 1506 920 1476 920 1403 c 0
 920 1339 867 1191 698 1077 c 1
 622 1077 l 1
 707 1135 786 1238 799 1307 c 1
 792 1305 784 1305 777 1305 c 0
 728 1305 692 1341 692 1386 c 0
423 1386 m 0
 423 1455 495 1506 551 1506 c 0
 600 1506 651 1476 651 1403 c 0
 651 1339 598 1191 430 1077 c 1
 354 1077 l 1
 438 1135 517 1238 530 1307 c 1
 524 1305 515 1305 508 1305 c 0
 459 1305 423 1341 423 1386 c 0
EndSplineSet
EndChar
StartChar: guillemotright
Encoding: 122 187 117
Width: 874
VWidth: 2982
Flags: W
HStem: 150 717<265 307>
VStem: 154 773<150 508>
Fore
307 867 m 1
 416 867 l 1
 598 508 l 1
 265 150 l 1
 154 150 l 1
 487 508 l 1
 307 867 l 1
636 867 m 1
 745 867 l 1
 927 508 l 1
 593 150 l 1
 481 150 l 1
 814 508 l 1
 636 867 l 1
EndSplineSet
EndChar
StartChar: ellipsis
Encoding: 308 8230 118
Width: 1765
VWidth: 2982
Flags: W
HStem: -15 167<234.177 367.823 833.471 967.823 1430.72 1560.38>
VStem: 215 172<6.04936 131.986> 814 173<6.04936 130.842> 1410 170<5.47309 130.842>
Fore
215 54 m 0
 215 111 273 152 318 152 c 0
 359 152 387 124 387 85 c 0
 387 27 329 -15 284 -15 c 0
 244 -15 215 15 215 54 c 0
1410 51 m 0
 1410 109 1468 152 1513 152 c 0
 1553 152 1580 124 1580 85 c 0
 1580 27 1523 -15 1478 -15 c 0
 1439 -15 1410 13 1410 51 c 0
814 54 m 0
 814 111 873 152 918 152 c 0
 959 152 987 124 987 85 c 0
 987 27 929 -15 884 -15 c 0
 844 -15 814 15 814 54 c 0
EndSplineSet
EndChar
StartChar: perthousand
Encoding: 309 8240 119
Width: 2213
VWidth: 2982
Flags: W
HStem: -17 91<1000.99 1252.39 1746.3 2001.85> 474 92<1069.6 1322.32 1816.59 2066.51> 916 94<461.836 711.469> 1408 94<528.634 780.82>
VStem: 322 92<1058.67 1295.48> 828 92<1120.28 1360.84> 865 90<121.528 362.118> 1370 91<187.728 427.37> 1610 91<118.612 356.257> 2115 92<184.564 423.968>
Fore
865 213 m 0xfbc0
 865 385 1027 566 1224 566 c 0
 1365 566 1461 468 1461 336 c 0
 1461 150 1283 -17 1102 -17 c 0
 963 -17 865 81 865 213 c 0xfbc0
1204 474 m 0
 1079 474 955 361 955 233 c 0
 955 141 1023 74 1119 74 c 0
 1247 74 1370 188 1370 318 c 0
 1370 408 1303 474 1204 474 c 0
1610 208 m 0
 1610 387 1779 564 1970 564 c 0
 2111 564 2207 463 2207 331 c 0
 2207 156 2042 -20 1847 -20 c 0
 1708 -20 1610 79 1610 208 c 0
1950 472 m 0
 1824 472 1701 359 1701 228 c 0
 1701 139 1768 72 1865 72 c 0
 1986 72 2115 177 2115 314 c 0
 2115 406 2048 472 1950 472 c 0
322 1147 m 0
 322 1325 493 1502 683 1502 c 0
 824 1502 920 1401 920 1269 c 0xfdc0
 920 1083 741 916 560 916 c 0
 421 916 322 1014 322 1147 c 0
662 1408 m 0
 544 1408 414 1303 414 1166 c 0
 414 1077 481 1010 577 1010 c 0
 698 1010 828 1117 828 1251 c 0
 828 1341 761 1408 662 1408 c 0
1525 1484 m 1
 1634 1484 l 1
 258 -9 l 1
 148 -9 l 1
 1525 1484 l 1
EndSplineSet
EndChar
StartChar: questiondown
Encoding: 126 191 120
Width: 1036
VWidth: 2982
Flags: W
HStem: -493 90<262.25 591.493> 861 169<684.616 812.088>
VStem: 90 89<-320.755 -88.8039> 665 170<882.966 1009.5>
Fore
835 965 m 0
 835 912 781 861 732 861 c 0
 692 861 665 893 665 931 c 0
 665 989 724 1030 767 1030 c 0
 806 1030 835 1000 835 965 c 0
651 707 m 1
 741 707 l 1
 709 557 l 2
 636 208 231 87 188 -116 c 0
 184 -141 179 -164 179 -186 c 0
 179 -318 273 -403 412 -403 c 0
 604 -403 773 -252 801 -116 c 1
 891 -116 l 1
 850 -314 626 -493 393 -493 c 0
 208 -493 90 -374 90 -203 c 0
 90 148 549 215 620 557 c 2
 651 707 l 1
EndSplineSet
EndChar
StartChar: grave
Encoding: 64 96 121
Width: 425
VWidth: 2982
Flags: W
VStem: 396 148<1229 1523>
Fore
544 1229 m 1
 477 1229 l 1
 396 1523 l 1
 508 1523 l 1
 544 1229 l 1
EndSplineSet
EndChar
StartChar: acute
Encoding: 115 180 122
Width: 630
VWidth: 2982
Flags: W
HStem: 1194 357<564 759>
VStem: 457 470<1194 1551>
Fore
759 1551 m 1
 927 1551 l 1
 564 1194 l 1
 457 1194 l 1
 759 1551 l 1
EndSplineSet
EndChar
StartChar: circumflex
Encoding: 201 710 123
Width: 690
VWidth: 2982
Flags: W
HStem: 1461 267<681 931>
VStem: 383 548<1461 1461>
Fore
681 1728 m 1
 745 1728 l 1
 931 1461 l 1
 810 1461 l 1
 692 1627 l 1
 506 1461 l 1
 383 1461 l 1
 681 1728 l 1
EndSplineSet
EndChar
StartChar: tilde
Encoding: 206 732 124
Width: 648
VWidth: 2982
Flags: W
HStem: 1305 92<696.993 779.761> 1414 88<452.745 562.5>
VStem: 354 541<1323 1489>
Fore
839 1489 m 1
 895 1489 l 1
 889 1457 878 1421 867 1397 c 0
 824 1305 761 1305 737 1305 c 0
 681 1305 626 1343 598 1367 c 0
 557 1399 524 1414 502 1414 c 0
 477 1414 432 1399 412 1323 c 1
 354 1323 l 1
 359 1350 363 1372 378 1406 c 0
 416 1478 472 1502 519 1502 c 0
 581 1502 638 1459 662 1442 c 0
 703 1412 737 1397 756 1397 c 0
 777 1397 824 1417 839 1489 c 1
EndSplineSet
EndChar
StartChar: macron
Encoding: 110 175 125
Width: 856
VWidth: 2982
Flags: W
HStem: 1209 89<399 994>
VStem: 378 636<1209 1298>
Fore
1014 1298 m 1
 994 1209 l 1
 378 1209 l 1
 399 1298 l 1
 1014 1298 l 1
EndSplineSet
EndChar
StartChar: dotaccent
Encoding: 203 729 126
Width: 570
VWidth: 2982
Flags: W
HStem: 1238 168<500.625 633.275>
VStem: 481 173<1258.55 1385.61>
Fore
481 1307 m 0
 481 1365 540 1406 585 1406 c 0
 624 1406 654 1377 654 1339 c 0
 654 1280 596 1238 551 1238 c 0
 510 1238 481 1269 481 1307 c 0
EndSplineSet
EndChar
StartChar: dieresis
Encoding: 103 168 127
Width: 767
VWidth: 2982
Flags: W
HStem: 1209 168<415.755 546.823 774.033 905.823>
VStem: 393 173<1229.39 1352.75> 752 173<1229.39 1354.35>
Fore
393 1276 m 0
 393 1323 446 1377 500 1377 c 0
 540 1377 566 1345 566 1307 c 0
 566 1249 508 1209 463 1209 c 0
 423 1209 393 1238 393 1276 c 0
752 1276 m 0
 752 1323 803 1377 857 1377 c 0
 897 1377 925 1345 925 1307 c 0
 925 1249 867 1209 822 1209 c 0
 781 1209 752 1238 752 1276 c 0
EndSplineSet
EndChar
StartChar: ring
Encoding: 204 730 128
Width: 570
VWidth: 2982
Flags: W
HStem: 1121 90<458.425 646.354> 1461 90<495.242 683.02>
VStem: 352 92<1227.44 1410.87> 698 92<1261.05 1445.91>
Fore
352 1292 m 0
 352 1433 485 1551 615 1551 c 0
 720 1551 790 1480 790 1382 c 0
 790 1256 671 1121 526 1121 c 0
 421 1121 352 1196 352 1292 c 0
598 1461 m 0
 519 1461 444 1390 444 1309 c 0
 444 1254 483 1211 544 1211 c 0
 613 1211 698 1276 698 1361 c 0
 698 1419 658 1461 598 1461 c 0
EndSplineSet
EndChar
StartChar: cedilla
Encoding: 119 184 129
Width: 624
VWidth: 2982
Flags: W
HStem: -401 89<174.898 330.13> -20 20G<300.146 401>
VStem: 342 94<-295.44 -185.866>
Fore
436 -203 m 0
 436 -305 349 -401 213 -401 c 0
 164 -401 111 -385 69 -352 c 1
 132 -278 l 1
 164 -302 199 -312 233 -312 c 0
 307 -312 342 -265 342 -235 c 0
 342 -199 297 -181 250 -173 c 2
 186 -164 l 1
 316 0 l 1
 401 0 l 1
 327 -96 l 1
 419 -111 436 -164 436 -203 c 0
EndSplineSet
EndChar
StartChar: hungarumlaut
Encoding: 207 733 130
Width: 1017
VWidth: 2982
Flags: W
HStem: 1194 357<564 759>
VStem: 457 857<1194 1551>
Fore
759 1551 m 1
 927 1551 l 1
 564 1194 l 1
 457 1194 l 1
 759 1551 l 1
1149 1551 m 1
 1314 1551 l 1
 951 1194 l 1
 844 1194 l 1
 1149 1551 l 1
EndSplineSet
EndChar
StartChar: ogonek
Encoding: 205 731 131
Width: 603
VWidth: 2982
Flags: W
HStem: -391 75<194.468 299.633> -20 20G<229.5 359>
VStem: 90 96<-306.432 -137.273>
Fore
359 0 m 1
 226 -111 186 -192 186 -242 c 0
 186 -286 226 -316 275 -316 c 0
 299 -316 329 -307 356 -289 c 1
 389 -342 l 1
 336 -376 282 -391 233 -391 c 0
 150 -391 90 -340 90 -262 c 0
 90 -156 197 -56 262 0 c 1
 359 0 l 1
EndSplineSet
EndChar
StartChar: caron
Encoding: 202 711 132
Width: 690
VWidth: 2982
Flags: W
HStem: 1461 267<438 690>
VStem: 438 549<1728 1728>
Fore
690 1461 m 1
 624 1461 l 1
 438 1728 l 1
 562 1728 l 1
 679 1565 l 1
 867 1728 l 1
 987 1728 l 1
 690 1461 l 1
EndSplineSet
EndChar
StartChar: emdash
Encoding: 298 8212 133
Width: 1125
VWidth: 2982
Flags: W
HStem: 446 125<121 1222>
Fore
1249 571 m 1
 1222 446 l 1
 94 446 l 1
 121 571 l 1
 1249 571 l 1
EndSplineSet
EndChar
StartChar: AE
Encoding: 133 198 134
Width: 1542
VWidth: 2982
Flags: W
HStem: 0 90<1066 1506> 463 90<479 985> 822 90<1088 1598> 1403 90<1012 1014 1104 1782>
VStem: 974 92<90 258.607> 989 99<617.572 761.896> 1014 90<1214.46 1403>
Fore
1617 912 m 1xf4
 1598 822 l 1
 1088 822 l 1xf4
 1066 90 l 1
 1527 90 l 1
 1506 0 l 1
 974 0 l 1xf8
 985 463 l 1
 421 463 l 1
 132 0 l 1
 36 0 l 1
 972 1493 l 1
 1800 1493 l 1
 1782 1403 l 1
 1104 1403 l 1xf2
 1088 912 l 1
 1617 912 l 1xf4
479 553 m 1
 989 553 l 1xf4
 1014 1403 l 1xf2
 1012 1403 l 1
 479 553 l 1
EndSplineSet
EndChar
StartChar: ordfeminine
Encoding: 105 170 135
Width: 872
VWidth: 2982
Flags: W
HStem: 620 78<408.575 666.968> 1032 62<492.92 746.425> 1290 73<559.996 811.663>
VStem: 299 79<731.513 944.466> 803 86<638 733.965> 873 82<1057.74 1231.18>
Fore
656 1032 m 0xf0
 432 1032 378 906 378 824 c 0
 378 741 446 698 532 698 c 0
 683 698 818 853 844 938 c 2
 857 1000 l 1
 803 1019 730 1032 656 1032 c 0xf0
299 806 m 0
 299 922 378 1094 660 1094 c 0
 737 1094 812 1081 869 1057 c 1
 871 1072 873 1088 873 1102 c 0
 873 1220 795 1290 681 1290 c 0
 602 1290 521 1243 459 1164 c 1
 406 1200 l 1
 481 1296 591 1363 703 1363 c 0
 850 1363 955 1271 955 1117 c 0xf4
 955 1090 953 1061 947 1032 c 2
 902 822 l 2
 900 806 889 732 889 665 c 0
 889 638 l 1
 803 620 l 1
 803 645 l 2xf8
 803 685 808 739 818 797 c 1
 748 707 640 620 517 620 c 0
 387 620 299 692 299 806 c 0
EndSplineSet
EndChar
StartChar: Lslash
Encoding: 191 321 136
Width: 1080
VWidth: 2982
Flags: W
HStem: 0 90<250 1012>
VStem: 62 968<90 367>
Fore
1012 0 m 1
 143 0 l 1
 250 508 l 1
 62 367 l 1
 90 485 l 1
 278 626 l 1
 461 1493 l 1
 551 1493 l 1
 383 707 l 1
 795 1014 l 1
 771 895 l 1
 359 589 l 1
 250 90 l 1
 1030 90 l 1
 1012 0 l 1
EndSplineSet
EndChar
StartChar: Oslash
Encoding: 151 216 137
Width: 1756
VWidth: 2982
Flags: W
HStem: -15 89<668.183 1132.62> 1417 89<942.455 1411.35>
VStem: 265 91<387.408 841.716> 1724 87<658.403 1102.97>
Fore
1811 906 m 0
 1811 432 1356 -15 875 -15 c 0
 741 -15 622 20 526 83 c 1
 356 -114 l 1
 291 -64 l 1
 461 132 l 1
 338 239 265 399 265 581 c 0
 265 1061 718 1506 1200 1506 c 0
 1343 1506 1466 1468 1567 1399 c 1
 1743 1605 l 1
 1809 1558 l 1
 1627 1350 l 1
 1741 1241 1811 1085 1811 906 c 0
895 74 m 0
 1309 74 1724 457 1724 884 c 0
 1724 1041 1664 1179 1563 1273 c 1
 591 158 l 1
 675 105 779 74 895 74 c 0
1182 1417 m 0
 763 1417 356 1030 356 607 c 0
 356 444 421 302 528 205 c 1
 1500 1325 l 1
 1412 1386 1305 1417 1182 1417 c 0
EndSplineSet
EndChar
StartChar: OE
Encoding: 193 338 138
Width: 1920
VWidth: 2982
Flags: W
HStem: -15 89<673.47 978.125> 0 90<1102 1862> 822 90<1273 1976> 1403 90<1379 2158> 1417 89<941.713 1283.76>
VStem: 265 91<384.582 840.891>
Fore
265 585 m 0xa4
 265 1061 718 1506 1200 1506 c 0xac
 1251 1506 1301 1502 1348 1493 c 1
 2176 1493 l 1
 2158 1403 l 1
 1379 1403 l 1
 1273 912 l 1
 1997 912 l 1
 1976 822 l 1
 1258 822 l 1
 1102 90 l 1
 1880 90 l 1
 1862 0 l 1
 1030 0 l 1x74
 980 -9 929 -15 878 -15 c 0
 513 -15 265 242 265 585 c 0xa4
1182 1417 m 0
 759 1417 356 1027 356 602 c 0
 356 302 575 74 895 74 c 0
 936 74 974 79 1012 83 c 1
 1294 1408 l 1
 1258 1414 1220 1417 1182 1417 c 0
EndSplineSet
EndChar
StartChar: ordmasculine
Encoding: 121 186 139
Width: 923
VWidth: 2982
Flags: W
HStem: 618 87<480.932 763.097> 1211 87<574.595 851.157>
VStem: 318 92<773.833 1053.45> 922 92<867.11 1140.37>
Fore
318 886 m 0
 318 1108 530 1298 739 1298 c 0
 902 1298 1014 1182 1014 1027 c 0
 1014 824 818 618 593 618 c 0
 430 618 318 732 318 886 c 0
720 1211 m 0
 566 1211 410 1068 410 902 c 0
 410 788 493 705 613 705 c 0
 761 705 922 844 922 1010 c 0
 922 1126 839 1211 720 1211 c 0
EndSplineSet
EndChar
StartChar: ae
Encoding: 165 230 140
Width: 1859
VWidth: 2982
Flags: W
HStem: -17 89<292.78 613.121> -15 94<1126.64 1459.58> 508 85<492.628 914 1030 1768> 942 90<535.886 841.528 1305.24 1624.09>
VStem: 150 92<122.914 261.297> 900 89<342 459.594> 1768 90<594.085 786.578>
Fore
1847 508 m 1xbe
 1000 508 l 1
 994 472 989 438 989 406 c 0
 989 215 1110 79 1285 79 c 0
 1417 79 1549 154 1643 278 c 1
 1713 233 l 1
 1600 87 1433 -15 1265 -15 c 0x7e
 1085 -15 961 96 914 258 c 1
 788 109 602 -17 416 -17 c 0
 224 -17 150 96 150 205 c 0
 150 226 152 244 156 262 c 0
 226 589 685 593 931 593 c 1
 938 624 940 654 940 683 c 0
 940 855 828 942 696 942 c 0
 604 942 497 895 408 797 c 1
 346 844 l 1
 461 974 596 1032 714 1032 c 0
 867 1032 998 938 1023 759 c 1
 1139 920 1314 1030 1491 1030 c 0
 1713 1030 1858 855 1858 628 c 0
 1858 604 1858 577 1854 553 c 2
 1847 508 l 1xbe
436 72 m 0xbe
 591 72 784 195 900 342 c 1
 900 369 l 0
 900 412 904 457 914 508 c 1
 696 504 297 502 246 262 c 0
 244 250 242 239 242 228 c 0
 242 152 295 72 436 72 c 0xbe
1030 593 m 1
 1768 593 l 1
 1768 609 l 2
 1768 801 1645 940 1471 940 c 0
 1296 940 1108 795 1030 593 c 1
EndSplineSet
EndChar
StartChar: lslash
Encoding: 192 322 141
Width: 373
VWidth: 2982
Flags: W
HStem: 0 21G<143 237.278>
VStem: 116 435<406 1493>
Fore
233 0 m 1
 143 0 l 1
 250 508 l 1
 116 406 l 1
 141 526 l 1
 278 626 l 1
 461 1493 l 1
 551 1493 l 1
 383 707 l 1
 517 808 l 1
 493 690 l 1
 359 589 l 1
 233 0 l 1
EndSplineSet
EndChar
StartChar: oslash
Encoding: 183 248 142
Width: 1284
VWidth: 2982
Flags: W
HStem: -15 87<575.994 854.971> 938 92<645.092 923.319>
VStem: 220 87<237.254 601.048> 1194 89<408.729 768.186>
Fore
220 396 m 0
 220 718 521 1030 859 1030 c 0
 936 1030 1003 1014 1063 985 c 1
 1166 1126 l 1
 1243 1081 l 1
 1137 938 l 1
 1229 865 1283 750 1283 618 c 0
 1283 299 983 -15 643 -15 c 0
 573 -15 510 -2 455 20 c 1
 359 -109 l 1
 286 -69 l 1
 383 62 l 1
 280 137 220 255 220 396 c 0
660 72 m 0
 918 72 1194 309 1194 596 c 0
 1194 703 1151 795 1077 857 c 1
 513 98 l 1
 557 81 607 72 660 72 c 0
842 938 m 0
 573 938 307 687 307 414 c 0
 307 297 356 199 440 137 c 1
 1003 902 l 1
 955 925 900 938 842 938 c 0
EndSplineSet
EndChar
StartChar: oe
Encoding: 194 339 143
Width: 2125
VWidth: 2982
Flags: W
HStem: -15 89<483.606 858.163 1411.68 1721.22> 504 89<1298 2037> 940 90<649.395 1024.04 1566.61 1895.91>
VStem: 220 92<242.125 605.092> 1196 64<403 596> 2037 88<594.085 786.578>
Fore
844 940 m 0
 581 940 312 696 312 416 c 0
 312 222 453 74 660 74 c 0
 927 74 1196 320 1196 596 c 0
 1196 792 1053 940 844 940 c 0
220 396 m 0
 220 726 530 1030 859 1030 c 0
 1070 1030 1224 904 1271 726 c 1
 1382 904 1567 1030 1755 1030 c 0
 1978 1030 2125 855 2125 628 c 0
 2125 604 2125 577 2119 553 c 2
 2113 504 l 1
 1271 504 l 1
 1265 468 1260 434 1260 403 c 0
 1260 213 1384 79 1555 79 c 0
 1688 79 1820 154 1916 278 c 1
 1984 233 l 1
 1871 87 1704 -15 1538 -15 c 0
 1345 -15 1211 109 1177 289 c 1
 1057 109 848 -15 638 -15 c 0
 389 -15 220 158 220 396 c 0
1298 593 m 1
 2037 593 l 1
 2037 609 l 2
 2037 801 1916 942 1741 942 c 0
 1565 942 1377 795 1298 593 c 1
EndSplineSet
EndChar
StartChar: germandbls
Encoding: 158 223 144
Width: 1132
VWidth: 2982
Flags: W
HStem: -17 71<469.644 793.013> 1578 88<729.95 1021.4>
VStem: 759 94<743.523 926.018> 1003 94<263.354 529.067> 1106 94<1204.02 1494.46>
Fore
759 824 m 0
 759 1047 1106 1079 1106 1356 c 0
 1106 1497 1003 1578 882 1578 c 0
 739 1578 568 1461 504 1166 c 2
 258 0 l 1
 168 0 l 1
 414 1164 l 2
 487 1506 712 1666 906 1666 c 0
 1066 1666 1200 1558 1200 1372 c 0
 1200 1045 853 989 853 839 c 0
 853 712 1097 628 1097 425 c 0
 1097 246 920 -17 628 -17 c 0
 528 -17 430 17 361 92 c 1
 427 132 l 1
 479 79 549 54 622 54 c 0
 850 54 1003 269 1003 410 c 0
 1003 585 759 651 759 824 c 0
EndSplineSet
EndChar
StartChar: logicalnot
Encoding: 107 172 145
Width: 1393
VWidth: 2982
Flags: W
HStem: 822 90<316 1359>
Fore
1468 912 m 1
 1350 359 l 1
 1260 359 l 1
 1359 822 l 1
 297 822 l 1
 316 912 l 1
 1468 912 l 1
EndSplineSet
EndChar
StartChar: trademark
Encoding: 314 8482 146
Width: 1713
VWidth: 2982
Flags: W
HStem: 1414 79<461 656 734 944>
VStem: 1654 76<745 1009.7> 1666 80<1213.78 1262>
Fore
963 1493 m 1x80
 944 1414 l 1
 734 1414 l 1
 591 745 l 1
 515 745 l 1
 656 1414 l 1
 444 1414 l 1
 461 1493 l 1
 963 1493 l 1x80
1666 1262 m 1xa0
 1285 728 l 1
 1147 1265 l 1
 936 750 l 1
 855 750 l 1
 1168 1511 l 1
 1327 906 l 1
 1746 1506 l 1xa0
 1730 745 l 1
 1654 745 l 1xc0
 1666 1262 l 1xa0
EndSplineSet
EndChar
StartChar: Eth
Encoding: 143 208 147
Width: 1346
VWidth: 2982
Flags: W
HStem: 0 90<275 737.425> 701 89<177 316 425 848> 1403 90<555 993.27>
VStem: 1312 91<650.962 1101.59>
Fore
487 90 m 2
 906 90 1312 461 1312 884 c 0
 1312 1186 1090 1403 767 1403 c 2
 555 1403 l 1
 425 790 l 1
 867 790 l 1
 848 701 l 1
 406 701 l 1
 275 90 l 1
 487 90 l 2
1403 904 m 0
 1403 440 963 0 468 0 c 2
 168 0 l 1
 316 701 l 1
 158 701 l 1
 177 790 l 1
 336 790 l 1
 483 1493 l 1
 786 1493 l 2
 1151 1493 1403 1245 1403 904 c 0
EndSplineSet
EndChar
StartChar: onehalf
Encoding: 124 189 148
Width: 1848
VWidth: 2982
Flags: W
HStem: 0 90<1191 1690> 920 90<1478.67 1714.98>
VStem: 1768 99<608.833 864.434>
Fore
1867 759 m 0
 1867 389 1305 349 1191 90 c 1
 1708 90 l 1
 1690 0 l 1
 1072 0 l 1
 1081 43 l 2
 1160 410 1768 425 1768 737 c 0
 1768 844 1701 920 1607 920 c 0
 1497 920 1379 818 1352 683 c 1
 1262 683 l 1
 1298 859 1461 1010 1630 1010 c 0
 1771 1010 1867 900 1867 759 c 0
1647 1493 m 1
 1760 1493 l 1
 383 0 l 1
 271 0 l 1
 1647 1493 l 1
412 504 m 1
 589 1337 l 1
 455 1256 l 1
 421 1332 l 1
 714 1506 l 1
 502 504 l 1
 412 504 l 1
EndSplineSet
LCarets2: 2 0 0 
Ligature2: "'frac' Diagonal Fractions in Latin lookup 42" one fraction two
Ligature2: "'frac' Diagonal Fractions in Latin lookup 42" one slash two
EndChar
StartChar: plusminus
Encoding: 112 177 149
Width: 1036
VWidth: 2982
Flags: W
HStem: 0 90<141 916> 701 89<291 624 732 1066>
VStem: 124 959<0 790>
Fore
936 90 m 1
 916 0 l 1
 124 0 l 1
 141 90 l 1
 936 90 l 1
638 349 m 1
 549 349 l 1
 624 701 l 1
 271 701 l 1
 291 790 l 1
 643 790 l 1
 718 1144 l 1
 808 1144 l 1
 732 790 l 1
 1083 790 l 1
 1066 701 l 1
 714 701 l 1
 638 349 l 1
EndSplineSet
EndChar
StartChar: Thorn
Encoding: 157 222 150
Width: 1134
VWidth: 2982
Flags: W
HStem: 0 21G<168 262.144> 316 94<412.707 799.43> 1083 88<579.211 926.577>
VStem: 1088 94<650.039 948.741>
Fore
538 410 m 0
 949 410 1088 651 1088 812 c 0
 1088 985 931 1083 681 1083 c 0
 622 1083 555 1077 483 1066 c 1
 346 427 l 1
 414 414 477 410 538 410 c 0
1182 828 m 0
 1182 602 983 316 517 316 c 0
 455 316 391 322 327 333 c 1
 258 0 l 1
 168 0 l 1
 483 1493 l 1
 573 1493 l 1
 502 1153 l 1
 571 1164 636 1171 698 1171 c 0
 1006 1171 1182 1038 1182 828 c 0
EndSplineSet
EndChar
StartChar: onequarter
Encoding: 123 188 151
Width: 1848
VWidth: 2982
Flags: W
HStem: 0 21G<365 492.459 1471 1564.47> 161 91<1139 1506 1612 1706>
Fore
1741 1493 m 1
 1852 1493 l 1
 474 0 l 1
 365 0 l 1
 1741 1493 l 1
1525 252 m 1
 1634 761 l 1
 1139 252 l 1
 1525 252 l 1
412 504 m 1
 589 1337 l 1
 455 1256 l 1
 421 1332 l 1
 714 1506 l 1
 502 504 l 1
 412 504 l 1
1506 161 m 1
 938 161 l 1
 1775 1023 l 1
 1612 252 l 1
 1755 252 l 1
 1706 161 l 1
 1596 161 l 1
 1560 0 l 1
 1471 0 l 1
 1506 161 l 1
EndSplineSet
LCarets2: 2 0 0 
Ligature2: "'frac' Diagonal Fractions in Latin lookup 42" one fraction four
Ligature2: "'frac' Diagonal Fractions in Latin lookup 42" one slash four
EndChar
StartChar: divide
Encoding: 182 247 152
Width: 1078
VWidth: 2982
Flags: W
HStem: 385 168<575.033 706.529> 701 89<312 1085> 940 168<691 824.823>
VStem: 553 173<405.526 530.715> 671 173<959.706 1086.43>
Fore
553 453 m 0xf0
 553 500 604 553 658 553 c 0
 698 553 726 521 726 483 c 0
 726 425 667 385 622 385 c 0
 581 385 553 414 553 453 c 0xf0
671 1008 m 0xe8
 671 1066 730 1108 775 1108 c 0
 814 1108 844 1077 844 1038 c 0
 844 980 786 940 741 940 c 0
 701 940 671 969 671 1008 c 0xe8
1106 790 m 1
 1085 701 l 1
 293 701 l 1
 312 790 l 1
 1106 790 l 1
EndSplineSet
EndChar
StartChar: brokenbar
Encoding: 101 166 153
Width: 422
VWidth: 2982
Flags: W
VStem: 58 521<-508 1523>
Fore
410 716 m 1
 320 716 l 1
 491 1523 l 1
 579 1523 l 1
 410 716 l 1
148 -508 m 1
 58 -508 l 1
 231 297 l 1
 320 297 l 1
 148 -508 l 1
EndSplineSet
EndChar
StartChar: degree
Encoding: 111 176 154
Width: 749
VWidth: 2982
Flags: W
HStem: 1211 94<553.692 771.432> 1627 92<601.28 822.586>
VStem: 427 97<1334.25 1549.68> 853 94<1384.7 1596.09>
Fore
427 1410 m 0
 427 1565 575 1719 741 1719 c 0
 865 1719 947 1634 947 1520 c 0
 947 1374 808 1211 634 1211 c 0
 510 1211 427 1296 427 1410 c 0
720 1627 m 0
 626 1627 524 1540 524 1433 c 0
 524 1359 575 1305 654 1305 c 0
 754 1305 853 1397 853 1502 c 0
 853 1574 799 1627 720 1627 c 0
EndSplineSet
EndChar
StartChar: thorn
Encoding: 189 254 155
Width: 1232
VWidth: 2982
Flags: W
HStem: -15 94<495.365 826.371> 942 88<662.117 993.589>
VStem: 1139 94<408.575 793.304>
Fore
1233 624 m 0
 1233 312 953 -15 636 -15 c 0
 477 -15 359 72 299 199 c 1
 148 -508 l 1
 58 -508 l 1
 483 1493 l 1
 573 1493 l 1
 430 814 l 1
 544 942 698 1030 857 1030 c 0
 1085 1030 1233 853 1233 624 c 0
651 79 m 0
 895 79 1139 333 1139 611 c 0
 1139 803 1016 942 837 942 c 0
 640 942 434 771 372 544 c 2
 359 477 l 2
 354 453 354 430 354 408 c 0
 354 218 474 79 651 79 c 0
EndSplineSet
EndChar
StartChar: threequarters
Encoding: 125 190 156
Width: 1848
VWidth: 2982
Flags: W
HStem: 0 21G<483 611.446 1531 1625.39> 164 88<1200 1567 1672 1766> 485 88<417.541 684.632> 1027 90<658 761.821> 1417 89<602.175 824.888>
VStem: 269 92<629.04 798.131> 822 86<711.379 967.53> 853 85<1181.9 1387.11>
Fore
908 861 m 0xfe
 908 673 720 485 521 485 c 0
 372 485 269 591 269 732 c 0
 269 754 271 777 275 799 c 1
 365 799 l 1
 361 784 361 765 361 750 c 0
 361 649 432 573 542 573 c 0
 696 573 822 716 822 846 c 0xfe
 822 949 748 1027 638 1027 c 1
 658 1117 l 1
 756 1117 853 1188 853 1292 c 0
 853 1363 801 1417 724 1417 c 0
 634 1417 546 1345 528 1260 c 1
 438 1260 l 1
 468 1397 600 1506 739 1506 c 0
 857 1506 938 1424 938 1312 c 0xfd
 938 1215 882 1124 797 1072 c 1
 867 1027 908 951 908 861 c 0xfe
1860 1493 m 1
 1970 1493 l 1
 593 0 l 1
 483 0 l 1
 1860 1493 l 1
1585 252 m 1
 1692 761 l 1
 1200 252 l 1
 1585 252 l 1
1567 164 m 1
 998 164 l 1
 1835 1027 l 1
 1672 252 l 1
 1815 252 l 1
 1766 164 l 1
 1657 164 l 1
 1621 0 l 1
 1531 0 l 1
 1567 164 l 1
EndSplineSet
LCarets2: 2 0 0 
Ligature2: "'frac' Diagonal Fractions in Latin lookup 42" three fraction four
Ligature2: "'frac' Diagonal Fractions in Latin lookup 42" three slash four
EndChar
StartChar: registered
Encoding: 109 174 157
Width: 1758
VWidth: 2982
Flags: W
HStem: -15 89<673.47 1135.29> 692 89<891 1061> 1090 89<955 1260.85> 1417 89<941.713 1404.79>
VStem: 265 91<384.582 840.891> 1288 89<853.662 1063.01> 1724 91<649.325 1105.75>
Fore
1377 985 m 0
 1377 875 1292 743 1160 705 c 1
 1290 314 l 1
 1186 314 l 1
 1061 692 l 1
 873 692 l 1
 792 314 l 1
 703 314 l 1
 886 1179 l 1
 1188 1179 l 2
 1301 1179 1377 1094 1377 985 c 0
1182 1417 m 0
 759 1417 356 1027 356 602 c 0
 356 302 575 74 895 74 c 0
 1312 74 1724 457 1724 886 c 0
 1724 1191 1504 1417 1182 1417 c 0
265 585 m 0
 265 1061 718 1506 1200 1506 c 0
 1565 1506 1815 1249 1815 904 c 0
 1815 440 1370 -15 878 -15 c 0
 513 -15 265 242 265 585 c 0
1106 781 m 2
 1202 781 1288 878 1288 967 c 0
 1288 1038 1238 1090 1168 1090 c 2
 955 1090 l 1
 891 781 l 1
 1106 781 l 2
EndSplineSet
EndChar
StartChar: eth
Encoding: 175 240 158
Width: 1282
VWidth: 2982
Flags: W
HStem: -15 87<475.378 850.086> 938 92<645.684 1020.18>
VStem: 220 85<240.822 602.819> 1188 100<428.541 768.924>
Fore
1288 683 m 0
 1288 212 905 -15 638 -15 c 0
 389 -15 220 158 220 396 c 0
 220 726 530 1030 859 1030 c 0
 980 1030 1081 991 1155 922 c 1
 1108 1068 1023 1200 914 1305 c 1
 557 1117 l 1
 528 1194 l 1
 848 1363 l 1
 763 1433 667 1486 571 1520 c 1
 615 1605 l 1
 730 1567 842 1502 940 1414 c 1
 1296 1602 l 1
 1323 1525 l 1
 1000 1354 l 1
 1168 1186 1288 951 1288 683 c 0
654 72 m 0
 916 72 1188 312 1188 598 c 0
 1188 804 1034 938 837 938 c 0
 573 938 305 690 305 412 c 0
 305 220 446 72 654 72 c 0
EndSplineSet
EndChar
StartChar: multiply
Encoding: 150 215 159
Width: 1066
VWidth: 2982
Flags: W
HStem: 349 795<316 1070>
Fore
1070 349 m 1
 942 349 l 1
 683 681 l 1
 286 349 l 1
 161 349 l 1
 634 743 l 1
 316 1144 l 1
 444 1144 l 1
 709 806 l 1
 1113 1144 l 1
 1238 1144 l 1
 759 743 l 1
 1070 349 l 1
EndSplineSet
EndChar
StartChar: copyright
Encoding: 104 169 160
Width: 1758
VWidth: 2982
Flags: W
HStem: -15 89<673.47 1135.29> 312 89<831.127 1116.7> 1085 90<955.768 1242.75> 1417 89<941.713 1404.79>
VStem: 265 91<384.582 840.891> 640 92<501.635 839.435> 1724 91<649.325 1105.75>
Fore
265 585 m 0
 265 1061 718 1506 1200 1506 c 0
 1565 1506 1815 1249 1815 904 c 0
 1815 440 1370 -15 878 -15 c 0
 513 -15 265 242 265 585 c 0
1182 1417 m 0
 759 1417 356 1027 356 602 c 0
 356 302 575 74 895 74 c 0
 1312 74 1724 457 1724 886 c 0
 1724 1191 1504 1417 1182 1417 c 0
1108 1085 m 0
 922 1085 732 884 732 658 c 0
 732 508 828 401 963 401 c 0
 1068 401 1173 463 1247 562 c 1
 1316 517 l 1
 1224 393 1083 312 942 312 c 0
 759 312 640 453 640 640 c 0
 640 916 878 1175 1128 1175 c 0
 1267 1175 1372 1092 1412 969 c 1
 1325 925 l 1
 1292 1023 1213 1085 1108 1085 c 0
EndSplineSet
EndChar
StartChar: Aacute
Encoding: 128 193 161
Width: 1322
VWidth: 2982
Flags: W
HStem: 0 21G<36 144.484 1190.03 1290> 463 90<481 1083>
Fore
1200 1878 m 1
 1370 1878 l 1
 1012 1612 l 1
 918 1612 l 1
 1200 1878 l 1
481 553 m 1
 1083 553 l 1
 938 1278 l 1
 481 553 l 1
1102 463 m 1
 421 463 l 1
 132 0 l 1
 36 0 l 1
 983 1511 l 1
 1290 0 l 1
 1194 0 l 1
 1102 463 l 1
EndSplineSet
EndChar
StartChar: Acircumflex
Encoding: 129 194 162
Width: 1322
VWidth: 2982
Flags: W
HStem: 0 21G<36 144.484 1190.03 1290> 463 90<481 1083>
Fore
1032 1878 m 1
 1097 1878 l 1
 1283 1612 l 1
 1160 1612 l 1
 1043 1775 l 1
 855 1612 l 1
 734 1612 l 1
 1032 1878 l 1
481 553 m 1
 1083 553 l 1
 938 1278 l 1
 481 553 l 1
1102 463 m 1
 421 463 l 1
 132 0 l 1
 36 0 l 1
 983 1511 l 1
 1290 0 l 1
 1194 0 l 1
 1102 463 l 1
EndSplineSet
EndChar
StartChar: Adieresis
Encoding: 131 196 163
Width: 1322
VWidth: 2982
Flags: W
HStem: 0 21G<36 144.484 1190.03 1290> 463 90<481 1083> 1612 167<780.616 911.295 1139 1270.81>
VStem: 761 172<1633.56 1757.7> 1119 173<1633.56 1758.53>
Fore
761 1679 m 0
 761 1737 820 1779 865 1779 c 0
 904 1779 933 1748 933 1711 c 0
 933 1668 886 1612 828 1612 c 0
 788 1612 761 1641 761 1679 c 0
1119 1679 m 0
 1119 1737 1177 1779 1222 1779 c 0
 1262 1779 1292 1748 1292 1711 c 0
 1292 1668 1245 1612 1186 1612 c 0
 1147 1612 1119 1641 1119 1679 c 0
481 553 m 1
 1083 553 l 1
 938 1278 l 1
 481 553 l 1
1102 463 m 1
 421 463 l 1
 132 0 l 1
 36 0 l 1
 983 1511 l 1
 1290 0 l 1
 1194 0 l 1
 1102 463 l 1
EndSplineSet
EndChar
StartChar: Agrave
Encoding: 127 192 164
Width: 1322
VWidth: 2982
Flags: W
HStem: 0 21G<36 144.484 1190.03 1290> 463 90<481 1083>
Fore
763 1878 m 1
 933 1878 l 1
 1102 1612 l 1
 1008 1612 l 1
 763 1878 l 1
481 553 m 1
 1083 553 l 1
 938 1278 l 1
 481 553 l 1
1102 463 m 1
 421 463 l 1
 132 0 l 1
 36 0 l 1
 983 1511 l 1
 1290 0 l 1
 1194 0 l 1
 1102 463 l 1
EndSplineSet
EndChar
StartChar: Aring
Encoding: 132 197 165
Width: 1322
VWidth: 2982
Flags: W
HStem: 0 21G<36 144.484 1190.03 1290> 463 90<481 1083> 1596 89<934.259 1122.47> 1937 88<968.711 1154.73>
VStem: 826 92<1700.67 1886.25> 1173 92<1737.86 1920.09>
Fore
826 1764 m 0
 826 1905 955 2025 1090 2025 c 0
 1194 2025 1265 1954 1265 1856 c 0
 1265 1726 1139 1596 998 1596 c 0
 895 1596 826 1668 826 1764 c 0
1072 1937 m 0
 994 1937 918 1865 918 1784 c 0
 918 1728 959 1685 1019 1685 c 0
 1104 1685 1173 1768 1173 1835 c 0
 1173 1894 1130 1937 1072 1937 c 0
481 553 m 1
 1083 553 l 1
 938 1278 l 1
 481 553 l 1
1102 463 m 1
 421 463 l 1
 132 0 l 1
 36 0 l 1
 983 1511 l 1
 1290 0 l 1
 1194 0 l 1
 1102 463 l 1
EndSplineSet
EndChar
StartChar: Atilde
Encoding: 130 195 166
Width: 1322
VWidth: 2982
Flags: W
HStem: 0 21G<36 144.484 1190.03 1290> 463 90<481 1083> 1596 89<1058.72 1187.29> 1704 89<842.327 985.787>
Fore
801 1612 m 1
 745 1612 l 1
 763 1685 799 1793 914 1793 c 0
 1021 1793 1081 1685 1147 1685 c 0
 1157 1685 1211 1699 1229 1779 c 1
 1290 1779 l 1
 1260 1645 1200 1596 1124 1596 c 0
 1030 1596 963 1704 891 1704 c 0
 867 1704 822 1690 801 1612 c 1
481 553 m 1
 1083 553 l 1
 938 1278 l 1
 481 553 l 1
1102 463 m 1
 421 463 l 1
 132 0 l 1
 36 0 l 1
 983 1511 l 1
 1290 0 l 1
 1194 0 l 1
 1102 463 l 1
EndSplineSet
EndChar
StartChar: Ccedilla
Encoding: 134 199 167
Width: 1613
VWidth: 2982
Flags: W
HStem: -396 89<702.345 861.187> -11 85<895 1137.37> 1417 94<941.135 1408.57>
VStem: 265 91<383.107 841.452> 871 94<-292.055 -184.591>
Fore
1182 1417 m 0
 759 1417 356 1027 356 602 c 0
 356 302 575 74 895 74 c 0
 1117 74 1335 181 1491 346 c 1
 1555 295 l 1
 1386 119 1155 0 920 -11 c 1
 855 -92 l 1
 947 -109 965 -158 965 -199 c 0
 965 -322 850 -396 743 -396 c 0
 692 -396 640 -383 598 -349 c 1
 660 -275 l 1
 692 -297 728 -307 761 -307 c 0
 820 -307 871 -278 871 -233 c 0
 871 -197 826 -179 779 -171 c 2
 714 -161 l 1
 837 -9 l 1
 495 9 265 258 265 589 c 0
 265 1057 712 1511 1202 1511 c 0
 1453 1511 1647 1388 1743 1200 c 1
 1661 1147 l 1
 1574 1309 1403 1417 1182 1417 c 0
EndSplineSet
EndChar
StartChar: Eacute
Encoding: 136 201 168
Width: 1094
VWidth: 2982
Flags: W
HStem: 0 90<275 1032> 822 90<450 1149> 1403 90<555 1335>
Fore
1220 1878 m 1
 861 1612 l 1
 771 1612 l 1
 1050 1878 l 1
 1220 1878 l 1
1166 912 m 1
 1149 822 l 1
 432 822 l 1
 275 90 l 1
 1053 90 l 1
 1032 0 l 1
 168 0 l 1
 483 1493 l 1
 1352 1493 l 1
 1335 1403 l 1
 555 1403 l 1
 450 912 l 1
 1166 912 l 1
EndSplineSet
EndChar
StartChar: Ecircumflex
Encoding: 137 202 169
Width: 1094
VWidth: 2982
Flags: W
HStem: 0 90<275 1032> 822 90<450 1149> 1403 90<555 1335>
Fore
1059 1612 m 1
 938 1775 l 1
 752 1612 l 1
 628 1612 l 1
 927 1878 l 1
 996 1878 l 1
 1182 1612 l 1
 1059 1612 l 1
1166 912 m 1
 1149 822 l 1
 432 822 l 1
 275 90 l 1
 1053 90 l 1
 1032 0 l 1
 168 0 l 1
 483 1493 l 1
 1352 1493 l 1
 1335 1403 l 1
 555 1403 l 1
 450 912 l 1
 1166 912 l 1
EndSplineSet
EndChar
StartChar: Edieresis
Encoding: 138 203 170
Width: 1094
VWidth: 2982
Flags: W
HStem: 0 90<275 1032> 822 90<450 1149> 1403 90<555 1335> 1612 167<678.033 809.118 1036.33 1166.77>
VStem: 656 172<1631.78 1756.5> 1014 172<1632.39 1756.5>
Fore
656 1679 m 0
 656 1726 707 1779 761 1779 c 0
 801 1779 828 1748 828 1711 c 0
 828 1652 771 1612 726 1612 c 0
 685 1612 656 1641 656 1679 c 0
1014 1679 m 0
 1014 1726 1066 1779 1119 1779 c 0
 1160 1779 1186 1748 1186 1711 c 0
 1186 1652 1128 1612 1083 1612 c 0
 1043 1612 1014 1641 1014 1679 c 0
1166 912 m 1
 1149 822 l 1
 432 822 l 1
 275 90 l 1
 1053 90 l 1
 1032 0 l 1
 168 0 l 1
 483 1493 l 1
 1352 1493 l 1
 1335 1403 l 1
 555 1403 l 1
 450 912 l 1
 1166 912 l 1
EndSplineSet
EndChar
StartChar: Egrave
Encoding: 135 200 171
Width: 1094
VWidth: 2982
Flags: W
HStem: 0 90<275 1032> 822 90<450 1149> 1403 90<555 1335>
Fore
701 1878 m 1
 871 1878 l 1
 1038 1612 l 1
 944 1612 l 1
 701 1878 l 1
1166 912 m 1
 1149 822 l 1
 432 822 l 1
 275 90 l 1
 1053 90 l 1
 1032 0 l 1
 168 0 l 1
 483 1493 l 1
 1352 1493 l 1
 1335 1403 l 1
 555 1403 l 1
 450 912 l 1
 1166 912 l 1
EndSplineSet
EndChar
StartChar: Iacute
Encoding: 140 205 172
Width: 422
VWidth: 2982
Flags: W
HStem: 0 21G<168 262.22>
VStem: 168 746<0 1878>
Fore
914 1878 m 1
 555 1612 l 1
 461 1612 l 1
 743 1878 l 1
 914 1878 l 1
258 0 m 1
 168 0 l 1
 483 1493 l 1
 573 1493 l 1
 258 0 l 1
EndSplineSet
EndChar
StartChar: Icircumflex
Encoding: 141 206 173
Width: 422
VWidth: 2982
Flags: W
HStem: 0 21G<168 262.22>
VStem: 168 660<0 1612>
Fore
707 1612 m 1
 587 1775 l 1
 399 1612 l 1
 278 1612 l 1
 575 1878 l 1
 645 1878 l 1
 828 1612 l 1
 707 1612 l 1
258 0 m 1
 168 0 l 1
 483 1493 l 1
 573 1493 l 1
 258 0 l 1
EndSplineSet
EndChar
StartChar: Idieresis
Encoding: 142 207 174
Width: 422
VWidth: 2982
Flags: W
HStem: 0 21G<168 262.22> 1612 167<324.23 456.143 682.14 814.143>
VStem: 305 172<1633.56 1758.53> 662 173<1633.56 1758.53>
Fore
305 1679 m 0
 305 1737 363 1779 408 1779 c 0
 448 1779 477 1748 477 1711 c 0
 477 1668 430 1612 372 1612 c 0
 331 1612 305 1641 305 1679 c 0
662 1679 m 0
 662 1737 720 1779 765 1779 c 0
 806 1779 835 1748 835 1711 c 0
 835 1668 788 1612 730 1612 c 0
 690 1612 662 1641 662 1679 c 0
258 0 m 1
 168 0 l 1
 483 1493 l 1
 573 1493 l 1
 258 0 l 1
EndSplineSet
EndChar
StartChar: Igrave
Encoding: 139 204 175
Width: 422
VWidth: 2982
Flags: W
HStem: 0 21G<168 262.22>
VStem: 168 479<0 1612>
Fore
309 1878 m 1
 479 1878 l 1
 647 1612 l 1
 555 1612 l 1
 309 1878 l 1
258 0 m 5
 168 0 l 5
 483 1493 l 5
 573 1493 l 5
 258 0 l 5
EndSplineSet
EndChar
StartChar: Ntilde
Encoding: 144 209 176
Width: 1678
VWidth: 2982
Flags: W
HStem: 0 21G<168 262.211> 1596 89<1237.52 1366.32> 1704 89<1020.88 1164.36>
Fore
922 1612 m 1
 925 1612 l 1
 942 1685 978 1793 1092 1793 c 0
 1200 1793 1260 1685 1325 1685 c 0
 1337 1685 1390 1699 1408 1779 c 1
 1468 1779 l 1
 1439 1645 1379 1596 1303 1596 c 0
 1209 1596 1141 1704 1070 1704 c 0
 1045 1704 1000 1690 980 1612 c 1
 922 1612 l 1
168 0 m 1
 487 1513 l 1
 1466 199 l 1
 1741 1493 l 1
 1831 1493 l 1
 1508 -20 l 1
 530 1292 l 1
 258 0 l 1
 168 0 l 1
EndSplineSet
EndChar
StartChar: Oacute
Encoding: 146 211 177
Width: 1758
VWidth: 2982
Flags: W
HStem: -15 89<673.47 1135.29> 1417 89<941.713 1404.79>
VStem: 265 91<384.582 840.891> 1724 91<649.325 1105.75>
Fore
1641 1878 m 1
 1283 1612 l 1
 1191 1612 l 1
 1471 1878 l 1
 1641 1878 l 1
265 585 m 0
 265 1061 718 1506 1200 1506 c 0
 1565 1506 1815 1249 1815 904 c 0
 1815 440 1370 -15 878 -15 c 0
 513 -15 265 242 265 585 c 0
1182 1417 m 0
 759 1417 356 1027 356 602 c 0
 356 302 575 74 895 74 c 0
 1312 74 1724 457 1724 886 c 0
 1724 1191 1504 1417 1182 1417 c 0
EndSplineSet
EndChar
StartChar: Ocircumflex
Encoding: 147 212 178
Width: 1758
VWidth: 2982
Flags: W
HStem: -15 89<673.47 1135.29> 1417 89<941.713 1404.79>
VStem: 265 91<384.582 840.891> 1724 91<649.325 1105.75>
Fore
1379 1612 m 1
 1258 1775 l 1
 1070 1612 l 1
 949 1612 l 1
 1247 1878 l 1
 1316 1878 l 1
 1500 1612 l 1
 1379 1612 l 1
265 585 m 0
 265 1061 718 1506 1200 1506 c 0
 1565 1506 1815 1249 1815 904 c 0
 1815 440 1370 -15 878 -15 c 0
 513 -15 265 242 265 585 c 0
1182 1417 m 0
 759 1417 356 1027 356 602 c 0
 356 302 575 74 895 74 c 0
 1312 74 1724 457 1724 886 c 0
 1724 1191 1504 1417 1182 1417 c 0
EndSplineSet
EndChar
StartChar: Odieresis
Encoding: 149 214 179
Width: 1758
VWidth: 2982
Flags: W
HStem: -15 89<673.47 1135.29> 1417 89<941.713 1404.79> 1612 167<995.616 1127.81 1354.09 1484.54>
VStem: 265 91<384.582 840.891> 976 173<1633.56 1758.53> 1335 171<1633.56 1758.53> 1724 91<649.325 1105.75>
Fore
976 1679 m 0
 976 1737 1034 1779 1079 1779 c 0
 1119 1779 1149 1748 1149 1711 c 0
 1149 1668 1102 1612 1043 1612 c 0
 1003 1612 976 1641 976 1679 c 0
1335 1679 m 0
 1335 1737 1392 1779 1437 1779 c 0
 1478 1779 1506 1748 1506 1711 c 0
 1506 1668 1459 1612 1401 1612 c 0
 1361 1612 1335 1641 1335 1679 c 0
265 585 m 0
 265 1061 718 1506 1200 1506 c 0
 1565 1506 1815 1249 1815 904 c 0
 1815 440 1370 -15 878 -15 c 0
 513 -15 265 242 265 585 c 0
1182 1417 m 0
 759 1417 356 1027 356 602 c 0
 356 302 575 74 895 74 c 0
 1312 74 1724 457 1724 886 c 0
 1724 1191 1504 1417 1182 1417 c 0
EndSplineSet
EndChar
StartChar: Ograve
Encoding: 145 210 180
Width: 1758
VWidth: 2982
Flags: W
HStem: -15 89<673.47 1135.29> 1417 89<941.713 1404.79>
VStem: 265 91<384.582 840.891> 1724 91<649.325 1105.75>
Fore
265 585 m 0
 265 1061 718 1506 1200 1506 c 0
 1565 1506 1815 1249 1815 904 c 0
 1815 440 1370 -15 878 -15 c 0
 513 -15 265 242 265 585 c 0
1182 1417 m 0
 759 1417 356 1027 356 602 c 0
 356 302 575 74 895 74 c 0
 1312 74 1724 457 1724 886 c 0
 1724 1191 1504 1417 1182 1417 c 0
895 1878 m 1
 1066 1878 l 1
 1231 1612 l 1
 1139 1612 l 1
 895 1878 l 1
EndSplineSet
EndChar
StartChar: Otilde
Encoding: 148 213 181
Width: 1758
VWidth: 2982
Flags: W
HStem: -15 89<673.47 1135.29> 1417 89<941.713 1404.79> 1596 89<1282.52 1411.32> 1704 89<1065.86 1209.36>
VStem: 265 91<384.582 840.891> 1724 91<649.325 1105.75>
Fore
1025 1612 m 1
 969 1612 l 1
 987 1685 1023 1793 1137 1793 c 0
 1245 1793 1305 1685 1370 1685 c 0
 1382 1685 1435 1699 1453 1779 c 1
 1513 1779 l 1
 1484 1645 1424 1596 1348 1596 c 0
 1254 1596 1186 1704 1115 1704 c 0
 1090 1704 1045 1690 1025 1612 c 1
265 585 m 0
 265 1061 718 1506 1200 1506 c 0
 1565 1506 1815 1249 1815 904 c 0
 1815 440 1370 -15 878 -15 c 0
 513 -15 265 242 265 585 c 0
1182 1417 m 0
 759 1417 356 1027 356 602 c 0
 356 302 575 74 895 74 c 0
 1312 74 1724 457 1724 886 c 0
 1724 1191 1504 1417 1182 1417 c 0
EndSplineSet
EndChar
StartChar: Scaron
Encoding: 195 352 182
Width: 1076
VWidth: 2982
Flags: W
HStem: -20 92<381.871 742.102> 1200 21G<1075.5 1147.07> 1417 94<682.258 987.243>
VStem: 158 92<202.829 421.293> 430 89<1009.12 1257.11> 1014 92<329.33 622.018> 1085 90<1217.18 1349.54>
Fore
904 1583 m 1xf8
 837 1583 l 1
 651 1847 l 1
 775 1847 l 1
 891 1683 l 1
 1079 1847 l 1
 1202 1847 l 1
 904 1583 l 1xf8
430 1094 m 0
 430 1288 607 1511 857 1511 c 0
 1010 1511 1151 1414 1175 1229 c 1
 1085 1200 l 1xfa
 1066 1350 959 1417 839 1417 c 0
 647 1417 519 1245 519 1115 c 0
 519 842 1106 884 1106 515 c 0
 1106 246 839 -20 530 -20 c 0
 333 -20 158 98 158 367 c 0
 158 385 158 403 161 421 c 1
 252 432 l 1
 252 419 250 403 250 389 c 0
 250 166 387 72 549 72 c 0
 797 72 1014 280 1014 495 c 0xfc
 1014 818 430 765 430 1094 c 0
EndSplineSet
EndChar
StartChar: Uacute
Encoding: 153 218 183
Width: 1393
VWidth: 2982
Flags: W
HStem: -15 89<543.917 902.262>
VStem: 273 92<261.73 519.173>
Fore
1273 1878 m 1
 1444 1878 l 1
 1085 1612 l 1
 994 1612 l 1
 1273 1878 l 1
483 1493 m 1
 573 1493 l 1
 378 566 l 2
 369 526 365 487 365 453 c 0
 365 231 513 74 716 74 c 0
 955 74 1202 289 1260 566 c 2
 1457 1493 l 1
 1547 1493 l 1
 1350 566 l 2
 1283 248 991 -15 696 -15 c 0
 444 -15 273 177 273 432 c 0
 273 477 280 521 289 566 c 2
 483 1493 l 1
EndSplineSet
EndChar
StartChar: Ucircumflex
Encoding: 154 219 184
Width: 1393
VWidth: 2982
Flags: W
HStem: -15 89<543.917 902.262>
VStem: 273 92<261.73 519.173>
Fore
1316 1612 m 1
 1191 1612 l 1
 1072 1775 l 1
 886 1612 l 1
 763 1612 l 1
 1061 1878 l 1
 1130 1878 l 1
 1316 1612 l 1
483 1493 m 1
 573 1493 l 1
 378 566 l 2
 369 526 365 487 365 453 c 0
 365 231 513 74 716 74 c 0
 955 74 1202 289 1260 566 c 2
 1457 1493 l 1
 1547 1493 l 1
 1350 566 l 2
 1283 248 991 -15 696 -15 c 0
 444 -15 273 177 273 432 c 0
 273 477 280 521 289 566 c 2
 483 1493 l 1
EndSplineSet
EndChar
StartChar: Udieresis
Encoding: 155 220 185
Width: 1393
VWidth: 2982
Flags: W
HStem: -15 89<543.917 902.262> 1612 167<816.405 943.959 1174.56 1302.28>
VStem: 273 92<261.73 519.173> 795 170<1633.26 1757.76> 1153 170<1632.55 1756.82>
Fore
795 1677 m 0
 795 1730 848 1779 897 1779 c 0
 936 1779 965 1751 965 1713 c 0
 965 1654 906 1612 861 1612 c 0
 824 1612 795 1641 795 1677 c 0
1153 1677 m 0
 1153 1730 1207 1779 1256 1779 c 0
 1294 1779 1323 1751 1323 1713 c 0
 1323 1654 1265 1612 1220 1612 c 0
 1182 1612 1153 1641 1153 1677 c 0
483 1493 m 1
 573 1493 l 1
 378 566 l 2
 369 526 365 487 365 453 c 0
 365 231 513 74 716 74 c 0
 955 74 1202 289 1260 566 c 2
 1457 1493 l 1
 1547 1493 l 1
 1350 566 l 2
 1283 248 991 -15 696 -15 c 0
 444 -15 273 177 273 432 c 0
 273 477 280 521 289 566 c 2
 483 1493 l 1
EndSplineSet
EndChar
StartChar: Ugrave
Encoding: 152 217 186
Width: 1393
VWidth: 2982
Flags: W
HStem: -15 89<543.917 902.262>
VStem: 273 92<261.73 519.173>
Fore
752 1878 m 1
 922 1878 l 1
 1088 1612 l 1
 996 1612 l 1
 752 1878 l 1
483 1493 m 1
 573 1493 l 1
 378 566 l 2
 369 526 365 487 365 453 c 0
 365 231 513 74 716 74 c 0
 955 74 1202 289 1260 566 c 2
 1457 1493 l 1
 1547 1493 l 1
 1350 566 l 2
 1283 248 991 -15 696 -15 c 0
 444 -15 273 177 273 432 c 0
 273 477 280 521 289 566 c 2
 483 1493 l 1
EndSplineSet
EndChar
StartChar: Yacute
Encoding: 156 221 187
Width: 1228
VWidth: 2982
Flags: W
HStem: 0 21G<571 664.248>
Fore
1194 1878 m 1
 1363 1878 l 1
 1006 1612 l 1
 914 1612 l 1
 1194 1878 l 1
354 1493 m 1
 457 1493 l 1
 773 741 l 1
 1406 1493 l 1
 1511 1493 l 1
 797 645 l 1
 660 0 l 1
 571 0 l 1
 707 645 l 1
 354 1493 l 1
EndSplineSet
EndChar
StartChar: Ydieresis
Encoding: 197 376 188
Width: 1228
VWidth: 2982
Flags: W
HStem: 0 21G<571 664.248> 1612 167<735.555 863.275 1093.2 1221.96>
VStem: 714 170<1632.55 1757.76> 1072 171<1633.26 1756.82>
Fore
714 1677 m 0
 714 1730 767 1779 818 1779 c 0
 855 1779 884 1751 884 1713 c 0
 884 1654 826 1612 781 1612 c 0
 743 1612 714 1641 714 1677 c 0
1072 1677 m 0
 1072 1730 1126 1779 1175 1779 c 0
 1213 1779 1243 1751 1243 1713 c 0
 1243 1654 1184 1612 1139 1612 c 0
 1102 1612 1072 1641 1072 1677 c 0
354 1493 m 1
 457 1493 l 1
 773 741 l 1
 1406 1493 l 1
 1511 1493 l 1
 797 645 l 1
 660 0 l 1
 571 0 l 1
 707 645 l 1
 354 1493 l 1
EndSplineSet
EndChar
StartChar: Zcaron
Encoding: 198 381 189
Width: 1185
VWidth: 2982
Flags: W
HStem: 0 90<222 1121> 1403 90<453 1262>
Fore
963 1583 m 1
 897 1583 l 1
 712 1847 l 1
 835 1847 l 1
 951 1683 l 1
 1139 1847 l 1
 1260 1847 l 1
 963 1583 l 1
453 1493 m 1
 1448 1493 l 1
 222 90 l 1
 1171 90 l 1
 1121 0 l 1
 36 0 l 1
 1262 1403 l 1
 403 1403 l 1
 453 1493 l 1
EndSplineSet
EndChar
StartChar: aacute
Encoding: 160 225 190
Width: 1060
VWidth: 2982
Flags: W
HStem: -17 89<292.78 600.533> 517 64<530.212 916> 942 90<535.886 836.287>
VStem: 150 92<122.914 261.297> 822 92<0.517817 104.067> 938 92<606.085 832.005>
Fore
940 1457 m 1
 1110 1457 l 1
 752 1191 l 1
 658 1191 l 1
 940 1457 l 1
920 0 m 1
 824 0 l 1
 822 9 822 20 822 32 c 0
 822 62 826 96 835 134 c 2
 850 213 l 1
 739 90 575 -17 416 -17 c 0
 224 -17 150 96 150 205 c 0
 150 226 152 244 156 262 c 0
 224 577 649 581 902 581 c 2
 929 581 l 1
 936 613 938 643 938 669 c 0
 938 846 828 942 696 942 c 0
 604 942 497 895 408 797 c 1
 346 844 l 1
 461 974 596 1032 714 1032 c 0
 889 1032 1030 912 1030 694 c 0
 1030 658 1025 622 1019 581 c 2
 925 134 l 2
 918 101 914 72 914 49 c 0
 914 30 916 13 920 0 c 1
436 72 m 0
 600 72 784 205 875 325 c 1
 916 517 l 1
 696 513 297 502 246 262 c 0
 244 250 242 239 242 228 c 0
 242 152 295 72 436 72 c 0
EndSplineSet
EndChar
StartChar: acircumflex
Encoding: 161 226 191
Width: 1060
VWidth: 2982
Flags: W
HStem: -17 89<292.78 600.533> 517 64<530.212 916> 942 90<535.886 836.287>
VStem: 150 92<122.914 261.297> 822 92<0.517817 104.067> 938 92<606.085 832.005>
Fore
801 1457 m 1
 869 1457 l 1
 1053 1191 l 1
 931 1191 l 1
 812 1354 l 1
 626 1191 l 1
 504 1191 l 1
 801 1457 l 1
920 0 m 1
 824 0 l 1
 822 9 822 20 822 32 c 0
 822 62 826 96 835 134 c 2
 850 213 l 1
 739 90 575 -17 416 -17 c 0
 224 -17 150 96 150 205 c 0
 150 226 152 244 156 262 c 0
 224 577 649 581 902 581 c 2
 929 581 l 1
 936 613 938 643 938 669 c 0
 938 846 828 942 696 942 c 0
 604 942 497 895 408 797 c 1
 346 844 l 1
 461 974 596 1032 714 1032 c 0
 889 1032 1030 912 1030 694 c 0
 1030 658 1025 622 1019 581 c 2
 925 134 l 2
 918 101 914 72 914 49 c 0
 914 30 916 13 920 0 c 1
436 72 m 0
 600 72 784 205 875 325 c 1
 916 517 l 1
 696 513 297 502 246 262 c 0
 244 250 242 239 242 228 c 0
 242 152 295 72 436 72 c 0
EndSplineSet
EndChar
StartChar: adieresis
Encoding: 163 228 192
Width: 1060
VWidth: 2982
Flags: W
HStem: -17 89<292.78 600.533> 517 64<530.212 916> 942 90<535.886 836.287> 1194 167<553.471 684.967 912.177 1043.6>
VStem: 150 92<122.914 261.297> 534 173<1216.29 1340.61> 822 92<0.517817 104.067> 893 173<1216.29 1340.61> 938 92<606.085 832.005>
Fore
534 1262 m 0xfc
 534 1320 593 1361 638 1361 c 0
 679 1361 707 1332 707 1294 c 0
 707 1247 656 1194 602 1194 c 0
 562 1194 534 1224 534 1262 c 0xfc
893 1262 m 0xfd
 893 1320 951 1361 996 1361 c 0
 1036 1361 1066 1332 1066 1294 c 0
 1066 1247 1014 1194 961 1194 c 0
 920 1194 893 1224 893 1262 c 0xfd
920 0 m 1
 824 0 l 1
 822 9 822 20 822 32 c 0
 822 62 826 96 835 134 c 2
 850 213 l 1
 739 90 575 -17 416 -17 c 0
 224 -17 150 96 150 205 c 0
 150 226 152 244 156 262 c 0
 224 577 649 581 902 581 c 2
 929 581 l 1
 936 613 938 643 938 669 c 0
 938 846 828 942 696 942 c 0
 604 942 497 895 408 797 c 1
 346 844 l 1
 461 974 596 1032 714 1032 c 0
 889 1032 1030 912 1030 694 c 0
 1030 658 1025 622 1019 581 c 2
 925 134 l 2
 918 101 914 72 914 49 c 0xfe80
 914 30 916 13 920 0 c 1
436 72 m 0
 600 72 784 205 875 325 c 1
 916 517 l 1
 696 513 297 502 246 262 c 0
 244 250 242 239 242 228 c 0
 242 152 295 72 436 72 c 0
EndSplineSet
EndChar
StartChar: agrave
Encoding: 159 224 193
Width: 1060
VWidth: 2982
Flags: W
HStem: -17 89<292.78 600.533> 517 64<530.212 916> 942 90<535.886 836.287>
VStem: 150 92<122.914 261.297> 822 92<0.517817 104.067> 938 92<606.085 832.005>
Fore
920 0 m 1
 824 0 l 1
 822 9 822 20 822 32 c 0
 822 62 826 96 835 134 c 2
 850 213 l 1
 739 90 575 -17 416 -17 c 0
 224 -17 150 96 150 205 c 0
 150 226 152 244 156 262 c 0
 224 577 649 581 902 581 c 2
 929 581 l 1
 936 613 938 643 938 669 c 0
 938 846 828 942 696 942 c 0
 604 942 497 895 408 797 c 1
 346 844 l 1
 461 974 596 1032 714 1032 c 0
 889 1032 1030 912 1030 694 c 0
 1030 658 1025 622 1019 581 c 2
 925 134 l 2
 918 101 914 72 914 49 c 0
 914 30 916 13 920 0 c 1
436 72 m 0
 600 72 784 205 875 325 c 1
 916 517 l 1
 696 513 297 502 246 262 c 0
 244 250 242 239 242 228 c 0
 242 152 295 72 436 72 c 0
510 1457 m 1
 681 1457 l 1
 846 1191 l 1
 754 1191 l 1
 510 1457 l 1
EndSplineSet
EndChar
StartChar: aring
Encoding: 164 229 194
Width: 1060
VWidth: 2982
Flags: W
HStem: -17 89<292.78 600.533> 517 64<530.212 916> 942 90<535.886 836.287> 1179 90<708.797 896.959> 1520 90<745.275 932.264>
VStem: 150 92<122.914 261.297> 602 92<1284.82 1466.93> 822 92<0.517817 104.067> 938 92<606.085 832.005> 949 92<1321.07 1503.87>
Fore
602 1350 m 0xff40
 602 1476 720 1610 867 1610 c 0
 972 1610 1041 1536 1041 1439 c 0
 1041 1298 906 1179 777 1179 c 0
 671 1179 602 1251 602 1350 c 0xff40
848 1520 m 0
 763 1520 694 1439 694 1367 c 0
 694 1312 734 1269 795 1269 c 0
 880 1269 949 1348 949 1421 c 0
 949 1478 908 1520 848 1520 c 0
920 0 m 1
 824 0 l 1
 822 9 822 20 822 32 c 0
 822 62 826 96 835 134 c 2
 850 213 l 1
 739 90 575 -17 416 -17 c 0
 224 -17 150 96 150 205 c 0
 150 226 152 244 156 262 c 0
 224 577 649 581 902 581 c 2
 929 581 l 1
 936 613 938 643 938 669 c 0
 938 846 828 942 696 942 c 0
 604 942 497 895 408 797 c 1
 346 844 l 1
 461 974 596 1032 714 1032 c 0
 889 1032 1030 912 1030 694 c 0xff80
 1030 658 1025 622 1019 581 c 2
 925 134 l 2
 918 101 914 72 914 49 c 0
 914 30 916 13 920 0 c 1
436 72 m 0
 600 72 784 205 875 325 c 1
 916 517 l 1
 696 513 297 502 246 262 c 0
 244 250 242 239 242 228 c 0
 242 152 295 72 436 72 c 0
EndSplineSet
EndChar
StartChar: atilde
Encoding: 162 227 195
Width: 1060
VWidth: 2982
Flags: W
HStem: -17 89<292.78 600.533> 517 64<530.212 916> 942 90<535.886 836.287> 1175 94<829.259 947.226> 1288 84<620.874 757.014>
VStem: 150 92<122.914 261.297> 822 92<0.517817 104.067> 938 92<606.085 832.005>
Fore
685 1372 m 0
 792 1372 857 1269 922 1269 c 0
 944 1269 989 1280 1003 1352 c 1
 1061 1352 l 1
 1025 1171 922 1175 904 1175 c 0
 799 1175 739 1288 667 1288 c 0
 643 1288 598 1271 579 1194 c 1
 519 1194 l 1
 526 1220 553 1372 685 1372 c 0
920 0 m 1
 824 0 l 1
 822 9 822 20 822 32 c 0
 822 62 826 96 835 134 c 2
 850 213 l 1
 739 90 575 -17 416 -17 c 0
 224 -17 150 96 150 205 c 0
 150 226 152 244 156 262 c 0
 224 577 649 581 902 581 c 2
 929 581 l 1
 936 613 938 643 938 669 c 0
 938 846 828 942 696 942 c 0
 604 942 497 895 408 797 c 1
 346 844 l 1
 461 974 596 1032 714 1032 c 0
 889 1032 1030 912 1030 694 c 0
 1030 658 1025 622 1019 581 c 2
 925 134 l 2
 918 101 914 72 914 49 c 0
 914 30 916 13 920 0 c 1
436 72 m 0
 600 72 784 205 875 325 c 1
 916 517 l 1
 696 513 297 502 246 262 c 0
 244 250 242 239 242 228 c 0
 242 152 295 72 436 72 c 0
EndSplineSet
EndChar
StartChar: ccedilla
Encoding: 166 231 196
Width: 1004
VWidth: 2982
Flags: W
HStem: -396 89<360.514 517.268> 940 92<562.489 888.439>
VStem: 166 89<223.841 605.461> 528 94<-290.625 -184.591>
Fore
734 940 m 0
 500 940 255 685 255 406 c 0
 255 215 376 74 551 74 c 0
 681 74 814 152 908 275 c 1
 985 235 l 1
 882 101 732 7 577 -9 c 1
 513 -92 l 1
 604 -109 622 -158 622 -199 c 0
 622 -318 517 -396 399 -396 c 0
 349 -396 297 -383 255 -349 c 1
 318 -275 l 1
 349 -297 385 -307 419 -307 c 0
 493 -307 528 -262 528 -233 c 0
 528 -197 483 -179 436 -171 c 2
 372 -161 l 1
 493 -9 l 1
 293 11 166 177 166 391 c 0
 166 726 461 1032 754 1032 c 0
 920 1032 1045 931 1094 786 c 1
 1008 741 l 1
 965 861 867 940 734 940 c 0
EndSplineSet
EndChar
StartChar: eacute
Encoding: 168 233 197
Width: 1177
VWidth: 2982
Flags: W
HStem: -15 94<445.746 776.325> 504 89<346 1083> 940 90<616.149 940.586> 1194 21G<781 902.019>
VStem: 218 87<225.104 484.703> 1083 92<594.085 786.578>
Fore
1063 1459 m 1
 1233 1459 l 1
 875 1194 l 1
 781 1194 l 1
 1063 1459 l 1
346 593 m 1
 1083 593 l 1
 1083 609 l 2
 1083 801 963 940 788 940 c 0
 611 940 425 795 346 593 c 1
218 385 m 0
 218 720 515 1030 806 1030 c 0
 1030 1030 1175 855 1175 628 c 0
 1175 604 1175 577 1171 553 c 2
 1164 504 l 1
 316 504 l 1
 309 468 305 434 305 403 c 0
 305 213 427 79 602 79 c 0
 732 79 867 154 961 278 c 1
 1027 233 l 1
 918 87 750 -15 581 -15 c 0
 361 -15 218 158 218 385 c 0
EndSplineSet
EndChar
StartChar: ecircumflex
Encoding: 169 234 198
Width: 1177
VWidth: 2982
Flags: W
HStem: -15 94<445.746 776.325> 504 89<346 1083> 940 90<616.149 940.586> 1194 21G<564 709.545 976.697 1113>
VStem: 218 87<225.104 484.703> 1083 92<594.085 786.578>
Fore
861 1459 m 1
 929 1459 l 1
 1113 1194 l 1
 991 1194 l 1
 873 1359 l 1
 687 1194 l 1
 564 1194 l 1
 861 1459 l 1
346 593 m 1
 1083 593 l 1
 1083 609 l 2
 1083 801 963 940 788 940 c 0
 611 940 425 795 346 593 c 1
218 385 m 0
 218 720 515 1030 806 1030 c 0
 1030 1030 1175 855 1175 628 c 0
 1175 604 1175 577 1171 553 c 2
 1164 504 l 1
 316 504 l 1
 309 468 305 434 305 403 c 0
 305 213 427 79 602 79 c 0
 732 79 867 154 961 278 c 1
 1027 233 l 1
 918 87 750 -15 581 -15 c 0
 361 -15 218 158 218 385 c 0
EndSplineSet
EndChar
StartChar: edieresis
Encoding: 170 235 199
Width: 1177
VWidth: 2982
Flags: W
HStem: -15 94<445.746 776.325> 504 89<346 1083> 940 90<616.149 940.586> 1194 167<598.471 729.967 957.177 1088.03>
VStem: 218 87<225.104 484.703> 579 173<1216.29 1340.61> 938 172<1216.29 1340.61> 1083 92<594.085 786.578>
Fore
579 1262 m 0xfc
 579 1320 638 1361 683 1361 c 0
 724 1361 752 1332 752 1294 c 0
 752 1247 701 1194 647 1194 c 0
 607 1194 579 1224 579 1262 c 0xfc
938 1262 m 0xfe
 938 1320 996 1361 1041 1361 c 0
 1081 1361 1110 1332 1110 1294 c 0
 1110 1247 1059 1194 1006 1194 c 0
 965 1194 938 1224 938 1262 c 0xfe
346 593 m 1
 1083 593 l 1
 1083 609 l 2xfd
 1083 801 963 940 788 940 c 0
 611 940 425 795 346 593 c 1
218 385 m 0
 218 720 515 1030 806 1030 c 0
 1030 1030 1175 855 1175 628 c 0
 1175 604 1175 577 1171 553 c 2
 1164 504 l 1
 316 504 l 1
 309 468 305 434 305 403 c 0
 305 213 427 79 602 79 c 0
 732 79 867 154 961 278 c 1
 1027 233 l 1
 918 87 750 -15 581 -15 c 0
 361 -15 218 158 218 385 c 0
EndSplineSet
EndChar
StartChar: egrave
Encoding: 167 232 200
Width: 1177
VWidth: 2982
Flags: W
HStem: -15 94<445.746 776.325> 504 89<346 1083> 940 90<616.149 940.586> 1194 21G<760.509 871>
VStem: 218 87<225.104 484.703> 1083 92<594.085 786.578>
Fore
534 1459 m 1
 705 1459 l 1
 871 1194 l 1
 779 1194 l 1
 534 1459 l 1
346 593 m 1
 1083 593 l 1
 1083 609 l 2
 1083 801 963 940 788 940 c 0
 611 940 425 795 346 593 c 1
218 385 m 0
 218 720 515 1030 806 1030 c 0
 1030 1030 1175 855 1175 628 c 0
 1175 604 1175 577 1171 553 c 2
 1164 504 l 1
 316 504 l 1
 309 468 305 434 305 403 c 0
 305 213 427 79 602 79 c 0
 732 79 867 154 961 278 c 1
 1027 233 l 1
 918 87 750 -15 581 -15 c 0
 361 -15 218 158 218 385 c 0
EndSplineSet
EndChar
StartChar: iacute
Encoding: 172 237 201
Width: 422
VWidth: 2982
Flags: W
HStem: 0 21G<168 262.221> 1194 21G<356 475.019>
VStem: 168 638<0 1459>
Fore
638 1459 m 1
 806 1459 l 1
 448 1194 l 1
 356 1194 l 1
 638 1459 l 1
258 0 m 1
 168 0 l 1
 383 1014 l 1
 472 1014 l 1
 258 0 l 1
EndSplineSet
EndChar
StartChar: icircumflex
Encoding: 173 238 202
Width: 422
VWidth: 2982
Flags: W
HStem: 0 21G<168 262.221> 1194 21G<190 336.788 603.939 741>
VStem: 168 573<0 1194>
Fore
258 0 m 1
 168 0 l 1
 383 1014 l 1
 472 1014 l 1
 258 0 l 1
491 1459 m 1
 555 1459 l 1
 741 1194 l 1
 618 1194 l 1
 502 1359 l 1
 314 1194 l 1
 190 1194 l 1
 491 1459 l 1
EndSplineSet
EndChar
StartChar: idieresis
Encoding: 174 239 203
Width: 422
VWidth: 2982
Flags: W
HStem: 0 21G<168 262.221> 1194 167<235.857 367.77 593.924 725.521>
VStem: 215 172<1214.16 1339.44> 573 172<1214.16 1339.44>
Fore
215 1262 m 0
 215 1305 262 1361 320 1361 c 0
 361 1361 387 1332 387 1294 c 0
 387 1235 329 1194 284 1194 c 0
 244 1194 215 1224 215 1262 c 0
573 1262 m 0
 573 1305 620 1361 679 1361 c 0
 718 1361 745 1332 745 1294 c 0
 745 1235 687 1194 643 1194 c 0
 602 1194 573 1224 573 1262 c 0
258 0 m 1
 168 0 l 1
 383 1014 l 1
 472 1014 l 1
 258 0 l 1
EndSplineSet
EndChar
StartChar: igrave
Encoding: 171 236 204
Width: 422
VWidth: 2982
Flags: W
HStem: 0 21G<168 262.221> 1194 21G<438.585 549>
VStem: 168 381<0 1194>
Fore
213 1459 m 1
 383 1459 l 1
 549 1194 l 1
 457 1194 l 1
 213 1459 l 1
258 0 m 1
 168 0 l 1
 383 1014 l 1
 472 1014 l 1
 258 0 l 1
EndSplineSet
EndChar
StartChar: ntilde
Encoding: 176 241 205
Width: 1071
VWidth: 2982
Flags: W
HStem: 0 21G<168 262.213 818 910.313> 940 90<683.029 915.301> 1175 94<847.124 980.718> 1288 84<635.988 770.256>
VStem: 365 92<910.062 1013.48> 963 92<666.517 890.861>
Fore
701 1372 m 0
 808 1372 873 1269 938 1269 c 0
 959 1269 1006 1290 1021 1361 c 1
 1074 1352 l 1
 1055 1256 1012 1175 918 1175 c 0
 818 1175 750 1288 683 1288 c 0
 658 1288 613 1271 593 1194 c 1
 534 1194 l 1
 551 1283 602 1372 701 1372 c 0
359 1014 m 1
 455 1014 l 1
 457 1006 457 994 457 983 c 0
 457 951 453 918 444 880 c 2
 412 728 l 1
 517 889 694 1030 820 1030 c 0
 985 1030 1055 914 1055 756 c 0
 1055 716 1050 671 1041 626 c 2
 906 0 l 1
 818 0 l 1
 951 626 l 2
 959 662 963 701 963 739 c 0
 963 844 927 940 797 940 c 0
 634 940 396 660 365 508 c 2
 258 0 l 1
 168 0 l 1
 354 880 l 2
 361 914 365 942 365 965 c 0
 365 985 363 1000 359 1014 c 1
EndSplineSet
EndChar
StartChar: oacute
Encoding: 178 243 206
Width: 1282
VWidth: 2982
Flags: W
HStem: -15 89<483.606 855.049> 940 90<649.395 1023.34> 1194 21G<781 902.019>
VStem: 220 92<242.125 605.092> 1196 84<411.622 770.349>
Fore
1063 1459 m 1
 1233 1459 l 1
 875 1194 l 1
 781 1194 l 1
 1063 1459 l 1
220 396 m 0
 220 726 530 1030 859 1030 c 0
 1110 1030 1280 853 1280 615 c 0
 1280 305 980 -15 638 -15 c 0
 389 -15 220 158 220 396 c 0
844 940 m 0
 581 940 312 696 312 416 c 0
 312 222 453 74 660 74 c 0
 927 74 1196 320 1196 596 c 0
 1196 792 1053 940 844 940 c 0
EndSplineSet
EndChar
StartChar: ocircumflex
Encoding: 179 244 207
Width: 1282
VWidth: 2982
Flags: W
HStem: -15 89<483.606 855.049> 940 90<649.395 1023.34> 1194 21G<618 763.545 1030.7 1166>
VStem: 220 92<242.125 605.092> 1196 84<411.622 770.349>
Fore
916 1459 m 1
 983 1459 l 1
 1166 1194 l 1
 1045 1194 l 1
 927 1359 l 1
 741 1194 l 1
 618 1194 l 1
 916 1459 l 1
220 396 m 0
 220 726 530 1030 859 1030 c 0
 1110 1030 1280 853 1280 615 c 0
 1280 305 980 -15 638 -15 c 0
 389 -15 220 158 220 396 c 0
844 940 m 0
 581 940 312 696 312 416 c 0
 312 222 453 74 660 74 c 0
 927 74 1196 320 1196 596 c 0
 1196 792 1053 940 844 940 c 0
EndSplineSet
EndChar
StartChar: odieresis
Encoding: 181 246 208
Width: 1282
VWidth: 2982
Flags: W
HStem: -15 89<483.606 855.049> 940 90<649.395 1023.34> 1194 167<666.458 798.529 1023.86 1155.77>
VStem: 220 92<242.125 605.092> 645 173<1214.91 1339.44> 1003 172<1214.16 1339.44> 1196 84<411.622 770.349>
Fore
645 1262 m 0
 645 1305 692 1361 750 1361 c 0
 790 1361 818 1332 818 1294 c 0
 818 1235 759 1194 714 1194 c 0
 673 1194 645 1224 645 1262 c 0
1003 1262 m 0
 1003 1305 1050 1361 1108 1361 c 0
 1149 1361 1175 1332 1175 1294 c 0
 1175 1235 1117 1194 1072 1194 c 0
 1032 1194 1003 1224 1003 1262 c 0
220 396 m 0
 220 726 530 1030 859 1030 c 0
 1110 1030 1280 853 1280 615 c 0
 1280 305 980 -15 638 -15 c 0
 389 -15 220 158 220 396 c 0
844 940 m 0
 581 940 312 696 312 416 c 0
 312 222 453 74 660 74 c 0
 927 74 1196 320 1196 596 c 0
 1196 792 1053 940 844 940 c 0
EndSplineSet
EndChar
StartChar: ograve
Encoding: 177 242 209
Width: 1282
VWidth: 2982
Flags: W
HStem: -15 89<483.606 855.049> 940 90<649.395 1023.34> 1194 21G<893.359 1003>
VStem: 220 92<242.125 605.092> 1196 84<411.622 770.349>
Fore
665 1459 m 1
 835 1459 l 1
 1003 1194 l 1
 912 1194 l 1
 665 1459 l 1
220 396 m 0
 220 726 530 1030 859 1030 c 0
 1110 1030 1280 853 1280 615 c 0
 1280 305 980 -15 638 -15 c 0
 389 -15 220 158 220 396 c 0
844 940 m 0
 581 940 312 696 312 416 c 0
 312 222 453 74 660 74 c 0
 927 74 1196 320 1196 596 c 0
 1196 792 1053 940 844 940 c 0
EndSplineSet
EndChar
StartChar: otilde
Encoding: 180 245 210
Width: 1282
VWidth: 2982
Flags: W
HStem: -15 89<483.606 855.049> 940 90<649.395 1023.34> 1175 94<945.328 1078.74> 1288 84<734.357 868.319>
VStem: 220 92<242.125 605.092> 1196 84<411.622 770.349>
Fore
799 1372 m 0
 906 1372 972 1269 1036 1269 c 0
 1057 1269 1104 1290 1119 1361 c 1
 1173 1352 l 1
 1153 1256 1110 1175 1016 1175 c 0
 916 1175 848 1288 781 1288 c 0
 756 1288 712 1271 692 1194 c 1
 634 1194 l 1
 649 1283 701 1372 799 1372 c 0
220 396 m 0
 220 726 530 1030 859 1030 c 0
 1110 1030 1280 853 1280 615 c 0
 1280 305 980 -15 638 -15 c 0
 389 -15 220 158 220 396 c 0
844 940 m 0
 581 940 312 696 312 416 c 0
 312 222 453 74 660 74 c 0
 927 74 1196 320 1196 596 c 0
 1196 792 1053 940 844 940 c 0
EndSplineSet
EndChar
StartChar: scaron
Encoding: 196 353 211
Width: 791
VWidth: 2982
Flags: W
HStem: -17 89<284.39 560.077> 942 90<477.646 710.454> 1104 21G<588.015 689.406> 1350 20G<416 554.233 820.932 965>
VStem: 130 94<137.111 252 252 289> 312 91<673.809 867.561> 703 87<206.954 437.618> 750 89<824.932 917.735>
Fore
667 1104 m 1xfc
 602 1104 l 1
 416 1370 l 1
 540 1370 l 1
 656 1207 l 1
 844 1370 l 1
 965 1370 l 1
 667 1104 l 1xfc
312 739 m 0
 312 875 434 1032 620 1032 c 0
 728 1032 824 969 839 835 c 1
 750 808 l 1xfd
 739 902 671 942 600 942 c 0
 485 942 403 842 403 759 c 0
 403 589 790 609 790 356 c 0
 790 164 604 -17 389 -17 c 0
 252 -17 130 64 130 252 c 0
 130 265 132 278 132 289 c 1
 226 302 l 1
 226 291 224 282 224 271 c 0
 224 132 312 72 412 72 c 0
 553 72 703 192 703 336 c 0xfe
 703 542 312 510 312 739 c 0
EndSplineSet
EndChar
StartChar: uacute
Encoding: 185 250 212
Width: 1066
VWidth: 2982
Flags: W
HStem: -15 89<416.819 699.986> 1194 21G<701 822.019>
VStem: 239 92<164.038 367.151>
Fore
983 1459 m 1
 1153 1459 l 1
 795 1194 l 1
 701 1194 l 1
 983 1459 l 1
383 1014 m 1
 472 1014 l 1
 340 387 l 2
 333 361 331 336 331 312 c 0
 331 175 416 74 546 74 c 0
 698 74 857 213 895 387 c 2
 1027 1014 l 1
 1117 1014 l 1
 985 387 l 2
 938 168 737 -15 530 -15 c 0
 354 -15 239 119 239 295 c 0
 239 325 244 356 250 387 c 2
 383 1014 l 1
EndSplineSet
EndChar
StartChar: ucircumflex
Encoding: 186 251 213
Width: 1066
VWidth: 2982
Flags: W
HStem: -15 89<416.819 699.986> 1194 21G<513 658.788 925.939 1063>
VStem: 239 92<164.038 367.151>
Fore
812 1459 m 1
 878 1459 l 1
 1063 1194 l 1
 940 1194 l 1
 824 1359 l 1
 636 1194 l 1
 513 1194 l 1
 812 1459 l 1
383 1014 m 1
 472 1014 l 1
 340 387 l 2
 333 361 331 336 331 312 c 0
 331 175 416 74 546 74 c 0
 698 74 857 213 895 387 c 2
 1027 1014 l 1
 1117 1014 l 1
 985 387 l 2
 938 168 737 -15 530 -15 c 0
 354 -15 239 119 239 295 c 0
 239 325 244 356 250 387 c 2
 383 1014 l 1
EndSplineSet
EndChar
StartChar: udieresis
Encoding: 187 252 214
Width: 1066
VWidth: 2982
Flags: W
HStem: -15 89<416.819 699.986> 1194 167<566.857 698.77 924.924 1057.38>
VStem: 239 92<164.038 367.151> 546 172<1214.16 1339.44> 904 173<1214.16 1339.44>
Fore
546 1262 m 0
 546 1305 593 1361 651 1361 c 0
 692 1361 718 1332 718 1294 c 0
 718 1235 660 1194 615 1194 c 0
 575 1194 546 1224 546 1262 c 0
904 1262 m 0
 904 1305 951 1361 1010 1361 c 0
 1050 1361 1077 1332 1077 1294 c 0
 1077 1235 1019 1194 974 1194 c 0
 933 1194 904 1224 904 1262 c 0
383 1014 m 1
 472 1014 l 1
 340 387 l 2
 333 361 331 336 331 312 c 0
 331 175 416 74 546 74 c 0
 698 74 857 213 895 387 c 2
 1027 1014 l 1
 1117 1014 l 1
 985 387 l 2
 938 168 737 -15 530 -15 c 0
 354 -15 239 119 239 295 c 0
 239 325 244 356 250 387 c 2
 383 1014 l 1
EndSplineSet
EndChar
StartChar: ugrave
Encoding: 184 249 215
Width: 1066
VWidth: 2982
Flags: W
HStem: -15 89<416.819 699.986> 1194 21G<771.585 884>
VStem: 239 92<164.038 367.151>
Fore
546 1459 m 1
 716 1459 l 1
 884 1194 l 1
 790 1194 l 1
 546 1459 l 1
383 1014 m 1
 472 1014 l 1
 340 387 l 2
 333 361 331 336 331 312 c 0
 331 175 416 74 546 74 c 0
 698 74 857 213 895 387 c 2
 1027 1014 l 1
 1117 1014 l 1
 985 387 l 2
 938 168 737 -15 530 -15 c 0
 354 -15 239 119 239 295 c 0
 239 325 244 356 250 387 c 2
 383 1014 l 1
EndSplineSet
EndChar
StartChar: yacute
Encoding: 188 253 216
Width: 950
VWidth: 2982
Flags: W
HStem: 1194 21G<643 761.019>
VStem: 126 1006<-521 1014>
Fore
922 1459 m 1
 1092 1459 l 1
 734 1194 l 1
 643 1194 l 1
 922 1459 l 1
224 -521 m 1
 126 -521 l 1
 432 -2 l 1
 250 1014 l 1
 346 1014 l 1
 506 119 l 1
 1036 1014 l 1
 1132 1014 l 1
 224 -521 l 1
EndSplineSet
EndChar
StartChar: ydieresis
Encoding: 190 255 217
Width: 946
VWidth: 2982
Flags: W
HStem: 1209 168<511.672 640.542 868.725 999.814>
VStem: 491 171<1230.56 1356.25> 848 173<1230.56 1356.25>
Fore
491 1276 m 0
 491 1335 549 1377 593 1377 c 0
 634 1377 662 1345 662 1307 c 0
 662 1265 615 1209 557 1209 c 0
 517 1209 491 1238 491 1276 c 0
848 1276 m 0
 848 1335 906 1377 951 1377 c 0
 991 1377 1021 1345 1021 1307 c 0
 1021 1265 974 1209 916 1209 c 0
 875 1209 848 1238 848 1276 c 0
250 1014 m 1
 344 1014 l 1
 504 119 l 1
 1034 1014 l 1
 1128 1014 l 1
 220 -521 l 1
 126 -521 l 1
 432 -2 l 1
 250 1014 l 1
EndSplineSet
EndChar
StartChar: zcaron
Encoding: 199 382 218
Width: 888
VWidth: 2982
Flags: W
HStem: 0 90<224 822> 925 89<374 884> 1104 21G<661.165 765.406> 1350 20G<491 627.356 894.932 1041>
Fore
743 1104 m 1
 675 1104 l 1
 491 1370 l 1
 613 1370 l 1
 730 1207 l 1
 918 1370 l 1
 1041 1370 l 1
 743 1104 l 1
374 1014 m 1
 1070 1014 l 1
 224 90 l 1
 869 90 l 1
 822 0 l 1
 36 0 l 1
 884 925 l 1
 325 925 l 1
 374 1014 l 1
EndSplineSet
EndChar
StartChar: uni00AD
Encoding: 108 173 220
Width: 1036
VWidth: 2982
Flags: W
HStem: 463 90<239 1014>
VStem: 222 812<463 553 463 553>
Fore
1034 553 m 1
 1014 463 l 1
 222 463 l 1
 239 553 l 1
 1034 553 l 1
EndSplineSet
EndChar
StartChar: uni00B2
Encoding: 113 178 221
Width: 883
VWidth: 2982
Flags: W
HStem: 922 92<438 938> 1845 89<726.008 964.404>
VStem: 1016 99<1572.15 1793.31>
Fore
1115 1685 m 0
 1115 1314 553 1276 438 1014 c 1
 955 1014 l 1
 938 925 l 1
 318 922 l 1
 327 967 l 2
 401 1307 959 1361 1010 1610 c 0
 1014 1630 1016 1647 1016 1668 c 0
 1016 1771 949 1845 855 1845 c 0
 743 1845 626 1743 598 1610 c 1
 508 1610 l 1
 546 1784 709 1934 878 1934 c 0
 1019 1934 1115 1826 1115 1685 c 0
EndSplineSet
EndChar
StartChar: uni00B3
Encoding: 114 179 222
Width: 870
VWidth: 2982
Flags: W
HStem: 912 84<529.782 792.254> 1450 90<765 870.985> 1843 88<709.878 931.428>
VStem: 376 92<1056.66 1221.58> 931 85<1134.38 1391.55> 961 84<1640.87 1812.72>
Fore
765 1540 m 1xf8
 857 1540 961 1602 961 1715 c 0
 961 1788 908 1843 831 1843 c 0
 741 1843 654 1771 636 1683 c 1
 546 1683 l 1
 575 1820 709 1931 846 1931 c 0
 965 1931 1045 1847 1045 1735 c 0xf4
 1045 1688 1032 1576 906 1495 c 1
 974 1450 1016 1377 1016 1288 c 0
 1016 1104 833 912 628 912 c 0
 479 912 376 1016 376 1157 c 0
 376 1179 378 1202 383 1224 c 1
 472 1224 l 1
 468 1209 468 1194 468 1177 c 0
 468 1074 542 996 651 996 c 0
 784 996 931 1119 931 1269 c 0
 931 1372 857 1450 748 1450 c 1
 765 1540 l 1xf8
EndSplineSet
EndChar
StartChar: uni00B5
Encoding: 116 181 223
Width: 1066
VWidth: 2982
Flags: W
HStem: -9 90<415.354 701.883>
VStem: 92 92<-453.381 -318.109>
Fore
383 1014 m 1
 472 1014 l 1
 340 393 l 2
 333 367 331 342 331 318 c 0
 331 179 419 81 549 81 c 0
 701 81 857 218 895 393 c 2
 1027 1014 l 1
 1117 1014 l 1
 985 393 l 2
 938 173 739 -9 532 -9 c 0
 419 -9 331 45 284 128 c 1
 192 -305 l 2
 186 -331 184 -359 184 -380 c 0
 184 -412 188 -440 197 -468 c 1
 109 -510 l 1
 98 -474 92 -436 92 -396 c 0
 92 -367 94 -338 101 -307 c 2
 383 1014 l 1
EndSplineSet
EndChar
StartChar: uni00B9
Encoding: 120 185 224
Width: 782
VWidth: 2982
Flags: W
HStem: 925 1002<615 914>
VStem: 615 299<925 1927>
Fore
615 925 m 1
 792 1758 l 1
 656 1677 l 1
 620 1753 l 1
 914 1927 l 1
 701 925 l 1
 615 925 l 1
EndSplineSet
EndChar
StartChar: uni0E01
Encoding: 209 3585 225
Width: 1179
VWidth: 2982
Flags: W
HStem: 0 21G<168 262.195 925 1018.27> 1119 90<628.406 973.558>
VStem: 1097 89<778.555 996.199>
Fore
401 859 m 1
 549 763 l 1
 455 724 399 671 374 553 c 2
 258 0 l 1
 168 0 l 1
 284 553 l 2
 302 638 378 716 446 759 c 1
 307 842 l 1
 432 1119 679 1209 826 1209 c 0
 1041 1209 1186 1057 1186 855 c 0
 1186 826 1184 795 1177 763 c 2
 1014 0 l 1
 925 0 l 1
 1088 763 l 2
 1094 792 1097 820 1097 844 c 0
 1097 1019 965 1119 808 1119 c 0
 665 1119 493 1038 401 859 c 1
EndSplineSet
EndChar
StartChar: uni0E02
Encoding: 210 3586 226
Width: 1221
VWidth: 2982
Flags: W
HStem: -15 89<468.545 802.671> 671 90<399 684.736> 1104 90<645 756>
VStem: 248 92<200.285 420.764>
Fore
596 1104 m 1
 645 1194 l 1
 867 1194 l 1
 790 835 l 2
 771 745 681 671 591 671 c 2
 399 671 l 1
 346 430 l 2
 342 406 340 380 340 356 c 0
 340 195 455 74 626 74 c 0
 824 74 1016 233 1059 430 c 2
 1220 1194 l 1
 1309 1194 l 1
 1149 430 l 2
 1097 186 853 -15 609 -15 c 0
 396 -15 248 139 248 338 c 0
 248 369 250 399 258 430 c 2
 329 761 l 1
 609 761 l 2
 651 761 692 795 701 835 c 2
 756 1104 l 1
 596 1104 l 1
EndSplineSet
EndChar
StartChar: uni0E03
Encoding: 211 3587 227
Width: 1221
VWidth: 2982
Flags: MW
HStem: -15 89<468.37 802.868> 671 90<399 684.736>
VStem: 248 92<204.271 420.678>
Fore
436 1130 m 1
 497 1209 l 1
 540 1182 596 1126 628 1053 c 1
 779 1194 l 1
 867 1194 l 1
 790 835 l 2
 771 745 681 671 591 671 c 2
 399 671 l 1
 346 430 l 2
 342 406 340 380 340 359 c 0
 340 195 457 74 626 74 c 0
 824 74 1016 233 1059 430 c 2
 1220 1194 l 1
 1309 1194 l 1
 1149 430 l 2
 1094 184 855 -15 609 -15 c 0
 393 -15 248 137 248 338 c 0
 248 367 250 399 258 430 c 2
 329 761 l 1
 609 761 l 2
 651 761 692 795 701 835 c 2
 745 1053 l 1
 575 889 l 1
 564 931 542 1063 436 1130 c 1
EndSplineSet
EndChar
StartChar: uni0E04
Encoding: 212 3588 228
Width: 1221
VWidth: 2982
Flags: W
HStem: 0 21G<168 262.195 967 1061.27> 553 90<393 698> 1119 90<674.611 1008.77>
VStem: 1137 92<774.282 993.426>
Fore
748 643 m 1
 698 553 l 1
 374 553 l 1
 258 0 l 1
 168 0 l 1
 329 763 l 2
 380 1010 624 1209 869 1209 c 0
 1081 1209 1229 1057 1229 855 c 0
 1229 826 1226 795 1220 763 c 2
 1057 0 l 1
 967 0 l 1
 1130 763 l 2
 1135 788 1137 812 1137 837 c 0
 1137 998 1023 1119 850 1119 c 0
 654 1119 461 961 419 763 c 2
 393 643 l 1
 748 643 l 1
EndSplineSet
EndChar
StartChar: uni0E05
Encoding: 213 3589 229
Width: 1221
VWidth: 2982
Flags: W
HStem: 0 21G<168 262.195 967 1061.24> 553 90<393 698> 931 90<744.763 934.762>
VStem: 1151 90<844.94 1057.54>
Fore
748 643 m 1
 698 553 l 1
 374 553 l 1
 258 0 l 1
 168 0 l 1
 340 812 l 2
 374 969 468 1108 613 1191 c 2
 656 1215 l 1
 671 1179 l 2
 730 1057 781 1021 826 1021 c 0
 859 1023 936 1041 1053 1175 c 2
 1083 1211 l 1
 1115 1191 l 2
 1202 1130 1241 1032 1241 922 c 0
 1241 886 1235 848 1229 812 c 2
 1057 0 l 1
 967 0 l 1
 1139 812 l 2
 1147 844 1151 875 1151 904 c 0
 1151 980 1126 1045 1079 1090 c 1
 996 1003 902 931 810 931 c 0
 716 931 656 1003 607 1090 c 1
 517 1027 455 929 430 812 c 2
 393 643 l 1
 748 643 l 1
EndSplineSet
EndChar
StartChar: uni0E06
Encoding: 214 3590 230
Width: 1221
VWidth: 2982
Flags: W
HStem: -15 89<581.137 867.942> 671 90<399 684.736> 1174 20G<481.557 518.5 757.582 867 1215.79 1309>
Fore
399 671 m 1
 374 555 l 2
 369 538 367 517 367 497 c 0
 367 302 546 74 716 74 c 0
 929 74 1023 267 1059 430 c 2
 1220 1194 l 1
 1309 1194 l 1
 1149 430 l 2
 1097 188 949 -15 698 -15 c 0
 534 -15 393 152 327 333 c 1
 258 0 l 1
 168 0 l 1
 329 761 l 1
 609 761 l 2
 651 761 692 795 701 835 c 2
 745 1053 l 1
 575 889 l 1
 564 931 542 1063 436 1130 c 1
 497 1209 l 1
 540 1182 596 1126 628 1053 c 1
 779 1194 l 1
 867 1194 l 1
 790 835 l 2
 771 745 681 671 591 671 c 2
 399 671 l 1
EndSplineSet
EndChar
StartChar: uni0E07
Encoding: 215 3591 231
Width: 1221
VWidth: 2982
Flags: W
HStem: -15 89<468.545 802.671> 1104 90<867 1004.02>
VStem: 248 92<200.285 420.764> 1135 89<764.712 979.605>
Fore
440 867 m 1
 346 430 l 2
 342 406 340 380 340 356 c 0
 340 195 455 74 626 74 c 0
 824 74 1016 233 1059 430 c 2
 1126 750 l 2
 1132 777 1135 801 1135 826 c 0
 1135 985 1016 1104 846 1104 c 1
 867 1194 l 1
 1079 1194 1224 1041 1224 842 c 0
 1224 812 1222 781 1215 750 c 2
 1149 430 l 2
 1097 186 853 -15 609 -15 c 0
 396 -15 248 139 248 338 c 0
 248 369 250 399 258 430 c 2
 344 835 l 1
 440 867 l 1
EndSplineSet
EndChar
StartChar: uni0E08
Encoding: 216 3592 232
Width: 1132
VWidth: 2982
Flags: W
HStem: 0 21G<878 971.273> 553 90<690 994> 1119 90<584.952 918.9>
VStem: 1047 92<771.047 993.426>
Fore
640 553 m 1
 690 643 l 1
 1014 643 l 1
 1041 763 l 2
 1045 788 1047 812 1047 837 c 0
 1047 998 933 1119 761 1119 c 0
 564 1119 372 961 329 763 c 1
 239 763 l 1
 291 1010 534 1209 779 1209 c 0
 991 1209 1139 1057 1139 855 c 0
 1139 826 1137 795 1130 763 c 2
 967 0 l 1
 878 0 l 1
 994 553 l 1
 640 553 l 1
EndSplineSet
EndChar
StartChar: uni0E09
Encoding: 217 3593 233
Width: 1132
VWidth: 2982
Flags: W
HStem: -9 90<350.902 625.902> 530 90<195 252> 1119 90<584.952 918.9>
VStem: 213 92<125.896 358.293> 1047 92<771.047 993.426>
Fore
878 0 m 1
 944 320 l 1
 812 143 622 -9 463 -9 c 0
 273 -9 213 109 213 262 c 0
 213 316 222 376 233 436 c 2
 252 530 l 1
 145 530 l 1
 195 620 l 1
 363 620 l 1
 322 436 l 2
 309 374 305 320 305 278 c 0
 305 128 372 81 479 81 c 0
 673 81 953 359 996 555 c 2
 1041 763 l 2
 1045 788 1047 812 1047 837 c 0
 1047 998 933 1119 761 1119 c 0
 564 1119 372 961 329 763 c 1
 239 763 l 1
 291 1010 534 1209 779 1209 c 0
 991 1209 1139 1057 1139 855 c 0
 1139 826 1137 795 1130 763 c 2
 967 0 l 1
 878 0 l 1
EndSplineSet
EndChar
StartChar: uni0E0A
Encoding: 218 3594 234
Width: 1221
VWidth: 2982
Flags: W
HStem: -15 89<468.545 802.671> 671 90<399 684.736> 871 90<818 1085.81> 1104 90<645 756>
VStem: 248 92<200.285 420.764> 1117 90<675.398 841.298>
Fore
258 430 m 2
 329 761 l 1
 609 761 l 2
 651 761 692 795 701 835 c 2
 756 1104 l 1
 596 1104 l 1
 645 1194 l 1
 867 1194 l 1
 818 961 l 1
 1008 961 l 2
 1115 961 1188 1047 1213 1155 c 2
 1220 1194 l 1
 1309 1194 l 1
 1303 1155 l 2
 1280 1055 1211 965 1121 914 c 1
 1175 873 1207 806 1207 732 c 0
 1207 712 1204 692 1200 671 c 2
 1149 430 l 2
 1097 186 853 -15 609 -15 c 0
 396 -15 248 139 248 338 c 0
 248 369 250 399 258 430 c 2
987 871 m 2
 797 871 l 1
 790 835 l 2
 771 745 681 671 591 671 c 2
 399 671 l 1
 346 430 l 2
 342 406 340 380 340 356 c 0
 340 195 455 74 626 74 c 0
 824 74 1016 233 1059 430 c 2
 1110 671 l 2
 1115 692 1117 709 1117 728 c 0
 1117 810 1074 871 987 871 c 2
EndSplineSet
EndChar
StartChar: uni0E0B
Encoding: 219 3595 235
Width: 1221
VWidth: 2982
Flags: W
HStem: -15 89<468.545 802.671> 671 90<399 684.736> 871 90<818 1085.81> 1174 20G<481.557 518.5 757.582 867 1216.41 1309>
VStem: 248 92<200.285 420.764> 1117 90<675.398 841.298>
Fore
818 961 m 1
 1008 961 l 2
 1115 961 1188 1047 1213 1155 c 2
 1220 1194 l 1
 1309 1194 l 1
 1303 1155 l 2
 1280 1055 1211 965 1121 914 c 1
 1175 873 1207 806 1207 732 c 0
 1207 712 1204 692 1200 671 c 2
 1149 430 l 2
 1097 186 853 -15 609 -15 c 0
 396 -15 248 139 248 338 c 0
 248 369 250 399 258 430 c 2
 329 761 l 1
 609 761 l 2
 651 761 692 795 701 835 c 2
 745 1053 l 1
 575 889 l 1
 564 931 542 1063 436 1130 c 1
 497 1209 l 1
 540 1182 596 1126 628 1053 c 1
 779 1194 l 1
 867 1194 l 1
 818 961 l 1
399 671 m 1
 346 430 l 2
 342 406 340 380 340 356 c 0
 340 195 455 74 626 74 c 0
 824 74 1016 233 1059 430 c 2
 1110 671 l 2
 1115 692 1117 709 1117 728 c 0
 1117 810 1074 871 987 871 c 2
 797 871 l 1
 790 835 l 2
 771 745 681 671 591 671 c 2
 399 671 l 1
EndSplineSet
EndChar
StartChar: uni0E0C
Encoding: 220 3596 236
Width: 1886
VWidth: 2982
Flags: W
HStem: -17 89<1285.64 1561.94> 0 90<275 346> 1119 90<628.406 973.558>
VStem: 1097 89<778.555 996.199>
Fore
393 90 m 1x70
 346 0 l 1
 168 0 l 1x70
 284 553 l 2
 302 638 378 716 446 759 c 1
 307 842 l 1
 432 1119 679 1209 826 1209 c 0
 1041 1209 1186 1057 1186 855 c 0
 1186 826 1184 795 1177 763 c 2
 1132 553 l 2
 1126 526 1124 497 1124 470 c 0
 1124 278 1251 72 1412 72 c 0
 1551 72 1666 154 1724 427 c 2
 1887 1194 l 1
 1976 1194 l 1
 1813 427 l 2
 1743 105 1587 -17 1392 -17 c 0xb0
 1238 -17 1128 128 1077 295 c 1
 1014 0 l 1
 925 0 l 1
 1088 763 l 2
 1094 792 1097 820 1097 844 c 0
 1097 1019 965 1119 808 1119 c 0
 665 1119 493 1038 401 859 c 1
 549 763 l 1
 455 724 399 671 374 553 c 2
 275 90 l 1
 393 90 l 1x70
EndSplineSet
EndChar
StartChar: uni0E0D
Encoding: 221 3597 237
Width: 1886
VWidth: 2982
Flags: W
HStem: -342 84<1133.21 1429.93> -15 89<1201.27 1499.78> 0 90<275 346> 1119 90<628.406 973.558>
VStem: 1006 91<184.165 407.995> 1097 89<778.555 996.199>
Fore
393 90 m 1xbc
 346 0 l 1
 168 0 l 1xbc
 284 553 l 2
 302 638 378 716 446 759 c 1
 307 842 l 1
 432 1119 679 1209 826 1209 c 0
 1041 1209 1186 1057 1186 855 c 0
 1186 826 1184 795 1177 763 c 2
 1106 430 l 2
 1100 401 1097 372 1097 344 c 0
 1097 188 1198 74 1343 74 c 0
 1513 74 1688 231 1730 430 c 2
 1892 1194 l 1
 1976 1194 l 1
 1743 101 l 2
 1692 -141 1482 -342 1256 -342 c 0
 1126 -342 1030 -280 978 -181 c 1
 1066 -137 l 1
 1108 -213 1182 -258 1273 -258 c 0
 1444 -258 1617 -101 1659 98 c 2
 1670 145 l 1
 1578 47 1453 -15 1325 -15 c 0xdc
 1132 -15 1006 132 1006 327 c 0
 1006 359 1010 391 1016 427 c 2
 1088 763 l 2
 1094 792 1097 820 1097 844 c 0
 1097 1019 965 1119 808 1119 c 0
 665 1119 493 1038 401 859 c 1
 549 763 l 1
 455 724 399 671 374 553 c 2
 275 90 l 1
 393 90 l 1xbc
EndSplineSet
Substitution2: "Thai Descender Removal Single Substitution" uni0E0D.descless
EndChar
StartChar: uni0E0E
Encoding: 222 3598 238
Width: 1179
VWidth: 2982
Flags: W
HStem: -421 90<-27 307 837 855> 0 90<111 188> 1119 90<628.651 973.037>
VStem: 1094 92<783.081 998.474>
AnchorPoint: "BelowBase" 918 -444 basechar 0
Fore
62 0 m 1
 111 90 l 1
 188 90 l 1
 286 553 l 2
 305 638 378 716 446 759 c 1
 307 842 l 1
 432 1119 679 1209 828 1209 c 0
 1041 1209 1186 1059 1186 859 c 0
 1186 828 1182 797 1175 763 c 2
 925 -421 l 1
 795 -421 l 1
 581 -258 l 1
 316 -421 l 1
 -79 -421 l 1
 -27 -331 l 1
 307 -331 l 1
 598 -150 l 1
 837 -331 l 1
 855 -331 l 1
 1085 763 l 2
 1092 792 1094 822 1094 848 c 0
 1094 1021 963 1119 808 1119 c 0
 665 1119 493 1038 401 859 c 1
 546 763 l 1
 457 724 401 671 376 553 c 2
 258 0 l 1
 62 0 l 1
EndSplineSet
EndChar
StartChar: uni0E0F
Encoding: 223 3599 239
Width: 1179
VWidth: 2982
Flags: W
HStem: -421 90<-27 101 844 855> 0 90<111 188> 1119 90<628.651 973.037>
VStem: 1094 92<783.081 998.474>
AnchorPoint: "BelowBase" 918 -444 basechar 0
Fore
101 -331 m 1
 312 -137 l 1
 470 -316 l 1
 694 -137 l 1
 844 -331 l 1
 855 -331 l 1
 1085 763 l 2
 1092 792 1094 822 1094 848 c 0
 1094 1021 963 1119 808 1119 c 0
 665 1119 493 1038 401 859 c 1
 546 763 l 1
 457 724 401 671 376 553 c 2
 258 0 l 1
 62 0 l 1
 111 90 l 1
 188 90 l 1
 286 553 l 2
 305 638 378 716 446 759 c 1
 307 842 l 1
 432 1119 679 1209 828 1209 c 0
 1041 1209 1186 1059 1186 859 c 0
 1186 828 1182 797 1175 763 c 2
 925 -421 l 1
 788 -421 l 1
 667 -262 l 1
 453 -436 l 1
 295 -262 l 1
 124 -421 l 1
 -79 -421 l 1
 -27 -331 l 1
 101 -331 l 1
EndSplineSet
EndChar
StartChar: uni0E10
Encoding: 224 3600 240
Width: 1168
VWidth: 2982
Flags: W
HStem: -421 90<-40 87 831 844> 0 21G<914 1007.27> 553 90<726 1030> 1119 90<620.968 957.676>
VStem: 1083 92<771.051 993.11>
Fore
844 -331 m 1
 880 -158 l 1
 810 -158 l 1
 859 -69 l 1
 987 -69 l 1
 914 -421 l 1
 777 -421 l 1
 654 -262 l 1
 438 -436 l 1
 284 -262 l 1
 109 -421 l 1
 -90 -421 l 1
 -40 -331 l 1
 87 -331 l 1
 299 -137 l 1
 459 -316 l 1
 681 -137 l 1
 831 -331 l 1
 844 -331 l 1
1050 643 m 1
 1077 763 l 2
 1081 788 1083 812 1083 837 c 0
 1083 998 969 1119 797 1119 c 0
 600 1119 408 961 365 763 c 1
 275 763 l 1
 327 1010 571 1209 814 1209 c 0
 914 1209 996 1175 1059 1121 c 1
 1188 1198 l 1
 1224 1121 l 1
 1115 1059 l 1
 1155 1006 1175 933 1175 857 c 0
 1175 826 1173 795 1166 763 c 2
 1003 0 l 1
 914 0 l 1
 1030 553 l 1
 675 553 l 1
 726 643 l 1
 1050 643 l 1
EndSplineSet
Substitution2: "Thai Descender Removal Single Substitution" uni0E10.descless
EndChar
StartChar: uni0E11
Encoding: 225 3601 241
Width: 1221
VWidth: 2982
Flags: MW
HStem: 0 21G<168 262.221 967 1061.2> 1119 90<977.021 1168.35> 1130 79<295 356>
VStem: 434 173<889 1053> 1177 90<785.114 1111.07>
Fore
168 0 m 1
 284 555 l 1
 284 555 406 694 562 842 c 1
 607 1053 l 1
 434 889 l 1
 423 931 403 1063 295 1130 c 1
 356 1209 l 1xa8
 399 1182 455 1126 487 1053 c 1
 638 1194 l 1
 726 1194 l 1
 671 947 l 1
 831 1088 1000 1209 1108 1209 c 0xc8
 1231 1209 1267 1144 1267 1050 c 0
 1267 965 1238 855 1215 752 c 2
 1057 0 l 1
 967 0 l 1
 1126 752 l 2
 1149 850 1177 951 1177 1023 c 0
 1177 1081 1155 1119 1090 1119 c 0
 965 1119 589 777 369 526 c 1
 258 0 l 1
 168 0 l 1
EndSplineSet
EndChar
StartChar: uni0E12
Encoding: 226 3602 242
Width: 1946
VWidth: 2982
Flags: MW
HStem: -15 89<384.534 629.728 1349.36 1622.64> 636 90<575 742.552> 929 90<762.659 956.092>
VStem: 220 89<159.299 641.369> 792 92<260.134 589.679> 1168 90<833.456 1055.86>
Fore
491 74 m 0
 685 74 792 282 792 446 c 0
 792 551 748 636 640 636 c 2
 526 636 l 1
 575 726 l 1
 658 726 l 2
 814 726 884 609 884 466 c 0
 884 239 730 -15 472 -15 c 0
 297 -15 220 145 220 354 c 0
 220 665 387 1027 669 1211 c 1
 726 1083 790 1019 853 1019 c 0
 912 1019 996 1081 1110 1209 c 1
 1204 1135 1258 1025 1258 904 c 0
 1258 878 1256 850 1249 822 c 2
 1194 555 l 2
 1186 528 1184 502 1184 472 c 0
 1184 282 1312 74 1473 74 c 0
 1612 74 1726 158 1784 430 c 2
 1946 1194 l 1
 2035 1194 l 1
 1873 430 l 2
 1805 107 1647 -15 1453 -15 c 0
 1298 -15 1188 132 1137 297 c 1
 1074 0 l 1
 985 0 l 1
 1160 822 l 2
 1166 848 1168 875 1168 902 c 0
 1168 972 1147 1036 1102 1083 c 1
 1008 987 906 929 833 929 c 0
 752 929 681 985 626 1083 c 1
 410 912 309 585 309 367 c 0
 309 201 365 74 491 74 c 0
EndSplineSet
EndChar
StartChar: uni0E13
Encoding: 227 3603 243
Width: 1886
VWidth: 2982
Flags: W
HStem: -17 89<1134.85 1401.58> 0 90<275 346> 1119 90<628.406 973.558>
VStem: 994 91<120.831 339.049> 1097 89<778.555 996.199>
Fore
401 859 m 1xb8
 549 763 l 1
 455 724 399 671 374 553 c 2
 275 90 l 1
 393 90 l 1
 346 0 l 1
 168 0 l 1x78
 284 553 l 2
 302 638 378 716 446 759 c 1
 307 842 l 1
 432 1119 679 1209 826 1209 c 0
 1041 1209 1186 1057 1186 855 c 0
 1186 826 1184 795 1177 763 c 2
 1106 427 l 2
 1092 363 1085 312 1085 267 c 0
 1085 121 1155 72 1262 72 c 0xb8
 1448 72 1706 342 1751 553 c 2
 1887 1194 l 1
 1976 1194 l 1
 1721 0 l 1
 1632 0 l 1x78
 1694 295 l 1
 1574 128 1401 -17 1247 -17 c 0
 1092 -17 994 58 994 250 c 0
 994 302 1003 361 1016 427 c 2
 1088 763 l 2
 1094 792 1097 820 1097 844 c 0
 1097 1019 965 1119 808 1119 c 0
 665 1119 493 1038 401 859 c 1xb8
EndSplineSet
EndChar
StartChar: uni0E14
Encoding: 228 3604 244
Width: 1239
VWidth: 2982
Flags: W
HStem: -15 89<383.416 630.37> 636 90<575 742.552> 1119 90<685.11 1021.7>
VStem: 218 91<155.461 626.322> 792 92<258.641 589.679> 1155 92<770.981 988.245>
Fore
491 74 m 0
 675 74 792 269 792 446 c 0
 792 551 748 636 640 636 c 2
 526 636 l 1
 575 726 l 1
 658 726 l 2
 814 726 884 609 884 466 c 0
 884 228 720 -15 472 -15 c 0
 299 -15 218 139 218 346 c 0
 218 728 470 1209 880 1209 c 0
 1094 1209 1247 1057 1247 853 c 0
 1247 824 1245 795 1238 763 c 2
 1074 0 l 1
 985 0 l 1
 1149 763 l 2
 1153 788 1155 810 1155 835 c 0
 1155 996 1034 1119 861 1119 c 0
 530 1119 309 714 309 363 c 0
 309 195 367 74 491 74 c 0
EndSplineSet
EndChar
StartChar: uni0E15
Encoding: 229 3605 245
Width: 1239
VWidth: 2982
Flags: W
HStem: -15 89<384.534 629.728> 636 90<575 742.552> 929 90<762.659 956.092> 1189 20G<1053 1157>
VStem: 220 89<159.299 641.369> 792 92<260.134 589.679> 1168 90<833.456 1055.86>
Fore
491 74 m 0
 685 74 792 282 792 446 c 0
 792 551 748 636 640 636 c 2
 526 636 l 1
 575 726 l 1
 658 726 l 2
 814 726 884 609 884 466 c 0
 884 239 730 -15 472 -15 c 0
 297 -15 220 145 220 354 c 0
 220 665 387 1027 669 1211 c 1
 726 1083 790 1019 853 1019 c 0
 912 1019 996 1081 1110 1209 c 1
 1204 1135 1258 1025 1258 904 c 0
 1258 878 1256 850 1249 822 c 2
 1074 0 l 1
 985 0 l 1
 1160 822 l 2
 1166 848 1168 875 1168 902 c 0
 1168 972 1147 1036 1102 1083 c 1
 1008 987 906 929 833 929 c 0
 752 929 681 985 626 1083 c 1
 410 912 309 585 309 367 c 0
 309 201 365 74 491 74 c 0
EndSplineSet
EndChar
StartChar: uni0E16
Encoding: 230 3606 246
Width: 1179
VWidth: 2982
Flags: W
HStem: 0 90<275 346> 1119 90<628.406 973.558>
VStem: 1097 89<778.555 996.199>
Fore
401 859 m 1
 549 763 l 1
 455 724 399 671 374 553 c 2
 275 90 l 1
 393 90 l 1
 346 0 l 1
 168 0 l 1
 284 553 l 2
 302 638 378 716 446 759 c 1
 307 842 l 1
 432 1119 679 1209 826 1209 c 0
 1041 1209 1186 1057 1186 855 c 0
 1186 826 1184 795 1177 763 c 2
 1014 0 l 1
 925 0 l 1
 1088 763 l 2
 1094 792 1097 820 1097 844 c 0
 1097 1019 965 1119 808 1119 c 0
 665 1119 493 1038 401 859 c 1
EndSplineSet
EndChar
StartChar: uni0E17
Encoding: 231 3607 247
Width: 1221
VWidth: 2982
Flags: W
HStem: 0 21G<168 262.169 967 1061.27> 1119 90<798.36 1078.18>
VStem: 1144 91<811.702 1049.57>
Fore
168 0 m 1
 421 1194 l 1
 510 1194 l 1
 438 859 l 1
 581 1041 795 1209 959 1209 c 0
 1157 1209 1235 1081 1235 908 c 0
 1235 861 1231 814 1220 763 c 2
 1057 0 l 1
 967 0 l 1
 1130 763 l 2
 1139 806 1144 848 1144 891 c 0
 1144 1014 1097 1119 940 1119 c 0
 752 1119 436 842 391 638 c 2
 258 0 l 1
 168 0 l 1
EndSplineSet
EndChar
StartChar: uni0E18
Encoding: 232 3608 248
Width: 1221
VWidth: 2982
Flags: W
HStem: 0 90<275 810.293> 553 90<393 1083> 1119 90<674.611 1008.77>
VStem: 1137 92<774.282 993.426>
Fore
168 0 m 1
 265 455 l 1
 354 455 l 1
 275 90 l 1
 632 90 l 2
 828 90 1021 248 1061 446 c 2
 1083 553 l 1
 284 553 l 1
 329 763 l 2
 380 1010 624 1209 869 1209 c 0
 1081 1209 1229 1057 1229 855 c 0
 1229 826 1226 795 1220 763 c 1
 1130 763 l 1
 1135 788 1137 812 1137 837 c 0
 1137 998 1023 1119 850 1119 c 0
 654 1119 461 961 419 763 c 2
 393 643 l 1
 1194 643 l 1
 1151 446 l 2
 1100 199 857 0 611 0 c 2
 168 0 l 1
EndSplineSet
EndChar
StartChar: uni0E19
Encoding: 233 3609 249
Width: 1221
VWidth: 2982
Flags: W
HStem: -9 90<400.444 681.089> 1174 20G<416.752 510 1215.77 1309>
VStem: 242 91<148.751 376.895>
Fore
421 1194 m 1
 510 1194 l 1
 349 436 l 2
 340 393 333 349 333 307 c 0
 333 184 383 81 540 81 c 0
 734 81 1043 359 1085 555 c 2
 1220 1194 l 1
 1309 1194 l 1
 1057 0 l 1
 967 0 l 1
 1038 333 l 1
 895 152 681 -9 519 -9 c 0
 322 -9 242 116 242 289 c 0
 242 336 248 385 260 436 c 2
 421 1194 l 1
EndSplineSet
EndChar
StartChar: uni0E1A
Encoding: 234 3610 250
Width: 1221
VWidth: 2982
Flags: W
HStem: -15 89<468.545 802.671> 1174 20G<416.733 510 1215.79 1309>
VStem: 248 92<200.285 420.764>
Fore
421 1194 m 1
 510 1194 l 1
 346 430 l 2
 342 406 340 380 340 356 c 0
 340 195 455 74 626 74 c 0
 824 74 1016 233 1059 430 c 2
 1220 1194 l 1
 1309 1194 l 1
 1149 430 l 2
 1097 186 853 -15 609 -15 c 0
 396 -15 248 139 248 338 c 0
 248 369 250 399 258 430 c 2
 421 1194 l 1
EndSplineSet
EndChar
StartChar: uni0E1B
Encoding: 235 3611 251
Width: 1221
VWidth: 2982
Flags: W
HStem: -15 89<465.004 803.101> 1174 20G<416.785 510>
VStem: 250 90<198.937 414.985>
AnchorPoint: "AboveBase" 1132 1271 basechar 0
Fore
421 1194 m 1
 510 1194 l 1
 349 430 l 2
 342 403 340 378 340 354 c 0
 340 192 457 74 626 74 c 0
 824 74 1016 233 1059 430 c 2
 1285 1493 l 1
 1374 1493 l 1
 1149 430 l 2
 1097 186 855 -15 609 -15 c 0
 396 -15 250 137 250 338 c 0
 250 367 252 399 260 430 c 2
 421 1194 l 1
EndSplineSet
EndChar
StartChar: uni0E1C
Encoding: 236 3612 252
Width: 1311
VWidth: 2982
Flags: W
HStem: -15 89<360.666 550.727 783.787 1014.02> 1108 90<565.061 656>
VStem: 218 91<129.303 635.075>
Fore
656 1108 m 1
 487 1108 309 679 309 340 c 0
 309 184 352 74 436 74 c 0
 598 74 660 258 679 340 c 2
 859 1194 l 1
 947 1194 l 1
 765 340 l 2
 759 305 752 269 752 233 c 0
 752 145 786 74 891 74 c 0
 1036 74 1102 215 1128 340 c 2
 1309 1194 l 1
 1399 1194 l 1
 1218 340 l 2
 1166 92 1021 -15 871 -15 c 0
 777 -15 707 60 681 154 c 1
 613 60 513 -15 419 -15 c 0
 289 -15 218 114 218 322 c 0
 218 651 401 1198 675 1198 c 1
 656 1108 l 1
EndSplineSet
EndChar
StartChar: uni0E1D
Encoding: 237 3613 253
Width: 1311
VWidth: 2982
Flags: W
HStem: -15 89<360.666 551.124 784.977 1014.32> 1108 90<565.061 656>
VStem: 218 91<129.303 637.036>
AnchorPoint: "AboveBase" 1222 1271 basechar 0
Fore
656 1108 m 1
 487 1108 309 681 309 340 c 0
 309 184 352 74 436 74 c 0
 598 74 660 258 679 340 c 2
 859 1194 l 1
 944 1194 l 1
 763 340 l 2
 756 305 752 269 752 235 c 0
 752 148 784 74 891 74 c 0
 1036 74 1102 215 1128 340 c 2
 1374 1493 l 1
 1464 1493 l 1
 1218 340 l 2
 1166 92 1021 -15 873 -15 c 0
 777 -15 709 60 681 154 c 1
 613 60 515 -15 419 -15 c 0
 289 -15 218 114 218 322 c 0
 218 658 401 1198 675 1198 c 1
 656 1108 l 1
EndSplineSet
EndChar
StartChar: uni0E1E
Encoding: 238 3614 254
Width: 1365
VWidth: 2982
Flags: W
HStem: -15 89<352.802 582.337 825.327 1064.14> 1174 20G<416.738 510 888.761 983 1358.76 1453>
VStem: 226 92<107.238 304.223>
Fore
421 1194 m 1
 510 1194 l 1
 329 340 l 2
 322 307 318 271 318 237 c 0
 318 148 352 74 461 74 c 0
 624 74 692 244 712 340 c 2
 893 1194 l 1
 983 1194 l 1
 801 340 l 2
 795 307 790 273 790 239 c 0
 790 150 824 74 936 74 c 0
 1088 74 1155 215 1182 340 c 2
 1363 1194 l 1
 1453 1194 l 1
 1271 340 l 2
 1220 92 1072 -15 916 -15 c 0
 818 -15 748 60 716 158 c 1
 645 60 544 -15 446 -15 c 0
 318 -15 226 56 226 218 c 0
 226 255 231 295 239 340 c 2
 421 1194 l 1
EndSplineSet
EndChar
StartChar: uni0E1F
Encoding: 239 3615 255
Width: 1365
VWidth: 2982
Flags: W
HStem: -15 89<352.802 582.462 825.6 1064.44> 1174 20G<416.738 510 886.738 980>
VStem: 226 92<108.46 304.654>
AnchorPoint: "AboveBase" 1276 1271 basechar 0
Fore
421 1194 m 1
 510 1194 l 1
 329 340 l 2
 322 307 318 271 318 237 c 0
 318 148 352 74 461 74 c 0
 624 74 690 244 709 340 c 2
 891 1194 l 1
 980 1194 l 1
 799 340 l 2
 792 307 788 273 788 242 c 0
 788 150 824 74 936 74 c 0
 1088 74 1155 215 1182 340 c 2
 1429 1493 l 1
 1518 1493 l 1
 1271 340 l 2
 1220 92 1072 -15 918 -15 c 0
 820 -15 748 60 716 158 c 1
 647 60 544 -15 446 -15 c 0
 318 -15 226 58 226 222 c 0
 226 258 231 295 239 340 c 2
 421 1194 l 1
EndSplineSet
EndChar
StartChar: uni0E20
Encoding: 240 3616 256
Width: 1179
VWidth: 2982
Flags: W
HStem: 0 90<111 186> 1119 90<628.406 973.558>
VStem: 1097 89<778.555 996.199>
Fore
401 859 m 1
 549 763 l 1
 455 724 399 671 374 553 c 2
 258 0 l 1
 62 0 l 1
 111 90 l 1
 186 90 l 1
 284 553 l 2
 302 638 378 716 446 759 c 1
 307 842 l 1
 432 1119 679 1209 826 1209 c 0
 1041 1209 1186 1057 1186 855 c 0
 1186 826 1184 795 1177 763 c 2
 1014 0 l 1
 925 0 l 1
 1088 763 l 2
 1094 792 1097 820 1097 844 c 0
 1097 1019 965 1119 808 1119 c 0
 665 1119 493 1038 401 859 c 1
EndSplineSet
EndChar
StartChar: uni0E21
Encoding: 241 3617 257
Width: 1221
VWidth: 2982
Flags: W
HStem: -15 89<581.01 867.942> 1174 20G<416.762 510 1215.79 1309>
Fore
421 1194 m 1
 510 1194 l 1
 374 555 l 2
 369 537 368 517 368 496 c 0
 368 302 545 74 716 74 c 0
 929 74 1023 267 1059 430 c 2
 1220 1194 l 1
 1309 1194 l 1
 1149 430 l 2
 1097 188 949 -15 698 -15 c 0
 534 -15 393 152 327 333 c 1
 258 0 l 1
 168 0 l 1
 421 1194 l 1
EndSplineSet
EndChar
StartChar: uni0E22
Encoding: 242 3618 258
Width: 1192
VWidth: 2982
Flags: W
HStem: -15 89<420.37 791.762> 707 79<396 491 533.238 732> 1108 90<636.169 818>
VStem: 199 94<195.735 494.91>
Fore
732 707 m 1
 534 707 293 573 293 336 c 0
 293 177 423 74 600 74 c 0
 797 74 985 205 1025 401 c 2
 1194 1194 l 1
 1280 1194 l 1
 1113 401 l 2
 1059 152 822 -15 579 -15 c 0
 367 -15 199 107 199 312 c 0
 199 521 354 667 491 707 c 1
 286 707 l 1
 297 752 l 2
 349 996 591 1198 837 1198 c 1
 818 1108 l 1
 636 1108 457 974 399 797 c 2
 396 786 l 1
 779 786 l 1
 732 707 l 1
EndSplineSet
EndChar
StartChar: uni0E23
Encoding: 243 3619 259
Width: 1221
VWidth: 2982
Flags: W
HStem: -15 89<626 799.839> 553 90<393 1083> 1119 90<674.611 1008.77>
VStem: 1137 92<774.282 993.426>
Fore
1194 643 m 1
 1149 430 l 2
 1097 186 853 -15 609 -15 c 1
 626 74 l 1
 824 74 1016 233 1059 430 c 2
 1083 553 l 1
 284 553 l 1
 329 763 l 2
 380 1010 624 1209 869 1209 c 0
 1081 1209 1229 1057 1229 855 c 0
 1229 826 1226 795 1220 763 c 1
 1130 763 l 1
 1135 788 1137 812 1137 837 c 0
 1137 998 1023 1119 850 1119 c 0
 654 1119 461 961 419 763 c 2
 393 643 l 1
 1194 643 l 1
EndSplineSet
EndChar
StartChar: uni0E24
Encoding: 244 3620 260
Width: 1179
VWidth: 2982
Flags: W
HStem: -455 21G<828 922.253> 0 90<275 346> 1119 90<628.406 973.558>
VStem: 1097 89<778.555 996.199>
Fore
401 859 m 1
 549 763 l 1
 455 724 399 671 374 553 c 2
 275 90 l 1
 393 90 l 1
 346 0 l 1
 168 0 l 1
 284 553 l 2
 302 638 378 716 446 759 c 1
 307 842 l 1
 432 1119 679 1209 826 1209 c 0
 1041 1209 1186 1057 1186 855 c 0
 1186 826 1184 795 1177 763 c 2
 918 -455 l 1
 828 -455 l 1
 1088 763 l 2
 1094 792 1097 820 1097 844 c 0
 1097 1019 965 1119 808 1119 c 0
 665 1119 493 1038 401 859 c 1
EndSplineSet
EndChar
StartChar: uni0E25
Encoding: 245 3621 261
Width: 1221
VWidth: 2982
Flags: W
HStem: -15 89<471.015 609> 553 90<374 1083> 1119 90<674.611 1008.77>
VStem: 248 92<200.285 420.764> 1137 92<774.282 993.426>
Fore
967 0 m 1
 1083 553 l 1
 374 553 l 1
 346 430 l 2
 342 406 340 380 340 356 c 0
 340 195 455 74 626 74 c 1
 609 -15 l 1
 396 -15 248 139 248 338 c 0
 248 369 250 399 258 430 c 2
 305 643 l 1
 1104 643 l 1
 1130 763 l 2
 1135 788 1137 812 1137 837 c 0
 1137 998 1023 1119 850 1119 c 0
 654 1119 461 961 419 763 c 1
 329 763 l 1
 380 1010 624 1209 869 1209 c 0
 1081 1209 1229 1057 1229 855 c 0
 1229 826 1226 795 1220 763 c 2
 1057 0 l 1
 967 0 l 1
EndSplineSet
EndChar
StartChar: uni0E26
Encoding: 246 3622 262
Width: 1179
VWidth: 2982
Flags: W
HStem: -455 21G<828 922.253> 0 90<111 186> 1119 90<628.406 973.558>
VStem: 1097 89<778.555 996.199>
Fore
401 859 m 1
 549 763 l 1
 455 724 399 671 374 553 c 2
 258 0 l 1
 62 0 l 1
 111 90 l 1
 186 90 l 1
 284 553 l 2
 302 638 378 716 446 759 c 1
 307 842 l 1
 432 1119 679 1209 826 1209 c 0
 1041 1209 1186 1057 1186 855 c 0
 1186 826 1184 795 1177 763 c 2
 918 -455 l 1
 828 -455 l 1
 1088 763 l 2
 1094 792 1097 820 1097 844 c 0
 1097 1019 965 1119 808 1119 c 0
 665 1119 493 1038 401 859 c 1
EndSplineSet
EndChar
StartChar: uni0E27
Encoding: 247 3623 263
Width: 1213
VWidth: 2982
Flags: W
HStem: -15 89<439.041 769.567> 1119 90<654.763 980.599>
VStem: 192 94<173.884 333> 1147 88<499.721 940.458>
Fore
1235 748 m 0
 1235 363 912 -15 585 -15 c 0
 376 -15 222 116 192 333 c 1
 286 369 l 1
 314 168 453 74 604 74 c 0
 859 74 1147 387 1147 734 c 0
 1147 961 1012 1119 826 1119 c 0
 667 1119 500 1003 393 826 c 1
 318 859 l 1
 438 1063 638 1209 844 1209 c 0
 1083 1209 1235 1010 1235 748 c 0
EndSplineSet
EndChar
StartChar: uni0E28
Encoding: 248 3624 264
Width: 1221
VWidth: 2982
Flags: W
HStem: 0 21G<168 262.195 967 1061.27> 553 90<393 698> 1121 90<674.844 1011.68>
VStem: 1137 92<774.289 993.838>
Fore
967 0 m 1
 1130 763 l 2
 1135 788 1137 812 1137 837 c 0
 1137 998 1023 1121 850 1121 c 0
 654 1121 461 961 419 763 c 2
 393 643 l 1
 748 643 l 1
 698 553 l 1
 374 553 l 1
 258 0 l 1
 168 0 l 1
 329 767 l 2
 383 1012 624 1211 869 1211 c 0
 974 1211 1061 1175 1124 1117 c 1
 1251 1209 l 1
 1301 1147 l 1
 1175 1055 l 1
 1211 998 1229 931 1229 857 c 0
 1229 826 1226 795 1220 763 c 2
 1057 0 l 1
 967 0 l 1
EndSplineSet
EndChar
StartChar: uni0E29
Encoding: 249 3625 265
Width: 1219
VWidth: 2982
Flags: W
HStem: -15 89<463.7 801.641> 669 90<808 1106 1215 1269> 1174 20G<416.733 510 1213.77 1307>
VStem: 248 92<197.456 420.764>
Fore
421 1194 m 1
 510 1194 l 1
 346 430 l 2
 342 406 340 380 340 356 c 0
 340 195 453 74 624 74 c 0
 822 74 1014 233 1055 430 c 2
 1106 669 l 1
 701 669 l 1
 730 808 l 1
 826 839 l 1
 808 759 l 1
 1126 759 l 1
 1218 1194 l 1
 1307 1194 l 1
 1215 759 l 1
 1318 759 l 1
 1269 669 l 1
 1198 669 l 1
 1149 430 l 2
 1097 186 853 -15 609 -15 c 0
 396 -15 248 139 248 338 c 0
 248 369 250 399 258 430 c 2
 421 1194 l 1
EndSplineSet
EndChar
StartChar: uni0E2A
Encoding: 250 3626 266
Width: 1221
VWidth: 2982
Flags: W
HStem: -15 89<471.015 609> 553 90<374 1083> 1119 92<669.474 1011.68>
VStem: 248 92<200.285 420.764> 1137 92<774.289 993.544>
Fore
419 767 m 1
 329 767 l 1
 383 1012 624 1211 869 1211 c 0
 974 1211 1061 1175 1124 1117 c 1
 1251 1209 l 1
 1301 1147 l 1
 1175 1055 l 1
 1211 998 1229 931 1229 857 c 0
 1229 826 1226 795 1220 763 c 2
 1057 0 l 1
 967 0 l 1
 1083 553 l 1
 374 553 l 1
 346 430 l 2
 342 406 340 380 340 356 c 0
 340 195 455 74 626 74 c 1
 609 -15 l 1
 396 -15 248 139 248 338 c 0
 248 369 250 399 258 430 c 2
 305 643 l 1
 1104 643 l 1
 1130 763 l 2
 1135 788 1137 812 1137 837 c 0
 1137 998 1023 1119 850 1119 c 0
 654 1119 461 965 419 767 c 1
EndSplineSet
EndChar
StartChar: uni0E2B
Encoding: 251 3627 267
Width: 1221
VWidth: 2982
Flags: W
HStem: 0 21G<168 262.173 967 1061.19> 949 70<900 1031.32> 1174 20G<416.762 510 1073.5 1223.89>
VStem: 1104 90<628.891 873.704>
Fore
421 1194 m 1
 510 1194 l 1
 393 643 l 1
 566 904 976 1155 1171 1198 c 1
 1290 1153 l 1
 1168 1130 1043 1074 953 1019 c 1
 1121 1019 1194 884 1194 716 c 0
 1194 669 1188 622 1177 573 c 2
 1057 0 l 1
 967 0 l 1
 1088 573 l 2
 1097 613 1104 658 1104 703 c 0
 1104 831 1055 949 900 949 c 0
 745 949 385 589 340 393 c 2
 258 0 l 1
 168 0 l 1
 421 1194 l 1
EndSplineSet
EndChar
StartChar: uni0E2C
Encoding: 252 3628 268
Width: 1365
VWidth: 2982
Flags: W
HStem: -15 89<352.952 588.416 824.644 1064.44> 1104 90<1074 1248.34>
VStem: 226 92<108.821 304.828> 1312 87<912.175 1075.49>
AnchorPoint: "AboveBase" 1276 1271 basechar 0
Fore
1497 1403 m 1
 1482 1290 1397 1194 1316 1147 c 1
 1367 1106 1399 1041 1399 965 c 0
 1399 944 1397 925 1392 904 c 2
 1271 340 l 2
 1220 92 1072 -15 918 -15 c 0
 820 -15 741 30 709 128 c 1
 640 30 544 -15 446 -15 c 0
 318 -15 226 58 226 222 c 0
 226 258 231 295 239 340 c 2
 421 1194 l 1
 510 1194 l 1
 329 340 l 2
 322 307 318 273 318 239 c 0
 318 150 352 74 463 74 c 0
 626 74 690 244 709 340 c 2
 891 1194 l 1
 980 1194 l 1
 799 340 l 2
 792 307 788 273 788 242 c 0
 788 150 824 74 936 74 c 0
 1088 74 1155 215 1182 340 c 2
 1305 912 l 2
 1309 931 1312 949 1312 967 c 0
 1312 1047 1269 1104 1182 1104 c 2
 1057 1104 l 1
 1074 1194 l 1
 1200 1194 l 2
 1243 1194 1367 1207 1408 1403 c 1
 1497 1403 l 1
EndSplineSet
EndChar
StartChar: uni0E2D
Encoding: 253 3629 269
Width: 1329
VWidth: 2982
Flags: W
HStem: -11 90<508.338 865.307> 553 90<329 750> 1117 90<699.036 1069.09>
VStem: 233 92<273.421 547.389> 1254 98<505.613 922.298>
CounterMasks: 1 e0
Fore
1352 737 m 0
 1352 349 1006 -11 662 -11 c 0
 403 -11 233 192 233 459 c 0
 233 504 239 551 248 598 c 2
 260 643 l 1
 801 643 l 1
 750 553 l 1
 329 553 l 1
 325 526 325 502 325 477 c 0
 325 246 468 79 679 79 c 0
 959 79 1254 378 1254 720 c 0
 1254 949 1113 1117 902 1117 c 0
 701 1117 500 991 399 781 c 1
 318 806 l 1
 438 1057 681 1207 922 1207 c 0
 1182 1207 1352 1003 1352 737 c 0
EndSplineSet
EndChar
StartChar: uni0E2E
Encoding: 254 3630 270
Width: 1329
VWidth: 2982
Flags: W
HStem: -11 90<508.338 861.437> 553 90<329 750> 1117 90<699.036 1071.87>
VStem: 233 92<273.421 547.389> 1254 98<502.149 921.654>
CounterMasks: 1 e0
Fore
1352 737 m 0
 1352 374 1027 -11 662 -11 c 0
 403 -11 233 192 233 459 c 0
 233 504 239 551 248 598 c 2
 260 643 l 1
 801 643 l 1
 750 553 l 1
 329 553 l 1
 325 526 325 502 325 477 c 0
 325 246 468 79 679 79 c 0
 959 79 1254 378 1254 720 c 0
 1254 949 1113 1117 902 1117 c 0
 701 1117 500 991 399 781 c 1
 318 806 l 1
 438 1057 681 1207 922 1207 c 0
 1030 1207 1119 1171 1191 1113 c 1
 1312 1198 l 1
 1363 1137 l 1
 1247 1055 l 1
 1314 972 1352 861 1352 737 c 0
EndSplineSet
EndChar
StartChar: uni0E2F
Encoding: 255 3631 271
Width: 1125
VWidth: 2982
Flags: W
HStem: 0 21G<871 965.255> 767 90<485.55 770.056> 1121 90<501.448 638>
VStem: 325 89<888.859 1043.77>
Fore
638 1121 m 1
 513 1121 414 1021 414 955 c 0
 414 878 534 857 581 857 c 0
 839 857 1092 1128 1126 1194 c 1
 1215 1194 l 1
 961 0 l 1
 871 0 l 1
 1090 1027 l 1
 980 916 781 767 566 767 c 0
 448 767 325 826 325 938 c 0
 325 1061 479 1211 658 1211 c 1
 638 1121 l 1
EndSplineSet
EndChar
StartChar: uni0E30
Encoding: 256 3632 272
Width: 603
VWidth: 2982
Flags: W
HStem: 119 89<302 517> 869 90<461 675>
VStem: 192 534<119 959>
Fore
461 959 m 1
 726 959 l 1
 675 869 l 1
 352 869 l 1
 389 1045 l 1
 485 1074 l 1
 461 959 l 1
302 208 m 1
 566 208 l 1
 517 119 l 1
 192 119 l 1
 231 295 l 1
 327 325 l 1
 302 208 l 1
EndSplineSet
EndChar
StartChar: uni0E31
Encoding: 257 3633 273
Width: 0
VWidth: 2982
Flags: W
HStem: 1350 89<-156 508>
VStem: -267 854<1350 1439>
AnchorPoint: "AboveBase" 103 1271 mark 0
AnchorPoint: "AboveMark" 140 1657 basemark 0
Fore
-156 1439 m 1
 587 1439 l 1
 508 1350 l 1
 -267 1350 l 1
 -228 1525 l 1
 -132 1555 l 1
 -156 1439 l 1
EndSplineSet
EndChar
StartChar: uni0E32
Encoding: 258 3634 274
Width: 880
VWidth: 2982
Flags: W
HStem: 0 21G<626 720.299> 1119 90<451.074 737.78>
VStem: 803 92<808.709 1049.57>
Fore
626 0 m 1
 790 763 l 2
 799 806 803 848 803 891 c 0
 803 1014 756 1119 600 1119 c 0
 524 1119 427 1074 336 1010 c 1
 359 1110 l 1
 446 1171 538 1209 618 1209 c 0
 818 1209 895 1081 895 908 c 0
 895 861 891 814 880 763 c 2
 716 0 l 1
 626 0 l 1
EndSplineSet
EndChar
StartChar: uni0E33
Encoding: 259 3635 275
Width: 880
VWidth: 2982
Flags: W
HStem: 0 21G<626 720.299> 1119 90<451.074 737.78> 1316 70<49.8255 182.09> 1523 68<64.6108 190.277>
VStem: -17 66<1387.27 1511.05> 192 68<1399.35 1522> 803 92<808.709 1049.57>
Fore
626 0 m 1
 790 763 l 2
 799 806 803 848 803 891 c 0
 803 1014 756 1119 600 1119 c 0
 524 1119 427 1074 336 1010 c 1
 359 1110 l 1
 446 1171 538 1209 618 1209 c 0
 818 1209 895 1081 895 908 c 0
 895 861 891 814 880 763 c 2
 716 0 l 1
 626 0 l 1
-17 1426 m 0
 -17 1500 56 1591 150 1591 c 0
 215 1591 260 1544 260 1480 c 0
 260 1386 166 1316 92 1316 c 0
 27 1316 -17 1363 -17 1426 c 0
137 1523 m 0
 85 1523 49 1478 49 1439 c 0
 49 1408 72 1386 107 1386 c 0
 145 1386 192 1417 192 1466 c 0
 192 1500 171 1523 137 1523 c 0
EndSplineSet
MultipleSubs2: "Thai Sara Am Decomposition" uni0E4D uni0E32
Substitution2: "Thai Sara Am Lakkhang" uni0E32
LCarets2: 1 0 
EndChar
StartChar: uni0E34
Encoding: 260 3636 276
Width: 0
VWidth: 2982
Flags: W
HStem: 1350 89<-643 119>
VStem: -724 863<1350 1439>
AnchorPoint: "AboveMark" 140 1657 basemark 0
AnchorPoint: "AboveBase" 103 1271 mark 0
Fore
139 1439 m 1
 119 1350 l 1
 -724 1350 l 1
 -643 1439 l 1
 139 1439 l 1
EndSplineSet
LCarets2: 1 0 
EndChar
StartChar: uni0E35
Encoding: 261 3637 277
Width: 0
VWidth: 2982
Flags: W
HStem: 1350 89<-643 49>
VStem: -724 888<1350 1555>
AnchorPoint: "AboveMark" 140 1657 basemark 0
AnchorPoint: "AboveBase" 103 1271 mark 0
Fore
49 1439 m 1
 74 1555 l 1
 164 1555 l 1
 119 1350 l 1
 -724 1350 l 1
 -643 1439 l 1
 49 1439 l 1
EndSplineSet
LCarets2: 1 0 
EndChar
StartChar: uni0E36
Encoding: 262 3638 278
Width: 0
VWidth: 2982
Flags: W
HStem: 1350 89<-643 -36> 1350 67<33.0098 160.305> 1555 68<46.0064 172.175>
VStem: 173 66<1432.79 1552.86>
AnchorPoint: "AboveMark" 140 1657 basemark 0
AnchorPoint: "AboveBase" 103 1271 mark 0
Fore
239 1513 m 0xb0
 239 1419 145 1350 72 1350 c 2
 -724 1350 l 1x70
 -643 1439 l 1
 -36 1439 l 1
 -54 1493 11 1623 130 1623 c 0
 195 1623 239 1576 239 1513 c 0xb0
116 1555 m 0
 64 1555 32 1506 32 1473 c 0
 32 1442 54 1417 87 1417 c 0
 130 1417 173 1457 173 1502 c 0
 173 1533 150 1555 116 1555 c 0
EndSplineSet
EndChar
StartChar: uni0E37
Encoding: 263 3639 279
Width: 0
VWidth: 2982
Flags: W
HStem: 1350 205<-119 -54 74 119> 1350 89<-643 -143 -54 49>
VStem: -724 888<1350 1555>
AnchorPoint: "AboveMark" 44 1657 basemark 0
AnchorPoint: "AboveBase" 103 1271 mark 0
Fore
49 1439 m 1x60
 74 1555 l 1
 164 1555 l 1
 119 1350 l 1xa0
 -724 1350 l 1
 -643 1439 l 1
 -143 1439 l 1x60
 -119 1555 l 1
 -30 1555 l 1xa0
 -54 1439 l 1
 49 1439 l 1x60
EndSplineSet
EndChar
StartChar: uni0E38
Encoding: 264 3640 280
Width: 0
VWidth: 2982
Flags: W
HStem: -474 21G<-359 -264.747> -215 89<-361 -302>
VStem: -410 215<-215 -126>
AnchorPoint: "BelowBase" -186 -85 mark 0
Fore
-361 -126 m 1
 -195 -126 l 1
 -269 -474 l 1
 -359 -474 l 1
 -302 -215 l 1
 -410 -215 l 1
 -361 -126 l 1
EndSplineSet
Substitution2: "Thai Sara U Mai Ek Reordering" uni0E48.low
Substitution2: "Thai Sara U Mai Tho Reordering" uni0E49.low
Substitution2: "Thai Sara U Mai Tri Reordering" uni0E4A.low
Substitution2: "Thai Sara U Mai Chattawa Reordering" uni0E4B.low
Substitution2: "Thai Sara U Thanthakhat Reordering" uni0E4C.low
Substitution2: "Thai Sara U Nikhahit Reordering" uni0E4D
EndChar
StartChar: uni0E39
Encoding: 265 3641 281
Width: 0
VWidth: 2982
Flags: W
HStem: -491 90<-581.98 -376.994>
VStem: -698 91<-376.475 -252.749>
AnchorPoint: "BelowBase" -186 -85 mark 0
Fore
-716 -126 m 1
 -575 -126 l 1
 -602 -252 l 2
 -604 -265 -607 -275 -607 -284 c 0
 -607 -352 -557 -401 -487 -401 c 0
 -408 -401 -329 -333 -312 -252 c 2
 -284 -126 l 1
 -195 -126 l 1
 -222 -252 l 2
 -250 -385 -376 -491 -508 -491 c 0
 -622 -491 -698 -412 -698 -307 c 0
 -698 -289 -696 -271 -692 -252 c 2
 -683 -215 l 1
 -763 -215 l 1
 -716 -126 l 1
EndSplineSet
Substitution2: "Thai Sara UU Mai Ek Reordering" uni0E48.low
Substitution2: "Thai Sara UU Mai Tho Reordering" uni0E49.low
Substitution2: "Thai Sara UU Mai Tri Reordering" uni0E4A.low
Substitution2: "Thai Sara UU Mai Chattawa Reordering" uni0E4B.low
Substitution2: "Thai Sara UU Thanthakhat Reordering" uni0E4C.low
Substitution2: "Thai Sara UU Nikhahit Reordering" uni0E4D
EndChar
StartChar: uni0E3A
Encoding: 266 3642 282
Width: 0
VWidth: 2982
Flags: W
HStem: -258 151<-312.465 -187.79>
VStem: -327 154<-242.064 -122.965>
AnchorPoint: "BelowBase" -186 -85 mark 0
Fore
-327 -197 m 0
 -327 -145 -275 -107 -235 -107 c 0
 -197 -107 -173 -132 -173 -166 c 0
 -173 -211 -215 -258 -267 -258 c 0
 -302 -258 -327 -233 -327 -197 c 0
EndSplineSet
Substitution2: "Thai Phinthu Maitaikhu Reordering" uni0E47
Substitution2: "Thai Phinthu Mai Ek Reordering" uni0E48.low
Substitution2: "Thai Phinthu Mai Tho Reordering" uni0E49.low
Substitution2: "Thai Phinthu Mai Tri Reordering" uni0E4A.low
Substitution2: "Thai Phinthu Mai Chattawa Reordering" uni0E4B.low
Substitution2: "Thai Phinthu Thanthakhat Reordering" uni0E4C.low
Substitution2: "Thai Phinthu Nikhahit Reordering" uni0E4D
EndChar
StartChar: uni0E3F
Encoding: 267 3647 283
Width: 1219
VWidth: 2982
Flags: W
HStem: 0 90<250 463 573 878.439> 795 89<421 634 743 1008.26> 1403 90<530 763 873 1101.04>
VStem: 1157 88<345.286 655.644> 1194 86<1046.67 1313.21>
Fore
1245 526 m 0xf0
 1245 260 972 0 662 0 c 2
 553 0 l 1
 519 -150 l 1
 430 -150 l 1
 463 0 l 1
 143 0 l 1
 461 1493 l 1
 784 1493 l 1
 814 1641 l 1
 904 1641 l 1
 873 1493 l 1
 967 1493 l 2
 1153 1493 1280 1367 1280 1204 c 0xe8
 1280 1059 1182 918 1032 839 c 1
 1164 784 1245 667 1245 526 c 0xf0
839 884 m 2
 1014 884 1194 1019 1194 1184 c 0
 1194 1305 1097 1403 949 1403 c 2
 853 1403 l 1
 743 884 l 1
 839 884 l 2
685 90 m 2
 920 90 1157 284 1157 506 c 0xf0
 1157 665 1027 795 835 795 c 2
 724 795 l 1
 573 90 l 1
 685 90 l 2
654 884 m 1
 763 1403 l 1
 530 1403 l 1
 421 884 l 1
 654 884 l 1
483 90 m 1
 634 795 l 1
 401 795 l 1
 250 90 l 1
 483 90 l 1
EndSplineSet
EndChar
StartChar: uni0E40
Encoding: 268 3648 284
Width: 422
VWidth: 2982
Flags: W
HStem: 0 21G<168 262.221> 1174 20G<416.762 510>
VStem: 168 342<0 1194>
Fore
258 0 m 1
 168 0 l 1
 421 1194 l 1
 510 1194 l 1
 258 0 l 1
EndSplineSet
EndChar
StartChar: uni0E41
Encoding: 269 3649 285
Width: 690
VWidth: 2982
Flags: W
HStem: 0 21G<168 262.221 436 530.238> 1174 20G<416.762 510 685.745 779>
VStem: 168 611<0 1194>
Fore
258 0 m 1
 168 0 l 1
 421 1194 l 1
 510 1194 l 1
 258 0 l 1
526 0 m 1
 436 0 l 1
 690 1194 l 1
 779 1194 l 1
 526 0 l 1
EndSplineSet
EndChar
StartChar: uni0E42
Encoding: 270 3650 286
Width: 422
VWidth: 2982
Flags: W
HStem: 0 90<275 333> 1674 90<307 395.289 463 936>
VStem: 463 88<1364.45 1607.28>
Fore
168 0 m 1
 448 1318 l 2
 457 1361 463 1406 463 1448 c 0
 463 1572 414 1674 258 1674 c 1
 307 1764 l 1
 983 1764 l 1
 936 1674 l 1
 463 1674 l 1
 521 1625 551 1536 551 1437 c 0
 551 1399 546 1359 538 1318 c 2
 275 90 l 1
 383 90 l 1
 333 0 l 1
 168 0 l 1
EndSplineSet
EndChar
StartChar: uni0E43
Encoding: 271 3651 287
Width: 472
VWidth: 2982
Flags: W
HStem: 0 90<327 374> 1685 94<395.547 646.929>
VStem: 690 91<1472.61 1640.75>
Fore
218 0 m 1
 474 1207 l 2
 521 1439 690 1453 690 1555 c 0
 690 1614 626 1685 530 1685 c 0
 423 1685 329 1605 318 1540 c 1
 228 1540 l 1
 252 1659 403 1779 549 1779 c 0
 685 1779 781 1681 781 1578 c 0
 781 1412 607 1406 564 1209 c 2
 327 90 l 1
 423 90 l 1
 374 0 l 1
 218 0 l 1
EndSplineSet
EndChar
StartChar: uni0E44
Encoding: 272 3652 288
Width: 436
VWidth: 2982
Flags: W
HStem: 0 90<291 342> 1677 89<517 687>
VStem: 181 639<0 1766>
Fore
181 0 m 1
 470 1352 l 2
 502 1497 602 1600 687 1677 c 1
 517 1677 l 1
 378 1531 l 1
 258 1672 l 1
 282 1793 l 1
 403 1659 l 1
 497 1766 l 1
 820 1766 l 1
 803 1685 l 1
 705 1619 596 1520 557 1350 c 2
 291 90 l 1
 391 90 l 1
 342 0 l 1
 181 0 l 1
EndSplineSet
EndChar
StartChar: uni0E45
Encoding: 273 3653 289
Width: 880
VWidth: 2982
Flags: W
HStem: -455 21G<530 624.269> 1119 90<451.074 737.78>
VStem: 803 92<808.709 1049.57>
Fore
530 -455 m 1
 790 763 l 2
 799 806 803 848 803 891 c 0
 803 1014 756 1119 600 1119 c 0
 524 1119 427 1074 336 1010 c 1
 359 1110 l 1
 446 1171 538 1209 618 1209 c 0
 818 1209 895 1081 895 908 c 0
 895 861 891 814 880 763 c 2
 620 -455 l 1
 530 -455 l 1
EndSplineSet
EndChar
StartChar: uni0E46
Encoding: 274 3654 290
Width: 1177
VWidth: 2982
Flags: W
HStem: -455 21G<826 920.222> 579 90<423.359 600.825> 925 96<697.054 896.257> 1187 20G<568 622.375>
VStem: 299 86<707.624 970.653> 1104 92<831.966 1043.33>
Fore
553 1085 m 1
 448 1032 385 920 385 822 c 0
 385 737 432 669 540 669 c 0
 562 669 591 671 622 679 c 1
 624 591 l 1
 587 581 553 579 524 579 c 0
 372 579 299 679 299 799 c 0
 299 947 406 1126 577 1191 c 2
 613 1207 l 1
 628 1175 l 2
 687 1041 748 1021 788 1021 c 0
 826 1021 895 1041 1012 1175 c 2
 1043 1215 l 1
 1077 1188 l 2
 1153 1126 1196 1027 1196 918 c 0
 1196 886 1194 855 1186 824 c 2
 916 -455 l 1
 826 -455 l 1
 1097 818 l 2
 1102 842 1104 865 1104 886 c 0
 1104 963 1077 1030 1032 1081 c 1
 947 991 857 925 763 925 c 0
 669 925 602 994 553 1085 c 1
EndSplineSet
EndChar
StartChar: uni0E47
Encoding: 275 3655 291
Width: 0
VWidth: 2982
Flags: W
HStem: 1327 92<-54.1006 68.6431> 1350 89<-526.988 -430 16.4055 105> 1623 90<-500.936 231>
VStem: -624 86<1455.5 1586.13>
AnchorPoint: "AboveMark" -296 1271 mark 0
AnchorPoint: "AboveBase" 103 1271 mark 0
Fore
-624 1500 m 0x70
 -624 1625 -479 1713 -359 1713 c 2
 282 1713 l 1
 231 1623 l 1
 -380 1623 l 2
 -474 1623 -538 1560 -538 1518 c 0
 -538 1480 -500 1442 -430 1439 c 1x70
 -246 1542 l 1
 -69 1435 l 1
 -43 1424 -13 1419 15 1419 c 0xb0
 45 1419 74 1424 105 1433 c 1
 119 1350 l 1x70
 79 1337 36 1327 -4 1327 c 0xb0
 -47 1327 -87 1337 -121 1354 c 2
 -260 1442 l 1
 -423 1350 l 1
 -436 1350 l 2
 -534 1350 -624 1408 -624 1500 c 0x70
EndSplineSet
Substitution2: "Thai Mark High Variant" uni0E47.high
Substitution2: "Thai Phinthu Maitaikhu Reordering" uni0E3A
EndChar
StartChar: uni0E48
Encoding: 276 3656 292
Width: 0
VWidth: 2982
Flags: W
VStem: 101 141<1683 1927>
AnchorPoint: "AboveMark" 140 1657 mark 0
Fore
190 1683 m 1
 101 1683 l 1
 152 1927 l 1
 242 1927 l 1
 190 1683 l 1
EndSplineSet
MultipleSubs2: "Thai Tone Nikhahit Attachment" uni0E4D uni0E48
Substitution2: "Thai Tone Low Variant" uni0E48.low
Substitution2: "Thai Sara U Mai Ek Reordering" uni0E38
Substitution2: "Thai Sara UU Mai Ek Reordering" uni0E39
Substitution2: "Thai Phinthu Mai Ek Reordering" uni0E3A
LCarets2: 1 0 
EndChar
StartChar: uni0E49
Encoding: 277 3657 293
Width: 0
VWidth: 2982
Flags: W
HStem: 1683 90<30 361> 1835 90<-119 -55.7694>
AnchorPoint: "AboveMark" 140 1657 mark 0
Fore
36 1822 m 0
 36 1793 32 1782 30 1773 c 1
 410 1773 l 1
 361 1683 l 1
 -79 1683 l 1
 -56 1790 l 2
 -51 1807 -51 1833 -92 1835 c 2
 -168 1835 l 1
 -119 1925 l 1
 -72 1925 l 2
 20 1925 36 1865 36 1822 c 0
EndSplineSet
MultipleSubs2: "Thai Tone Nikhahit Attachment" uni0E4D uni0E49
Substitution2: "Thai Tone Low Variant" uni0E49.low
Substitution2: "Thai Sara U Mai Tho Reordering" uni0E38
Substitution2: "Thai Sara UU Mai Tho Reordering" uni0E39
Substitution2: "Thai Phinthu Mai Tho Reordering" uni0E3A
EndChar
StartChar: uni0E4A
Encoding: 278 3658 294
Width: 0
VWidth: 2982
Flags: W
HStem: 1683 90<-100.254 -51 457 701> 1905 90<-87.4496 111.205>
VStem: -195 94<1776.46 1886.55>
AnchorPoint: "AboveMark" 140 1657 mark 0
Fore
-195 1807 m 0
 -195 1894 -109 1995 36 1995 c 0
 137 1995 195 1934 208 1854 c 1
 389 1967 l 1
 500 1967 l 1
 457 1773 l 1
 750 1773 l 1
 701 1683 l 1
 349 1683 l 1
 389 1873 l 1
 143 1717 l 1
 139 1790 137 1905 20 1905 c 0
 -67 1905 -101 1856 -101 1826 c 0
 -101 1800 -85 1775 -51 1775 c 2
 -32 1775 l 1
 -51 1685 l 1
 -72 1685 l 2
 -152 1685 -195 1743 -195 1807 c 0
EndSplineSet
MultipleSubs2: "Thai Tone Nikhahit Attachment" uni0E4D uni0E4A
Substitution2: "Thai Tone Low Variant" uni0E4A.low
Substitution2: "Thai Sara U Mai Tri Reordering" uni0E38
Substitution2: "Thai Sara UU Mai Tri Reordering" uni0E39
Substitution2: "Thai Phinthu Mai Tri Reordering" uni0E3A
EndChar
StartChar: uni0E4B
Encoding: 279 3659 295
Width: 0
VWidth: 2982
Flags: W
HStem: 1775 85<54 121 228 295>
VStem: 36 280<1775 1862>
AnchorPoint: "AboveMark" 140 1657 mark 0
Fore
36 1775 m 1
 54 1860 l 1
 139 1860 l 1
 156 1952 l 1
 246 1952 l 1
 228 1862 l 1
 316 1862 l 1
 295 1773 l 1
 208 1773 l 1
 190 1683 l 1
 101 1683 l 1
 121 1775 l 1
 36 1775 l 1
EndSplineSet
MultipleSubs2: "Thai Tone Nikhahit Attachment" uni0E4D uni0E4B
Substitution2: "Thai Tone Low Variant" uni0E4B.low
Substitution2: "Thai Sara U Mai Chattawa Reordering" uni0E38
Substitution2: "Thai Sara UU Mai Chattawa Reordering" uni0E39
Substitution2: "Thai Phinthu Mai Chattawa Reordering" uni0E3A
EndChar
StartChar: uni0E4C
Encoding: 280 3660 296
Width: 0
VWidth: 2982
Flags: W
HStem: 1793 89<204 410>
VStem: 101 360<1683 1882>
AnchorPoint: "AboveMark" 140 1657 mark 0
Fore
101 1683 m 1
 114 1748 l 2
 121 1784 161 1882 278 1882 c 2
 461 1882 l 1
 410 1793 l 1
 258 1793 l 2
 220 1793 205 1764 203 1748 c 2
 190 1683 l 1
 101 1683 l 1
EndSplineSet
MultipleSubs2: "Thai Tone Nikhahit Attachment" uni0E4D uni0E4C
Substitution2: "Thai Tone Low Variant" uni0E4C.low
Substitution2: "Thai Sara U Thanthakhat Reordering" uni0E38
Substitution2: "Thai Sara UU Thanthakhat Reordering" uni0E39
Substitution2: "Thai Phinthu Thanthakhat Reordering" uni0E3A
EndChar
StartChar: uni0E4D
Encoding: 281 3661 297
Width: 0
VWidth: 2982
Flags: W
HStem: 1316 70<27.4373 155.686> 1523 68<41.3848 166.816>
VStem: -43 70<1387.14 1511.22> 168 69<1399.32 1521.92>
AnchorPoint: "AboveMark" 140 1657 basemark 0
AnchorPoint: "AboveBase" 183 1271 mark 0
Fore
-43 1426 m 0
 -43 1500 32 1591 126 1591 c 0
 192 1591 237 1544 237 1480 c 0
 237 1386 143 1316 67 1316 c 0
 2 1316 -43 1363 -43 1426 c 0
111 1523 m 0
 64 1523 27 1480 27 1437 c 0
 27 1408 49 1386 83 1386 c 0
 132 1386 168 1429 168 1471 c 0
 168 1502 145 1523 111 1523 c 0
EndSplineSet
Substitution2: "Thai Mark High Variant" uni0E4D.high
Substitution2: "Thai Sara U Nikhahit Reordering" uni0E38
Substitution2: "Thai Sara UU Nikhahit Reordering" uni0E39
Substitution2: "Thai Phinthu Nikhahit Reordering" uni0E3A
LCarets2: 1 0 
EndChar
StartChar: uni0E4E
Encoding: 282 3662 298
Width: 0
VWidth: 2982
Flags: W
HStem: 1459 72<-333.878 -98.674> 2131 74<302.463 387> 2140 73<84.2136 382.4>
VStem: -419 75<1547.3 1694.63> -150 76<1889.9 2037.51>
AnchorPoint: "AboveBase" 103 1271 mark 0
Fore
282 2140 m 0xb8
 101 2140 -74 2055 -74 1952 c 0
 -74 1901 -9 1873 54 1865 c 1
 119 1865 l 1
 32 1790 l 1
 4 1790 l 2
 -295 1790 -344 1641 -344 1605 c 0
 -344 1560 -289 1531 -224 1531 c 0
 -158 1531 -119 1558 -107 1574 c 1
 -51 1538 l 1
 -96 1484 -171 1459 -237 1459 c 0
 -342 1459 -419 1511 -419 1589 c 0
 -419 1643 -383 1807 -119 1854 c 1
 -137 1873 -150 1899 -150 1931 c 0
 -150 2095 74 2213 299 2213 c 0xb8
 336 2213 374 2211 414 2205 c 1
 387 2131 l 1xd8
 349 2138 314 2140 282 2140 c 0xb8
EndSplineSet
EndChar
StartChar: uni0E4F
Encoding: 283 3663 299
Width: 1465
VWidth: 2982
Flags: W
HStem: -15 94<551.744 967.13> 284 92<691.527 952.668> 820 92<771.682 1027.24> 1117 92<759.324 1169.13>
VStem: 237 92<299.445 697.088> 542 94<431.843 686.799> 1088 94<507.275 761.328> 1390 96<505.37 895.411>
Fore
237 470 m 0
 237 842 593 1209 991 1209 c 0
 1285 1209 1486 1000 1486 726 c 0
 1486 354 1128 -15 732 -15 c 0
 438 -15 237 192 237 470 c 0
969 1117 m 0
 649 1117 329 824 329 491 c 0
 329 255 500 79 748 79 c 0
 1066 79 1390 369 1390 705 c 0
 1390 940 1220 1117 969 1117 c 0
542 530 m 0
 542 720 726 912 929 912 c 0
 1079 912 1182 803 1182 662 c 0
 1182 479 1006 284 795 284 c 0
 645 284 542 389 542 530 c 0
908 820 m 0
 775 820 636 692 636 551 c 0
 636 450 707 376 814 376 c 0
 944 376 1088 497 1088 643 c 0
 1088 741 1014 820 908 820 c 0
EndSplineSet
EndChar
StartChar: uni0E50
Encoding: 284 3664 300
Width: 1401
VWidth: 2982
Flags: W
HStem: -15 89<514.666 933.075> 912 88<677.913 1097.57>
VStem: 215 94<261.146 594.185> 1303 94<390.128 724.02>
Fore
215 399 m 0
 215 701 538 1000 914 1000 c 0
 1196 1000 1397 826 1397 587 c 0
 1397 278 1070 -15 698 -15 c 0
 419 -15 215 158 215 399 c 0
895 912 m 0
 598 912 309 679 309 419 c 0
 309 226 472 74 716 74 c 0
 1014 74 1303 307 1303 566 c 0
 1303 759 1139 912 895 912 c 0
EndSplineSet
EndChar
StartChar: uni0E51
Encoding: 285 3665 301
Width: 1401
VWidth: 2982
Flags: W
HStem: -126 88<685 886.721> 96 90<419.57 765.965> 912 88<674.153 1105.31>
VStem: 218 91<293.168 594.588> 1303 92<374.021 724.874>
Fore
218 410 m 0
 218 692 532 1000 914 1000 c 0
 1191 1000 1395 828 1395 585 c 0
 1395 273 1085 -126 662 -126 c 1
 685 -38 l 1
 1043 -38 1303 309 1303 564 c 0
 1303 765 1135 912 895 912 c 0
 585 912 309 665 309 430 c 0
 309 280 430 186 581 186 c 0
 698 186 820 242 912 338 c 1
 972 284 l 1
 855 164 709 96 564 96 c 0
 372 96 218 218 218 410 c 0
EndSplineSet
EndChar
StartChar: uni0E52
Encoding: 286 3666 302
Width: 1401
VWidth: 2982
Flags: W
HStem: 0 90<408.533 1048.6> 239 90<598.049 671> 906 90<699.008 900.908 1109.69 1314.57>
VStem: 205 92<204.495 419.835> 361 92<1106.15 1246.31> 463 92<371.881 713.587> 1339 92<694.892 887.667>
Fore
463 502 m 0
 463 718 611 996 831 996 c 0
 916 996 978 955 1006 867 c 1
 1068 955 1155 996 1243 996 c 0
 1354 996 1431 925 1431 773 c 0
 1431 734 1426 692 1414 643 c 2
 1372 446 l 2
 1320 203 1100 0 871 0 c 2
 526 0 l 2
 331 0 205 148 205 342 c 0
 205 376 211 410 218 446 c 2
 344 1045 l 2
 356 1094 361 1130 361 1157 c 0
 361 1198 349 1218 331 1226 c 1
 385 1309 l 1
 438 1285 453 1233 453 1177 c 0
 453 1130 440 1081 434 1047 c 2
 307 448 l 2
 299 419 297 391 297 365 c 0
 297 205 401 90 546 90 c 2
 893 90 l 2
 1063 90 1241 248 1283 448 c 2
 1325 645 l 2
 1332 683 1339 724 1339 761 c 0
 1339 844 1312 912 1222 912 c 0
 1094 912 1032 767 1006 645 c 2
 976 508 l 1
 886 508 l 1
 916 643 l 2
 925 679 929 716 929 752 c 0
 929 835 900 906 810 906 c 0
 658 906 555 685 555 521 c 0
 555 412 600 329 690 329 c 1
 671 239 l 1
 540 239 463 346 463 502 c 0
EndSplineSet
EndChar
StartChar: uni0E53
Encoding: 287 3667 303
Width: 1401
VWidth: 2982
Flags: W
HStem: -15 89<369.603 448> 912 88<528.93 760.262 1003.81 1261.01>
VStem: 215 87<145.036 586.627> 1303 92<680.147 870.691>
Fore
215 316 m 0
 215 607 393 1000 662 1000 c 0
 767 1000 850 955 882 853 c 1
 959 955 1061 1000 1164 1000 c 0
 1296 1000 1395 929 1395 761 c 0
 1395 728 1390 687 1382 645 c 2
 1245 0 l 1
 1155 0 l 1
 1292 645 l 2
 1298 675 1303 709 1303 741 c 0
 1303 833 1265 912 1141 912 c 0
 978 912 906 771 880 645 c 2
 743 0 l 1
 654 0 l 1
 790 645 l 2
 797 675 801 709 801 741 c 0
 801 833 763 912 640 912 c 0
 459 912 302 598 302 331 c 0
 302 184 356 74 466 74 c 1
 448 -15 l 1
 278 -15 215 139 215 316 c 0
EndSplineSet
EndChar
StartChar: uni0E54
Encoding: 288 3668 304
Width: 1401
VWidth: 2982
Flags: W
HStem: -15 89<453.356 743.644> 27 87<886.452 1185.42> 463 90<846.774 989> 889 87<991.543 1382.84> 914 86<628.531 1197.21>
VStem: 177 88<259.45 609.271> 690 89<176.158 398.498>
Fore
177 408 m 0xa6
 177 763 546 1000 871 1000 c 0xae
 1038 1000 1139 976 1211 976 c 0
 1370 976 1493 1059 1540 1280 c 1
 1625 1280 l 1
 1558 965 1352 889 1191 889 c 0x36
 1102 889 1010 914 846 914 c 0
 553 914 265 703 265 430 c 0
 265 239 410 74 647 74 c 0xae
 685 74 730 81 773 90 c 1
 716 141 690 208 690 275 c 0
 690 396 795 553 1008 553 c 1
 989 463 l 1
 867 463 779 389 779 289 c 0
 779 224 820 152 918 107 c 1
 953 109 991 114 1032 114 c 0
 1130 114 1229 98 1309 56 c 1
 1254 -25 l 1
 1188 11 1106 27 1016 27 c 0x66
 848 27 756 -15 632 -15 c 0
 352 -15 177 177 177 408 c 0xa6
EndSplineSet
EndChar
StartChar: uni0E55
Encoding: 289 3669 305
Width: 1401
VWidth: 2982
Flags: W
HStem: -15 89<453.356 743.644> 27 87<886.452 1185.42> 463 90<846.774 989> 889 87<1115.23 1382.84> 914 86<826.404 997.887> 1173 83<848.174 1014.73>
VStem: 177 88<259.45 608.354> 690 89<176.158 398.498> 732 90<1017.08 1147.04> 1023 94<1025.53 1163.99>
Fore
1117 1117 m 0xa6c0
 1117 1066 1088 1016 1061 987 c 1
 1124 983 1171 976 1211 976 c 0
 1370 976 1493 1059 1540 1280 c 1
 1625 1280 l 1
 1558 965 1352 889 1191 889 c 0xb6c0
 1110 889 1006 914 846 914 c 0
 553 914 265 703 265 430 c 0
 265 239 410 74 647 74 c 0xaec0
 685 74 730 81 773 90 c 1
 716 141 690 208 690 275 c 0
 690 396 795 553 1008 553 c 1
 989 463 l 1
 867 463 779 389 779 289 c 0
 779 224 820 152 918 107 c 1
 953 109 991 114 1032 114 c 0
 1130 114 1229 98 1309 56 c 1
 1254 -25 l 1
 1188 11 1106 27 1016 27 c 0x6740
 848 27 756 -15 632 -15 c 0
 352 -15 177 177 177 408 c 0
 177 683 419 933 745 987 c 1
 737 1008 732 1027 732 1047 c 0
 732 1164 850 1256 961 1256 c 0
 1053 1256 1117 1198 1117 1117 c 0xa6c0
940 1173 m 0
 875 1173 822 1119 822 1068 c 0
 822 1038 839 1003 916 1000 c 0x2ec0
 978 1006 1023 1061 1023 1100 c 0
 1023 1139 989 1173 940 1173 c 0
EndSplineSet
EndChar
StartChar: uni0E56
Encoding: 290 3670 306
Width: 1401
VWidth: 2982
Flags: W
HStem: -15 89<443.394 888.565> 468 85<390.561 538> 916 84<590.487 1047.3>
VStem: 226 90<180.592 396.811> 1254 91<389.328 725.232>
Fore
1345 587 m 0
 1345 280 1021 -15 647 -15 c 0
 365 -15 226 121 226 271 c 0
 226 403 340 553 555 553 c 1
 538 468 l 1
 412 468 316 393 316 291 c 0
 316 192 412 74 667 74 c 0
 959 74 1254 299 1254 568 c 0
 1254 761 1088 916 846 916 c 0
 696 916 500 859 401 788 c 2
 318 728 l 1
 331 818 l 2
 333 833 333 848 333 865 c 0
 333 1025 226 1194 139 1215 c 1
 179 1301 l 1
 312 1269 421 1072 430 895 c 1
 560 965 739 1000 865 1000 c 0
 1144 1000 1345 826 1345 587 c 0
EndSplineSet
EndChar
StartChar: uni0E57
Encoding: 291 3671 307
Width: 1401
VWidth: 2982
Flags: W
HStem: 0 90<287.328 363 824 925.519> 912 91<444.778 667.543 882.436 1079.66>
VStem: 134 92<156.078 596.386> 1126 96<418.029 864.719>
Fore
824 90 m 1
 985 90 1126 427 1126 679 c 0
 1126 818 1081 912 998 912 c 0
 880 912 808 799 786 690 c 2
 720 391 l 1
 632 391 l 1
 696 687 l 2
 701 709 703 732 703 754 c 0
 703 839 665 912 555 912 c 0
 374 912 226 591 226 342 c 0
 226 195 280 92 380 92 c 1
 363 2 l 1
 215 2 134 132 134 327 c 0
 134 613 312 1003 575 1003 c 0
 673 1003 748 961 779 869 c 1
 844 961 933 1003 1023 1003 c 0
 1153 1003 1222 884 1222 698 c 0
 1222 551 1168 269 1010 101 c 1
 1188 134 1301 250 1354 504 c 2
 1471 1047 l 2
 1486 1121 1515 1265 1636 1309 c 1
 1652 1226 l 1
 1605 1209 1580 1144 1560 1047 c 2
 1444 504 l 2
 1365 132 1153 2 875 0 c 2
 777 0 l 1
 824 90 l 1
EndSplineSet
EndChar
StartChar: uni0E58
Encoding: 292 3672 308
Width: 1401
VWidth: 2982
Flags: W
HStem: -15 89<876.195 1158.48> 886 90<991.336 1382.15> 912 88<625.432 1197.21>
VStem: 173 89<216.398 593.485>
Fore
846 912 m 0xb0
 564 912 262 718 262 396 c 0
 262 231 346 96 540 79 c 1
 692 331 l 1
 775 331 l 1
 790 179 882 74 991 74 c 0
 1119 74 1229 126 1262 284 c 1
 1356 284 l 1
 1312 81 1162 -15 976 -15 c 0
 853 -15 750 72 703 208 c 1
 573 -17 l 1
 248 -4 173 199 173 376 c 0
 173 779 555 1000 869 1000 c 0xb0
 1036 1000 1139 976 1211 976 c 0
 1367 976 1491 1059 1538 1280 c 1
 1627 1280 l 1
 1560 965 1352 886 1191 886 c 0xd0
 1102 886 1012 912 846 912 c 0xb0
EndSplineSet
EndChar
StartChar: uni0E59
Encoding: 293 3673 309
Width: 1401
VWidth: 2982
Flags: W
HStem: -15 89<383.534 655.883> 920 90<563.142 865.304 1153.11 1316.53>
VStem: 188 90<195.085 598.108> 1030 94<9 131.279> 1038 94<38.707 667.03> 1525 92<1026 1337>
Fore
716 920 m 0xec
 530 920 278 698 278 387 c 0
 278 195 383 74 495 74 c 0
 622 74 734 134 767 293 c 1
 865 293 l 1
 824 101 692 -15 479 -15 c 0
 318 -15 188 148 188 376 c 0
 188 728 483 1010 734 1010 c 0
 859 1010 959 961 1023 850 c 1
 1081 933 1155 1006 1256 1006 c 0
 1332 1006 1367 969 1392 929 c 1
 1466 1036 1508 1173 1525 1337 c 1
 1617 1350 l 1
 1587 987 1417 820 1359 763 c 1
 1343 824 1325 916 1241 916 c 0
 1184 916 1135 878 1068 759 c 1
 1110 643 1132 481 1132 267 c 0xec
 1132 188 1130 103 1124 9 c 1
 1030 -2 l 1xf4
 1036 94 1038 181 1038 260 c 0
 1038 795 893 920 716 920 c 0xec
EndSplineSet
EndChar
StartChar: uni0E5A
Encoding: 294 3674 310
Width: 1344
VWidth: 2982
Flags: W
HStem: 0 21G<875 965.255 1090 1183.25> 767 90<485.55 770.417> 1119 90<497.045 638>
VStem: 325 89<888.859 1043.65>
Fore
1090 0 m 1
 1343 1194 l 1
 1433 1194 l 1
 1179 0 l 1
 1090 0 l 1
638 1119 m 1
 508 1119 414 1021 414 955 c 0
 414 878 534 857 581 857 c 0
 839 857 1092 1128 1126 1194 c 1
 1215 1194 l 1
 961 0 l 1
 875 0 l 1
 1092 1027 l 1
 983 916 781 767 566 767 c 0
 448 767 325 826 325 938 c 0
 325 1063 479 1209 656 1209 c 1
 638 1119 l 1
EndSplineSet
EndChar
StartChar: uni0E5B
Encoding: 295 3675 311
Width: 2661
VWidth: 2982
Flags: W
HStem: -15 89<424.051 749.309> 383 89<605.478 750.805> 538 60<2472.91 2713.58> 585 88<2215.13 2502.86> 724 88<640.614 783.55> 924 20G<1563.5 1582.5> 1119 90<599.318 838.588>
VStem: 197 85<227.916 672.604> 506 90<476.92 677.969> 900 98<771.214 1053.74>
Fore
197 412 m 0xdfc0
 197 708 419 1209 750 1209 c 0
 908 1209 998 1090 998 908 c 0
 998 669 859 383 649 383 c 0
 560 383 506 455 506 544 c 0
 506 679 615 812 739 812 c 0
 808 812 853 771 871 714 c 1
 882 748 900 822 900 893 c 0
 900 1025 842 1119 730 1119 c 0
 506 1119 282 737 282 430 c 0
 282 181 434 74 560 74 c 0
 788 74 1032 224 1177 912 c 2
 1196 994 l 2
 1202 1027 1229 1045 1251 1045 c 0
 1269 1045 1285 1034 1285 1010 c 2
 1320 427 l 1
 1520 902 l 2
 1531 929 1553 944 1574 944 c 0
 1591 944 1610 929 1610 897 c 2
 1634 500 l 1
 1782 818 l 2
 1798 848 1818 865 1835 865 c 0
 1852 865 1865 848 1867 822 c 2
 1905 546 l 1
 2003 743 l 2
 2019 781 2035 799 2048 799 c 0
 2061 799 2072 784 2087 754 c 2
 2142 628 l 1
 2228 662 2292 673 2348 673 c 0xdfc0
 2463 673 2518 598 2617 598 c 0
 2679 598 2734 618 2758 618 c 0
 2766 618 2771 615 2771 607 c 1
 2764 579 2657 538 2604 538 c 0xefc0
 2496 538 2420 585 2330 585 c 0
 2172 585 2101 481 2070 549 c 2
 2037 624 l 1
 1918 385 l 2
 1905 359 1884 344 1867 344 c 0
 1852 344 1835 359 1833 383 c 2
 1798 647 l 1
 1638 307 l 2
 1625 278 1602 262 1585 262 c 0
 1567 262 1553 275 1553 305 c 2
 1533 696 l 1
 1335 224 l 2
 1320 192 1298 177 1283 177 c 0
 1265 177 1249 192 1247 224 c 2
 1218 692 l 1
 1102 297 904 -15 546 -15 c 0
 372 -15 197 130 197 412 c 0xdfc0
720 724 m 0
 669 724 596 656 596 566 c 0
 596 513 622 472 660 472 c 0
 741 472 795 560 795 628 c 0
 795 685 759 724 720 724 c 0
EndSplineSet
EndChar
StartChar: Euro
Encoding: 313 8364 313
Width: 1160
VWidth: 2982
Flags: W
HStem: -15 89<601.344 973.142> 521 90<199 284 372 1110> 880 89<275 342 466 1186> 1421 85<872.148 1231.4>
Fore
284 611 m 1
 293 707 314 801 342 880 c 1
 226 880 l 1
 275 969 l 1
 378 969 l 1
 521 1278 801 1506 1081 1506 c 0
 1204 1506 1307 1461 1388 1388 c 1
 1314 1314 l 1
 1249 1379 1162 1421 1061 1421 c 0
 837 1421 598 1235 466 969 c 1
 1235 969 l 1
 1186 880 l 1
 430 880 l 1
 387 781 374 665 372 611 c 1
 1160 611 l 1
 1110 521 l 1
 372 521 l 1
 389 258 551 74 775 74 c 0
 875 74 978 107 1072 173 c 1
 1115 105 l 1
 1003 30 880 -15 759 -15 c 0
 477 -15 295 215 284 521 c 1
 150 521 l 1
 199 611 l 1
 284 611 l 1
EndSplineSet
EndChar
StartChar: uni25CC
Encoding: 315 9676 314
Width: 1389
VWidth: 2982
Flags: W
HStem: -36 190<640.381 778.772> 114 191<314.801 454.778 1002.22 1141.27> 440 194<267.285 402.772 1216.29 1352.13> 741 190<449.739 588.274 1133.59 1274.82> 920 190<846.553 984.651>
VStem: 237 195<470.086 603.274> 286 195<141.15 275.133> 421 194<769.201 903.202> 613 195<-6.49951 125.799> 818 194<948.201 1082.2> 974 194<142.201 276.585> 1106 197<770.261 902.202> 1186 196<470.726 603.274>
Fore
974 188 m 0x6020
 974 242 1025 305 1092 305 c 0
 1137 305 1168 273 1168 228 c 0
 1168 161 1104 114 1050 114 c 0
 1006 114 974 145 974 188 c 0x6020
286 188 m 0x62
 286 258 354 305 406 305 c 0
 450 305 481 273 481 228 c 0
 481 158 416 114 365 114 c 0
 318 114 286 145 286 188 c 0x62
1106 818 m 0x3010
 1106 882 1171 931 1224 931 c 0
 1269 931 1303 897 1303 855 c 0
 1303 788 1235 741 1184 741 c 0
 1139 741 1106 775 1106 818 c 0x3010
613 40 m 0xa080
 613 107 679 154 732 154 c 0
 777 154 808 124 808 81 c 0
 808 25 754 -36 692 -36 c 0
 645 -36 613 -4 613 40 c 0xa080
421 814 m 0x31
 421 871 474 931 538 931 c 0
 585 931 615 900 615 855 c 0
 615 788 551 741 497 741 c 0
 453 741 421 773 421 814 c 0x31
237 517 m 0x24
 237 581 302 634 356 634 c 0
 401 634 432 600 432 557 c 0
 432 497 372 440 316 440 c 0
 269 440 237 474 237 517 c 0x24
818 994 m 0x2840
 818 1050 871 1110 933 1110 c 0
 980 1110 1012 1079 1012 1034 c 0
 1012 967 947 920 893 920 c 0
 848 920 818 951 818 994 c 0x2840
1186 517 m 0x2008
 1186 581 1251 634 1305 634 c 0
 1350 634 1382 600 1382 557 c 0
 1382 497 1320 440 1265 440 c 0
 1218 440 1186 474 1186 517 c 0x2008
EndSplineSet
EndChar
StartChar: uni0E10.descless
Encoding: 316 63232 315
Width: 1168
VWidth: 2982
Flags: W
HStem: 0 21G<914 1007.27> 553 90<726 1030> 1119 90<620.968 957.676>
VStem: 1083 92<771.051 993.11>
Fore
1050 643 m 1
 1077 763 l 2
 1081 788 1083 812 1083 837 c 0
 1083 998 969 1119 797 1119 c 0
 600 1119 408 961 365 763 c 1
 275 763 l 1
 327 1010 571 1209 814 1209 c 0
 914 1209 996 1175 1059 1121 c 1
 1188 1198 l 1
 1224 1121 l 1
 1115 1059 l 1
 1155 1006 1175 933 1175 857 c 0
 1175 826 1173 795 1166 763 c 2
 1003 0 l 1
 914 0 l 1
 1030 553 l 1
 675 553 l 1
 726 643 l 1
 1050 643 l 1
EndSplineSet
EndChar
StartChar: uni0E34.left
Encoding: 317 63233 316
Width: 0
VWidth: 2982
Flags: W
HStem: 1350 89<-855 -74>
VStem: -933 877<1350 1439>
Fore
-56 1439 m 1
 -74 1350 l 1
 -933 1350 l 1
 -855 1439 l 1
 -56 1439 l 1
EndSplineSet
EndChar
StartChar: uni0E35.left
Encoding: 318 63234 317
Width: 0
VWidth: 2982
Flags: W
HStem: 1350 89<-855 -145>
VStem: -933 901<1350 1555>
Fore
-145 1439 m 5
 -121 1555 l 5
 -32 1555 l 5
 -74 1350 l 5
 -933 1350 l 5
 -855 1439 l 5
 -145 1439 l 5
EndSplineSet
EndChar
StartChar: uni0E36.left
Encoding: 319 63235 318
Width: 0
VWidth: 2982
Flags: W
HStem: 1350 89<-855 -248> 1350 67<-180.193 -54.3025> 1555 68<-166.195 -40.7626>
VStem: -40 70<1432.25 1552.86>
Fore
30 1513 m 0xb0
 30 1435 -51 1350 -141 1350 c 2
 -933 1350 l 1x70
 -855 1439 l 1
 -248 1439 l 1
 -267 1493 -201 1623 -81 1623 c 0
 -15 1623 30 1576 30 1513 c 0xb0
-96 1555 m 0
 -139 1555 -181 1515 -181 1471 c 0
 -181 1439 -158 1417 -126 1417 c 0
 -79 1417 -40 1461 -40 1502 c 0
 -40 1533 -62 1555 -96 1555 c 0
EndSplineSet
EndChar
StartChar: uni0E37.left
Encoding: 320 63236 319
Width: 0
VWidth: 2982
Flags: W
HStem: 1350 89<-855 -338 -252 -145> 1350 205<-314 -252 -121 -74>
VStem: -933 901<1350 1555>
Fore
-314 1555 m 1x60
 -228 1555 l 1x60
 -252 1439 l 1
 -145 1439 l 1xa0
 -121 1555 l 1
 -32 1555 l 1
 -74 1350 l 1
 -933 1350 l 1x60
 -855 1439 l 1
 -338 1439 l 1xa0
 -314 1555 l 1x60
EndSplineSet
EndChar
StartChar: uni0E48.low_left
Encoding: 321 63237 320
Width: 0
VWidth: 2982
Flags: W
VStem: -252 141<1350 1594>
Fore
-164 1350 m 5
 -252 1350 l 5
 -201 1594 l 5
 -111 1594 l 5
 -164 1350 l 5
EndSplineSet
EndChar
StartChar: uni0E49.low_left
Encoding: 322 63238 321
Width: 0
VWidth: 2982
Flags: W
HStem: 1350 89<-440 -109> 1502 89<-591 -525.604>
Fore
-432 1493 m 0
 -432 1471 -436 1459 -440 1439 c 1
 -60 1439 l 1
 -109 1350 l 1
 -549 1350 l 1
 -526 1457 l 1
 -524 1461 -524 1468 -524 1473 c 0
 -524 1489 -530 1502 -562 1502 c 2
 -638 1502 l 1
 -591 1591 l 1
 -542 1591 l 2
 -450 1591 -432 1533 -432 1493 c 0
EndSplineSet
EndChar
StartChar: uni0E4A.low_left
Encoding: 323 63239 322
Width: 0
VWidth: 2982
Flags: W
HStem: 1350 89<-807.254 -759 -246 -2> 1567 90<-794.01 -599.802>
VStem: -902 94<1439.35 1550.69>
Fore
-902 1468 m 0
 -902 1555 -814 1657 -671 1657 c 0
 -571 1657 -515 1596 -500 1515 c 1
 -320 1630 l 1
 -205 1630 l 1
 -246 1439 l 1
 47 1439 l 1
 -2 1350 l 1
 -356 1350 l 1
 -316 1538 l 1
 -585 1363 l 1
 -581 1435 l 2
 -581 1466 -579 1567 -687 1567 c 0
 -779 1567 -808 1518 -808 1484 c 0
 -808 1459 -792 1439 -759 1439 c 2
 -739 1439 l 1
 -759 1350 l 1
 -779 1350 l 2
 -859 1350 -902 1406 -902 1468 c 0
EndSplineSet
EndChar
StartChar: uni0E4B.low_left
Encoding: 324 63240 323
Width: 0
VWidth: 2982
Flags: W
HStem: 1442 83<-302 -233 -126 -58>
VStem: -320 280<1442 1529>
Fore
-320 1442 m 1
 -302 1525 l 1
 -218 1525 l 1
 -197 1619 l 1
 -107 1619 l 1
 -126 1529 l 1
 -40 1529 l 1
 -58 1439 l 1
 -145 1439 l 1
 -164 1350 l 1
 -252 1350 l 1
 -233 1442 l 1
 -320 1442 l 1
EndSplineSet
EndChar
StartChar: uni0E4C.low_left
Encoding: 325 63241 324
Width: 0
VWidth: 2982
Flags: W
HStem: 1459 90<-242.339 -38>
VStem: -349 358<1350 1549>
Fore
-349 1350 m 1
 -336 1414 l 2
 -327 1450 -289 1549 -173 1549 c 2
 9 1549 l 1
 -38 1459 l 1
 -190 1459 l 2
 -235 1459 -242 1431 -246 1414 c 2
 -260 1350 l 1
 -349 1350 l 1
EndSplineSet
EndChar
StartChar: uni0E48.low
Encoding: 326 63242 325
Width: 0
VWidth: 2982
Flags: W
VStem: 30 141<1350 1594>
AnchorPoint: "AboveBase" 103 1271 mark 0
Fore
119 1350 m 1
 30 1350 l 1
 81 1594 l 1
 171 1594 l 1
 119 1350 l 1
EndSplineSet
EndChar
StartChar: uni0E49.low
Encoding: 327 63243 326
Width: 0
VWidth: 2982
Flags: W
HStem: 1350 89<-77 314> 1502 89<-226 -163.72>
VStem: -273 636<1439 1502>
AnchorPoint: "AboveBase" 248 1271 mark 0
Fore
-69 1495 m 0
 -69 1484 -74 1444 -77 1439 c 1
 363 1439 l 1
 314 1350 l 1
 -186 1350 l 1
 -164 1457 l 2
 -158 1471 -154 1502 -197 1502 c 2
 -273 1502 l 1
 -226 1591 l 1
 -179 1591 l 2
 -90 1591 -69 1540 -69 1495 c 0
EndSplineSet
EndChar
StartChar: uni0E4A.low
Encoding: 328 63244 327
Width: 0
VWidth: 2982
Flags: W
HStem: 1350 89<-242.68 -215 -215 -195 316 557> 1570 89<-232.342 -36.4291>
VStem: -338 94<1442.29 1552.67>
AnchorPoint: "AboveBase" 472 1271 mark 0
Fore
-338 1468 m 0
 -338 1547 -269 1659 -105 1659 c 0
 -4 1659 51 1600 64 1520 c 1
 246 1632 l 1
 356 1632 l 1
 316 1439 l 1
 609 1439 l 1
 557 1350 l 1
 208 1350 l 1
 248 1540 l 1
 -20 1367 l 1
 -15 1439 l 2
 -17 1468 -15 1570 -124 1570 c 0
 -195 1570 -244 1538 -244 1489 c 0
 -244 1461 -226 1442 -195 1442 c 2
 -175 1442 l 1
 -195 1352 l 1
 -215 1352 l 2
 -293 1352 -338 1406 -338 1468 c 0
EndSplineSet
EndChar
StartChar: uni0E4B.low
Encoding: 329 63245 328
Width: 0
VWidth: 2982
Flags: W
HStem: 1442 83<-17 49 156 226>
VStem: -36 280<1442 1529>
AnchorPoint: "AboveBase" 148 1271 mark 0
Fore
-36 1442 m 1
 -17 1525 l 1
 67 1525 l 1
 87 1619 l 1
 177 1619 l 1
 156 1529 l 1
 244 1529 l 1
 226 1439 l 1
 139 1439 l 1
 119 1350 l 1
 30 1350 l 1
 49 1442 l 1
 -36 1442 l 1
EndSplineSet
EndChar
StartChar: uni0E4C.low
Encoding: 330 63246 329
Width: 0
VWidth: 2982
Flags: W
HStem: 1459 90<-46.4375 161>
VStem: -150 361<1350 1549>
AnchorPoint: "AboveBase" 103 1271 mark 0
Fore
-150 1350 m 1
 -137 1414 l 2
 -126 1459 -90 1549 27 1549 c 2
 211 1549 l 1
 161 1459 l 1
 9 1459 l 2
 -30 1459 -43 1431 -47 1414 c 2
 -60 1350 l 1
 -150 1350 l 1
EndSplineSet
LCarets2: 2 0 0 
EndChar
StartChar: uni0E0D.descless
Encoding: 331 63247 330
Width: 1893
VWidth: 2982
Flags: W
HStem: -15 89<1199.31 1498.35> 0 90<275 346> 1119 90<628.406 970.694>
VStem: 1006 91<182.243 406.671> 1097 89<777.555 995.25>
Fore
168 0 m 1x78
 284 553 l 2
 302 638 376 716 440 759 c 1
 307 842 l 1
 432 1119 679 1209 826 1209 c 0
 1041 1209 1186 1057 1186 855 c 0
 1186 826 1184 795 1177 763 c 2
 1106 427 l 2
 1100 399 1097 369 1097 342 c 0
 1097 184 1196 74 1341 74 c 0
 1511 74 1688 226 1730 427 c 2
 1892 1194 l 1
 1981 1194 l 1
 1820 427 l 2
 1768 186 1549 -15 1323 -15 c 0xb8
 1128 -15 1006 130 1006 325 c 0
 1006 359 1010 391 1016 427 c 2
 1088 761 l 2
 1094 790 1097 818 1097 842 c 0
 1097 1016 965 1119 808 1119 c 0
 665 1119 493 1038 401 859 c 1
 549 763 l 1
 455 724 401 673 374 555 c 2
 275 90 l 1
 393 90 l 1
 346 0 l 1
 168 0 l 1x78
EndSplineSet
EndChar
StartChar: uni0E31.left
Encoding: 332 63248 331
Width: 0
VWidth: 2982
Flags: W
HStem: 1350 89<-419 305>
VStem: -528 911<1350 1439>
Fore
-419 1439 m 1
 383 1439 l 1
 305 1350 l 1
 -528 1350 l 1
 -483 1555 l 1
 -393 1555 l 1
 -419 1439 l 1
EndSplineSet
EndChar
StartChar: uni0E4D.left
Encoding: 333 63249 332
Width: 0
VWidth: 2982
Flags: W
HStem: 1316 70<-244.237 -113.297> 1523 68<-230.773 -105.025>
VStem: -314 68<1387.27 1511.05> -103 67<1399.35 1522>
Fore
-314 1426 m 0
 -314 1500 -239 1591 -145 1591 c 0
 -81 1591 -36 1544 -36 1480 c 0
 -36 1386 -130 1316 -203 1316 c 0
 -269 1316 -314 1363 -314 1426 c 0
-158 1523 m 0
 -211 1523 -246 1478 -246 1439 c 0
 -246 1408 -224 1386 -188 1386 c 0
 -150 1386 -103 1417 -103 1466 c 0
 -103 1500 -126 1523 -158 1523 c 0
EndSplineSet
EndChar
StartChar: uni0E48.left
Encoding: 335 63251 334
Width: 0
VWidth: 2982
Flags: W
VStem: -92 141<1683 1927>
Fore
-2 1683 m 5
 -92 1683 l 5
 -40 1927 l 5
 49 1927 l 5
 -2 1683 l 5
EndSplineSet
EndChar
StartChar: uni0E49.left
Encoding: 336 63252 335
Width: 0
VWidth: 2982
Flags: W
HStem: 1683 90<-175 154> 1835 90<-325 -262.368>
VStem: -262 94<1776.1 1829>
Fore
-168 1829 m 0
 -168 1818 -173 1777 -175 1773 c 1
 203 1773 l 1
 154 1683 l 1
 -284 1683 l 1
 -262 1790 l 2
 -258 1807 -255 1835 -295 1835 c 2
 -374 1835 l 1
 -325 1925 l 1
 -278 1925 l 2
 -188 1925 -168 1871 -168 1829 c 0
EndSplineSet
EndChar
StartChar: uni0E4A.left
Encoding: 337 63253 336
Width: 0
VWidth: 2982
Flags: W
HStem: 1683 90<-270.254 -222 286 530> 1905 90<-257.481 -62.9005>
VStem: -365 94<1776.39 1889.07>
Fore
-365 1807 m 0
 -365 1894 -278 1995 -134 1995 c 0
 -34 1995 22 1934 38 1854 c 1
 218 1967 l 1
 329 1967 l 1
 286 1773 l 1
 579 1773 l 1
 530 1683 l 1
 181 1683 l 1
 222 1873 l 1
 -47 1701 l 1
 -45 1773 l 2
 -45 1786 l 0
 -45 1826 -56 1905 -150 1905 c 0
 -244 1905 -271 1856 -271 1822 c 0
 -271 1798 -255 1775 -222 1775 c 2
 -201 1775 l 1
 -222 1685 l 1
 -242 1685 l 2
 -322 1685 -365 1743 -365 1807 c 0
EndSplineSet
EndChar
StartChar: uni0E4B.left
Encoding: 338 63254 337
Width: 0
VWidth: 2982
Flags: W
HStem: 1775 85<-141 -74 36 103>
VStem: -158 279<1775 1862>
Fore
-158 1775 m 5
 -141 1860 l 5
 -56 1860 l 5
 -36 1952 l 5
 54 1952 l 5
 36 1862 l 5
 121 1862 l 5
 103 1773 l 5
 15 1773 l 5
 -2 1683 l 5
 -92 1683 l 5
 -74 1775 l 5
 -158 1775 l 5
EndSplineSet
EndChar
StartChar: uni0E4C.left
Encoding: 339 63255 338
Width: 0
VWidth: 2982
Flags: W
HStem: 1793 89<12.2656 218>
VStem: -92 359<1683 1882>
Fore
-92 1683 m 1
 -79 1748 l 2
 -72 1784 -27 1882 83 1882 c 2
 267 1882 l 1
 218 1793 l 1
 64 1793 l 2
 27 1793 13 1764 11 1748 c 2
 -2 1683 l 1
 -92 1683 l 1
EndSplineSet
EndChar
StartChar: uni0E38.low
Encoding: 340 63256 339
Width: 0
VWidth: 2982
Flags: W
HStem: -573 90<-468 -378>
VStem: -515 244<-573 -483>
Fore
-468 -483 m 5
 -271 -483 l 5
 -346 -848 l 5
 -436 -848 l 5
 -378 -573 l 5
 -515 -573 l 5
 -468 -483 l 5
EndSplineSet
EndChar
StartChar: uni0E39.low
Encoding: 341 63257 340
Width: 0
VWidth: 2982
Flags: W
HStem: -848 89<-659.384 -452.093>
VStem: -775 92<-733.822 -614.487>
Fore
-792 -483 m 1
 -651 -483 l 1
 -679 -611 l 2
 -681 -622 -683 -634 -683 -643 c 0
 -683 -709 -634 -759 -564 -759 c 0
 -483 -759 -403 -692 -387 -611 c 2
 -361 -483 l 1
 -271 -483 l 1
 -297 -611 l 2
 -325 -743 -453 -848 -581 -848 c 0
 -696 -848 -775 -771 -775 -662 c 0
 -775 -647 -773 -628 -767 -611 c 2
 -761 -573 l 1
 -842 -573 l 1
 -792 -483 l 1
EndSplineSet
EndChar
StartChar: uni0E3A.low
Encoding: 342 63258 341
Width: 0
VWidth: 2982
Flags: W
HStem: -638 147<-396.178 -269.63>
VStem: -410 155<-623.168 -505.757>
Fore
-410 -579 m 0
 -410 -534 -367 -491 -316 -491 c 0
 -280 -491 -255 -513 -255 -546 c 0
 -255 -598 -302 -638 -346 -638 c 0
 -385 -638 -410 -613 -410 -579 c 0
EndSplineSet
EndChar
StartChar: uniF780
Encoding: 343 63360 342
Width: 880
VWidth: 2982
Flags: W
HStem: 0 21G<626 720.299> 1119 90<451.074 737.78> 1316 70<-214.292 -85.5928> 1523 68<-201.192 -75.1033>
VStem: -284 69<1387.14 1511.11> -74 70<1397.21 1521.88> 803 92<808.709 1049.57>
Fore
626 0 m 1
 790 763 l 2
 799 806 803 848 803 891 c 0
 803 1014 756 1119 600 1119 c 0
 524 1119 427 1074 336 1010 c 1
 359 1110 l 1
 446 1171 538 1209 618 1209 c 0
 818 1209 895 1081 895 908 c 0
 895 861 891 814 880 763 c 2
 716 0 l 1
 626 0 l 1
-284 1426 m 0
 -284 1500 -211 1591 -116 1591 c 0
 -49 1591 -4 1544 -4 1480 c 0
 -4 1386 -98 1316 -175 1316 c 0
 -239 1316 -284 1363 -284 1426 c 0
-130 1523 m 0
 -173 1523 -215 1484 -215 1437 c 0
 -215 1408 -192 1386 -158 1386 c 0
 -107 1386 -74 1431 -74 1468 c 0
 -74 1500 -96 1523 -130 1523 c 0
EndSplineSet
EndChar
StartChar: uniF781
Encoding: 344 63361 343
Width: 0
VWidth: 2982
Flags: W
HStem: 1459 72<-514.835 -277.816> 2131 74<125.307 208> 2140 73<-95.0669 203.6>
VStem: -598 77<1548.04 1696.59> -329 77<1889.9 2037.67>
Fore
103 2140 m 0xb8
 -81 2140 -252 2053 -252 1952 c 0
 -252 1901 -188 1873 -126 1865 c 1
 -60 1865 l 1
 -148 1790 l 1
 -175 1790 l 2
 -312 1790 -493 1755 -521 1614 c 1
 -521 1610 -524 1605 -524 1602 c 0
 -524 1560 -466 1531 -403 1531 c 0
 -338 1531 -297 1558 -286 1574 c 1
 -231 1538 l 1
 -275 1484 -349 1459 -419 1459 c 0
 -524 1459 -598 1511 -598 1589 c 0
 -598 1643 -562 1807 -297 1854 c 1
 -316 1873 -329 1899 -329 1931 c 0
 -329 2068 -148 2213 121 2213 c 0xb8
 156 2213 195 2211 235 2205 c 1
 208 2131 l 1xd8
 171 2138 137 2140 103 2140 c 0xb8
EndSplineSet
EndChar
StartChar: uniF782
Encoding: 345 63362 344
Width: 1320
VWidth: 2982
Flags: W
HStem: -15 89<327.952 556.882> -15 96<802.306 1040.99> 895 90<1008 1213.94> 1174 20G<391.761 485 1328.5 1431>
VStem: 201 92<108.821 304.205> 1243 87<704.63 866.591>
Fore
1431 1194 m 1x7c
 1421 1168 1401 1025 1247 938 c 1
 1301 897 1330 833 1330 759 c 0
 1330 739 1327 718 1323 696 c 2
 1249 340 l 2
 1196 92 1047 -15 893 -15 c 0x7c
 795 -15 724 60 694 158 c 1
 622 60 519 -15 421 -15 c 0
 293 -15 201 58 201 222 c 0
 201 258 205 295 215 340 c 2
 396 1194 l 1
 485 1194 l 1
 305 340 l 2
 297 307 293 273 293 239 c 0
 293 150 327 74 438 74 c 0xbc
 604 74 669 244 690 340 c 2
 828 985 l 1
 914 985 l 1
 779 346 l 2
 773 314 767 280 767 246 c 0
 767 156 801 81 914 81 c 0
 1066 81 1132 222 1160 346 c 2
 1235 701 l 2
 1241 720 1243 739 1243 756 c 0
 1243 837 1200 895 1113 895 c 2
 987 895 l 1
 1008 985 l 1
 1132 985 l 2
 1247 985 1316 1079 1341 1194 c 1
 1431 1194 l 1x7c
EndSplineSet
EndChar
StartChar: uniF783
Encoding: 346 63363 345
Width: 1810
VWidth: 2982
Flags: W
HStem: -455 21G<828 922.253 1459 1553.24> 0 90<275 346> 1119 90<628.406 973.558 1379.66 1665.29>
VStem: 1097 89<778.555 996.199> 1732 92<819.309 1051.2>
Fore
401 859 m 1
 549 763 l 1
 455 724 399 671 374 553 c 2
 275 90 l 1
 393 90 l 1
 346 0 l 1
 168 0 l 1
 284 553 l 2
 302 638 378 716 446 759 c 1
 307 842 l 1
 432 1119 679 1209 826 1209 c 0
 1041 1209 1186 1057 1186 855 c 0
 1186 826 1184 795 1177 763 c 2
 918 -455 l 1
 828 -455 l 1
 1088 763 l 2
 1094 792 1097 820 1097 844 c 0
 1097 1019 965 1119 808 1119 c 0
 665 1119 493 1038 401 859 c 1
1459 -455 m 1
 1717 763 l 2
 1726 806 1732 850 1732 893 c 0
 1732 1016 1683 1119 1527 1119 c 0
 1453 1119 1356 1074 1265 1010 c 1
 1288 1110 l 1
 1374 1171 1466 1209 1547 1209 c 0
 1743 1209 1824 1083 1824 912 c 0
 1824 865 1818 814 1807 763 c 2
 1549 -455 l 1
 1459 -455 l 1
EndSplineSet
LCarets2: 1 0 
EndChar
StartChar: uniF784
Encoding: 347 63364 346
Width: 1810
VWidth: 2982
Flags: W
HStem: -455 21G<828 922.253 1459 1553.24> 0 90<111 186> 1119 90<628.406 973.558 1379.66 1665.29>
VStem: 1097 89<778.555 996.199> 1732 92<819.309 1051.2>
Fore
401 859 m 1
 549 763 l 1
 455 724 399 671 374 553 c 2
 258 0 l 1
 62 0 l 1
 111 90 l 1
 186 90 l 1
 284 553 l 2
 302 638 378 716 446 759 c 1
 307 842 l 1
 432 1119 679 1209 826 1209 c 0
 1041 1209 1186 1057 1186 855 c 0
 1186 826 1184 795 1177 763 c 2
 918 -455 l 1
 828 -455 l 1
 1088 763 l 2
 1094 792 1097 820 1097 844 c 0
 1097 1019 965 1119 808 1119 c 0
 665 1119 493 1038 401 859 c 1
1459 -455 m 1
 1717 763 l 2
 1726 806 1732 850 1732 893 c 0
 1732 1016 1683 1119 1527 1119 c 0
 1453 1119 1356 1074 1265 1010 c 1
 1288 1110 l 1
 1374 1171 1466 1209 1547 1209 c 0
 1743 1209 1824 1083 1824 912 c 0
 1824 865 1818 814 1807 763 c 2
 1549 -455 l 1
 1459 -455 l 1
EndSplineSet
LCarets2: 1 0 
EndChar
StartChar: uniFB00
Encoding: 348 64256 347
Width: 1098
VWidth: 2982
Flags: W
HStem: 0 21G<143 237.259 701 794.259> 925 89<269 340 448 897 1000 1238> 1372 61<688.977 960.301> 1433 60<1249.97 1370>
Fore
814 1433 m 0
 940 1433 1010 1382 1045 1323 c 1
 1132 1424 1258 1493 1384 1493 c 1
 1370 1433 l 1
 1218 1433 1055 1265 1016 1090 c 2
 1000 1014 l 1
 1280 1014 l 1
 1238 925 l 1
 987 925 l 1
 790 0 l 1
 701 0 l 1
 897 925 l 1
 430 925 l 1
 233 0 l 1
 143 0 l 1
 340 925 l 1
 250 925 l 1
 269 1014 l 1
 359 1014 l 1
 363 1030 l 2
 410 1254 607 1433 814 1433 c 0
448 1014 m 1
 914 1014 l 1
 929 1090 l 2
 944 1162 978 1229 1021 1290 c 1
 985 1345 918 1372 842 1372 c 0
 662 1372 493 1224 453 1030 c 2
 448 1014 l 1
EndSplineSet
LCarets2: 1 0 
Ligature2: "'liga' Standard Ligatures in Latin lookup 0" f f
EndChar
StartChar: uniFB01
Encoding: 349 64257 348
Width: 923
VWidth: 2982
Flags: W
HStem: 0 21G<143 237.259 701 792.241> 925 89<269 340 448 897> 1182 143<952.927 1046.08> 1433 60<701.007 974.483>
VStem: 940 148<1196.72 1309.42>
Fore
940 1241 m 0
 940 1288 991 1325 1027 1325 c 0
 1034 1325 1043 1325 1047 1323 c 1
 1019 1397 942 1433 853 1433 c 0
 673 1433 506 1283 463 1090 c 2
 448 1014 l 1
 1003 1014 l 1
 788 0 l 1
 701 0 l 1
 897 925 l 1
 430 925 l 1
 233 0 l 1
 143 0 l 1
 340 925 l 1
 250 925 l 1
 269 1014 l 1
 359 1014 l 1
 374 1090 l 2
 423 1314 618 1493 828 1493 c 0
 1019 1493 1088 1384 1088 1292 c 0
 1088 1207 1030 1182 998 1182 c 0
 963 1182 940 1209 940 1241 c 0
EndSplineSet
LCarets2: 1 0 
Ligature2: "'liga' Standard Ligatures in Latin lookup 0" f i
EndChar
StartChar: uniFB02
Encoding: 350 64258 349
Width: 927
VWidth: 2982
Flags: W
HStem: 0 21G<143 237.259 701 792.26> 925 89<269 340 448 681> 1433 60<696.473 1006>
VStem: 143 963<0 1493>
Fore
788 0 m 1
 701 0 l 1
 1006 1433 l 1
 818 1433 l 2
 665 1433 502 1265 463 1090 c 2
 448 1014 l 1
 730 1014 l 1
 681 925 l 1
 430 925 l 1
 233 0 l 1
 143 0 l 1
 340 925 l 1
 250 925 l 1
 269 1014 l 1
 359 1014 l 1
 374 1090 l 2
 421 1309 622 1493 828 1493 c 2
 1106 1493 l 1
 788 0 l 1
EndSplineSet
LCarets2: 1 0 
Ligature2: "'liga' Standard Ligatures in Latin lookup 0" f l
EndChar
StartChar: uniFB03
Encoding: 351 64259 350
Width: 1481
VWidth: 2982
Flags: W
HStem: 0 21G<143 237.259 701 794.259 1260 1349.3> 925 89<269 340 448 897 1008 1457> 1182 143<1509.87 1585> 1372 61<690.594 962.497> 1433 60<1260.4 1534.01>
VStem: 1497 150<1198.38 1311.85>
Fore
1497 1238 m 0
 1497 1285 1542 1325 1585 1325 c 0
 1591 1325 1600 1325 1607 1323 c 1
 1578 1397 1502 1433 1412 1433 c 0
 1233 1433 1063 1283 1023 1090 c 2
 1008 1014 l 1
 1563 1014 l 1
 1345 0 l 1
 1260 0 l 1
 1457 925 l 1
 987 925 l 1
 790 0 l 1
 701 0 l 1
 897 925 l 1
 430 925 l 1
 233 0 l 1
 143 0 l 1
 340 925 l 1
 250 925 l 1
 269 1014 l 1
 359 1014 l 1
 363 1030 l 2
 410 1254 607 1433 814 1433 c 0
 940 1433 1014 1382 1047 1323 c 1
 1135 1424 1258 1493 1386 1493 c 0
 1580 1493 1647 1382 1647 1290 c 0
 1647 1204 1580 1182 1555 1182 c 0
 1523 1182 1497 1207 1497 1238 c 0
842 1372 m 0
 685 1372 497 1251 448 1014 c 1
 918 1014 l 1
 933 1090 l 2
 949 1162 978 1233 1021 1290 c 1
 985 1345 918 1372 842 1372 c 0
EndSplineSet
LCarets2: 2 0 0 
Ligature2: "'liga' Standard Ligatures in Latin lookup 0" f f i
EndChar
StartChar: uniFB04
Encoding: 352 64260 351
Width: 1487
VWidth: 2982
Flags: W
HStem: 0 21G<143 237.259 701 794.259 1260 1349.27> 925 89<269 340 448 897 1008 1238> 1372 61<688.977 962.497> 1433 60<1262.67 1565>
Fore
1288 1014 m 1
 1238 925 l 1
 987 925 l 1
 790 0 l 1
 701 0 l 1
 897 925 l 1
 430 925 l 1
 233 0 l 1
 143 0 l 1
 340 925 l 1
 250 925 l 1
 269 1014 l 1
 359 1014 l 1
 363 1030 l 2
 410 1254 607 1433 814 1433 c 0
 940 1433 1014 1382 1047 1323 c 1
 1135 1424 1258 1493 1386 1493 c 2
 1664 1493 l 1
 1345 0 l 1
 1260 0 l 1
 1565 1433 l 1
 1412 1433 l 2
 1233 1433 1063 1283 1023 1090 c 2
 1008 1014 l 1
 1288 1014 l 1
453 1030 m 2
 448 1014 l 1
 918 1014 l 1
 933 1090 l 2
 949 1162 978 1233 1021 1290 c 1
 985 1345 918 1372 842 1372 c 0
 662 1372 493 1224 453 1030 c 2
EndSplineSet
LCarets2: 2 0 0 
Ligature2: "'liga' Standard Ligatures in Latin lookup 0" f f l
EndChar
